<svg width="1800" height="1200" viewBox="0 0 1800 1200" fill="none" xmlns="http://www.w3.org/2000/svg">
<rect width="1800" height="1200" fill="#5AA6DE" fill-opacity="0.6"/>
<path d="M1399.76 268.313C1399.76 399.399 1253.29 379.453 875.316 379.453C497.346 379.453 340.941 399.399 340.941 268.313C340.941 137.228 497.346 155.817 875.316 155.817C1253.29 155.817 1399.76 137.228 1399.76 268.313Z" fill="#D9D9D9"/>
<line x1="1315.06" y1="266.273" x2="1664.47" y2="266.273" stroke="black" stroke-width="2"/>
<line x1="81.4706" y1="267.273" x2="81.4706" y2="703.636" stroke="black" stroke-width="2"/>
<line x1="1423" y1="916.364" x2="1423" y2="1142.18" stroke="black" stroke-width="2"/>
<line x1="187.353" y1="919.636" x2="187.353" y2="1144.36" stroke="black" stroke-width="2"/>
<line x1="1665.47" y1="265.091" x2="1665.47" y2="701.455" stroke="black" stroke-width="2"/>
<line x1="80.4706" y1="266.273" x2="429.882" y2="266.273" stroke="black" stroke-width="2"/>
<rect x="429.882" y="185.455" width="52.9412" height="163.636" fill="#C4BEBE"/>
<rect x="1023.88" y="877.091" width="21.1765" height="87.2727" fill="black"/>
<rect x="1090.59" y="876" width="21.1765" height="87.2727" fill="black"/>
<rect x="1157.29" y="876" width="21.1765" height="87.2727" fill="black"/>
<rect x="1262.12" y="185.455" width="52.9412" height="163.636" fill="#C4BEBE"/>
<line y1="-1" x2="1584" y2="-1" transform="matrix(0.999999 -0.00137282 0.00129325 0.999999 80.4706 703.636)" stroke="black" stroke-width="2"/>
<line y1="-1" x2="1235.65" y2="-1" transform="matrix(0.999994 -0.00352551 0.00332118 0.999995 186.353 1146.54)" stroke="black" stroke-width="2"/>
<ellipse cx="1664.47" cy="484.364" rx="52.9412" ry="54.5455" fill="#D9D9D9"/>
<path d="M1649.31 502H1643.77L1659.79 458.364H1665.25L1681.27 502H1675.73L1662.69 465.267H1662.35L1649.31 502ZM1651.35 484.955H1673.68V489.642H1651.35V484.955Z" fill="black"/>
<ellipse cx="1213.41" cy="701.455" rx="52.9412" ry="54.5455" fill="#D9D9D9"/>
<path d="M1198.25 678.727L1211.2 715.46H1211.72L1224.67 678.727H1230.21L1214.19 722.364H1208.73L1192.71 678.727H1198.25Z" fill="black"/>
<path d="M593.998 894.515C594.584 895.101 595.534 895.101 596.119 894.515L605.665 884.969C606.251 884.383 606.251 883.434 605.665 882.848C605.08 882.262 604.13 882.262 603.544 882.848L595.059 891.333L586.574 882.848C585.988 882.262 585.038 882.262 584.452 882.848C583.866 883.434 583.866 884.383 584.452 884.969L593.998 894.515ZM593.559 703.636V893.455H596.559V703.636H593.559Z" fill="black"/>
<line y1="-1" x2="243.531" y2="-1" transform="matrix(0.99999 0.00447953 -0.00421991 0.999991 186.353 919.636)" stroke="black" stroke-width="2"/>
<line y1="-1" x2="243.531" y2="-1" transform="matrix(0.99999 -0.00447953 0.00421991 0.999991 758.118 920.727)" stroke="black" stroke-width="2"/>
<line y1="-1" x2="243.531" y2="-1" transform="matrix(0.99999 -0.00447953 0.00421991 0.999991 1178.47 919.636)" stroke="black" stroke-width="2"/>
<path d="M450 897.818L428.824 919.636" stroke="black" stroke-width="3" stroke-miterlimit="2.61313"/>
<path d="M758.118 920.727L736.941 942.545" stroke="black" stroke-width="3" stroke-miterlimit="2.61313"/>
<path d="M654.353 942.545L696.706 898.909" stroke="black" stroke-width="3" stroke-miterlimit="2.61313"/>
<path d="M571.765 942.545L614.118 898.909" stroke="black" stroke-width="3" stroke-miterlimit="2.61313"/>
<path d="M613.059 898.909L655.412 942.545" stroke="black" stroke-width="3" stroke-miterlimit="2.61313"/>
<path d="M531.529 898.909L573.882 942.545" stroke="black" stroke-width="3" stroke-miterlimit="2.61313"/>
<path d="M448.941 897.818L491.294 941.455" stroke="black" stroke-width="3" stroke-miterlimit="2.61313"/>
<path d="M695.647 898.909L738 942.545" stroke="black" stroke-width="3" stroke-miterlimit="2.61313"/>
<path d="M490.235 941.455L532.588 897.818" stroke="black" stroke-width="3" stroke-miterlimit="2.61313"/>
<line y1="-0.5" x2="130.913" y2="-0.5" transform="matrix(-0.00808797 0.999967 -0.999963 -0.00858554 1002.71 854.182)" stroke="black"/>
<line y1="-0.5" x2="130.913" y2="-0.5" transform="matrix(-0.00808797 0.999967 -0.999963 -0.00858554 1068.35 854.182)" stroke="black"/>
<line y1="-0.5" x2="130.913" y2="-0.5" transform="matrix(-0.00808797 0.999967 -0.999963 -0.00858554 1135.06 854.182)" stroke="black"/>
<line x1="1038.71" y1="919.136" x2="1068.35" y2="919.136" stroke="black"/>
<line x1="1105.41" y1="919.136" x2="1135.06" y2="919.136" stroke="black"/>
<path d="M395.422 141.545H391.729L402.41 112.455H406.047L416.729 141.545H413.035L404.342 117.057H404.115L395.422 141.545ZM396.785 130.182H411.672V133.307H396.785V130.182ZM424.158 128.42V141.545H420.805V119.727H424.044V123.136H424.328C424.839 122.028 425.616 121.138 426.658 120.466C427.699 119.784 429.044 119.443 430.692 119.443C432.169 119.443 433.462 119.746 434.57 120.352C435.678 120.949 436.539 121.858 437.155 123.08C437.77 124.292 438.078 125.826 438.078 127.682V141.545H434.726V127.909C434.726 126.195 434.281 124.86 433.391 123.903C432.5 122.938 431.279 122.455 429.726 122.455C428.656 122.455 427.699 122.687 426.857 123.151C426.023 123.615 425.365 124.292 424.882 125.182C424.399 126.072 424.158 127.152 424.158 128.42ZM453.067 142C451.098 142 449.37 141.531 447.883 140.594C446.406 139.656 445.25 138.345 444.417 136.659C443.593 134.973 443.181 133.004 443.181 130.75C443.181 128.477 443.593 126.493 444.417 124.798C445.25 123.103 446.406 121.787 447.883 120.849C449.37 119.912 451.098 119.443 453.067 119.443C455.037 119.443 456.761 119.912 458.238 120.849C459.725 121.787 460.88 123.103 461.704 124.798C462.537 126.493 462.954 128.477 462.954 130.75C462.954 133.004 462.537 134.973 461.704 136.659C460.88 138.345 459.725 139.656 458.238 140.594C456.761 141.531 455.037 142 453.067 142ZM453.067 138.989C454.564 138.989 455.795 138.605 456.761 137.838C457.727 137.071 458.441 136.063 458.906 134.813C459.37 133.563 459.602 132.208 459.602 130.75C459.602 129.292 459.37 127.933 458.906 126.673C458.441 125.414 457.727 124.396 456.761 123.619C455.795 122.843 454.564 122.455 453.067 122.455C451.571 122.455 450.34 122.843 449.374 123.619C448.408 124.396 447.693 125.414 447.229 126.673C446.765 127.933 446.533 129.292 446.533 130.75C446.533 132.208 446.765 133.563 447.229 134.813C447.693 136.063 448.408 137.071 449.374 137.838C450.34 138.605 451.571 138.989 453.067 138.989ZM476.31 142C474.491 142 472.886 141.541 471.494 140.622C470.102 139.694 469.013 138.387 468.227 136.702C467.441 135.007 467.048 133.004 467.048 130.693C467.048 128.402 467.441 126.413 468.227 124.727C469.013 123.042 470.107 121.74 471.508 120.821C472.91 119.902 474.529 119.443 476.366 119.443C477.787 119.443 478.909 119.68 479.733 120.153C480.566 120.617 481.201 121.148 481.636 121.744C482.081 122.331 482.427 122.814 482.673 123.193H482.957V112.455H486.31V141.545H483.071V138.193H482.673C482.427 138.591 482.077 139.093 481.622 139.699C481.168 140.295 480.519 140.83 479.676 141.304C478.833 141.768 477.711 142 476.31 142ZM476.764 138.989C478.109 138.989 479.245 138.638 480.173 137.938C481.101 137.227 481.807 136.247 482.29 134.997C482.773 133.738 483.014 132.284 483.014 130.636C483.014 129.008 482.777 127.582 482.304 126.361C481.83 125.13 481.13 124.173 480.202 123.491C479.274 122.8 478.128 122.455 476.764 122.455C475.344 122.455 474.16 122.819 473.213 123.548C472.276 124.268 471.57 125.248 471.097 126.489C470.633 127.72 470.401 129.102 470.401 130.636C470.401 132.189 470.637 133.6 471.111 134.869C471.594 136.129 472.304 137.133 473.241 137.881C474.188 138.619 475.363 138.989 476.764 138.989ZM502.062 142C499.96 142 498.147 141.536 496.622 140.608C495.107 139.67 493.937 138.364 493.114 136.688C492.299 135.002 491.892 133.042 491.892 130.807C491.892 128.572 492.299 126.602 493.114 124.898C493.937 123.184 495.083 121.848 496.551 120.892C498.028 119.926 499.752 119.443 501.722 119.443C502.858 119.443 503.98 119.633 505.088 120.011C506.196 120.39 507.205 121.006 508.114 121.858C509.023 122.701 509.747 123.818 510.287 125.21C510.827 126.602 511.097 128.316 511.097 130.352V131.773H494.278V128.875H507.687C507.687 127.644 507.441 126.545 506.949 125.58C506.466 124.614 505.775 123.851 504.875 123.293C503.985 122.734 502.934 122.455 501.722 122.455C500.386 122.455 499.231 122.786 498.256 123.449C497.29 124.102 496.546 124.955 496.026 126.006C495.505 127.057 495.244 128.184 495.244 129.386V131.318C495.244 132.966 495.528 134.363 496.097 135.509C496.674 136.645 497.474 137.511 498.497 138.108C499.52 138.695 500.708 138.989 502.062 138.989C502.943 138.989 503.739 138.866 504.449 138.619C505.169 138.364 505.789 137.985 506.31 137.483C506.83 136.972 507.233 136.337 507.517 135.58L510.756 136.489C510.415 137.587 509.842 138.553 509.037 139.386C508.232 140.21 507.238 140.854 506.054 141.318C504.87 141.773 503.54 142 502.062 142Z" fill="black"/>
<path d="M1240.34 121.545H1236.82C1236.61 120.532 1236.25 119.642 1235.73 118.875C1235.22 118.108 1234.59 117.464 1233.85 116.943C1233.12 116.413 1232.31 116.015 1231.42 115.75C1230.53 115.485 1229.61 115.352 1228.64 115.352C1226.88 115.352 1225.28 115.797 1223.85 116.688C1222.43 117.578 1221.3 118.889 1220.46 120.622C1219.62 122.355 1219.21 124.481 1219.21 127C1219.21 129.519 1219.62 131.645 1220.46 133.378C1221.3 135.111 1222.43 136.422 1223.85 137.313C1225.28 138.203 1226.88 138.648 1228.64 138.648C1229.61 138.648 1230.53 138.515 1231.42 138.25C1232.31 137.985 1233.12 137.592 1233.85 137.071C1234.59 136.541 1235.22 135.892 1235.73 135.125C1236.25 134.348 1236.61 133.458 1236.82 132.455H1240.34C1240.08 133.941 1239.6 135.272 1238.89 136.446C1238.19 137.62 1237.32 138.619 1236.28 139.443C1235.24 140.258 1234.07 140.878 1232.77 141.304C1231.48 141.73 1230.11 141.943 1228.64 141.943C1226.16 141.943 1223.95 141.337 1222.02 140.125C1220.09 138.913 1218.57 137.189 1217.46 134.955C1216.35 132.72 1215.8 130.068 1215.8 127C1215.8 123.932 1216.35 121.28 1217.46 119.045C1218.57 116.811 1220.09 115.087 1222.02 113.875C1223.95 112.663 1226.16 112.057 1228.64 112.057C1230.11 112.057 1231.48 112.27 1232.77 112.696C1234.07 113.122 1235.24 113.747 1236.28 114.571C1237.32 115.385 1238.19 116.38 1238.89 117.554C1239.6 118.719 1240.08 120.049 1240.34 121.545ZM1252 142.057C1250.62 142.057 1249.36 141.796 1248.24 141.276C1247.11 140.745 1246.22 139.983 1245.55 138.989C1244.89 137.985 1244.56 136.773 1244.56 135.352C1244.56 134.102 1244.81 133.089 1245.3 132.313C1245.79 131.527 1246.45 130.911 1247.27 130.466C1248.1 130.021 1249 129.689 1250 129.472C1251 129.244 1252.01 129.064 1253.02 128.932C1254.35 128.761 1255.43 128.634 1256.25 128.548C1257.08 128.454 1257.69 128.297 1258.07 128.08C1258.46 127.862 1258.65 127.483 1258.65 126.943V126.83C1258.65 125.428 1258.27 124.339 1257.5 123.563C1256.74 122.786 1255.59 122.398 1254.05 122.398C1252.45 122.398 1251.19 122.748 1250.28 123.449C1249.37 124.15 1248.74 124.898 1248.37 125.693L1245.18 124.557C1245.75 123.231 1246.51 122.199 1247.46 121.46C1248.41 120.712 1249.45 120.191 1250.58 119.898C1251.72 119.595 1252.84 119.443 1253.93 119.443C1254.63 119.443 1255.44 119.528 1256.35 119.699C1257.27 119.86 1258.15 120.196 1259 120.707C1259.87 121.219 1260.58 121.991 1261.15 123.023C1261.72 124.055 1262 125.438 1262 127.17V141.545H1258.65V138.591H1258.48C1258.25 139.064 1257.87 139.571 1257.34 140.111C1256.81 140.651 1256.11 141.11 1255.23 141.489C1254.35 141.867 1253.27 142.057 1252 142.057ZM1252.51 139.045C1253.84 139.045 1254.96 138.785 1255.87 138.264C1256.78 137.743 1257.48 137.071 1257.94 136.247C1258.41 135.423 1258.65 134.557 1258.65 133.648V130.58C1258.51 130.75 1258.2 130.906 1257.71 131.048C1257.24 131.181 1256.69 131.299 1256.06 131.403C1255.45 131.498 1254.85 131.583 1254.26 131.659C1253.68 131.725 1253.21 131.782 1252.85 131.83C1251.98 131.943 1251.17 132.128 1250.41 132.384C1249.66 132.63 1249.06 133.004 1248.59 133.506C1248.14 133.998 1247.91 134.67 1247.91 135.523C1247.91 136.688 1248.34 137.568 1249.2 138.165C1250.07 138.752 1251.18 139.045 1252.51 139.045ZM1277.61 119.727V122.568H1266.3V119.727H1277.61ZM1269.6 114.5H1272.95V135.295C1272.95 136.242 1273.09 136.953 1273.36 137.426C1273.65 137.89 1274.01 138.203 1274.44 138.364C1274.89 138.515 1275.36 138.591 1275.85 138.591C1276.22 138.591 1276.52 138.572 1276.76 138.534C1276.99 138.487 1277.18 138.449 1277.33 138.42L1278.01 141.432C1277.78 141.517 1277.46 141.602 1277.06 141.688C1276.65 141.782 1276.13 141.83 1275.51 141.83C1274.56 141.83 1273.63 141.626 1272.72 141.219C1271.82 140.812 1271.08 140.191 1270.48 139.358C1269.89 138.525 1269.6 137.473 1269.6 136.205V114.5ZM1286.47 128.42V141.545H1283.12V112.455H1286.47V123.136H1286.76C1287.27 122.009 1288.04 121.115 1289.06 120.452C1290.09 119.779 1291.46 119.443 1293.18 119.443C1294.66 119.443 1295.97 119.741 1297.08 120.338C1298.2 120.925 1299.07 121.83 1299.68 123.051C1300.31 124.263 1300.62 125.807 1300.62 127.682V141.545H1297.27V127.909C1297.27 126.176 1296.82 124.836 1295.92 123.889C1295.03 122.933 1293.79 122.455 1292.21 122.455C1291.11 122.455 1290.13 122.687 1289.26 123.151C1288.4 123.615 1287.71 124.292 1287.21 125.182C1286.72 126.072 1286.47 127.152 1286.47 128.42ZM1315.62 142C1313.65 142 1311.92 141.531 1310.43 140.594C1308.96 139.656 1307.8 138.345 1306.97 136.659C1306.14 134.973 1305.73 133.004 1305.73 130.75C1305.73 128.477 1306.14 126.493 1306.97 124.798C1307.8 123.103 1308.96 121.787 1310.43 120.849C1311.92 119.912 1313.65 119.443 1315.62 119.443C1317.59 119.443 1319.31 119.912 1320.79 120.849C1322.27 121.787 1323.43 123.103 1324.25 124.798C1325.09 126.493 1325.5 128.477 1325.5 130.75C1325.5 133.004 1325.09 134.973 1324.25 136.659C1323.43 138.345 1322.27 139.656 1320.79 140.594C1319.31 141.531 1317.59 142 1315.62 142ZM1315.62 138.989C1317.11 138.989 1318.34 138.605 1319.31 137.838C1320.28 137.071 1320.99 136.063 1321.46 134.813C1321.92 133.563 1322.15 132.208 1322.15 130.75C1322.15 129.292 1321.92 127.933 1321.46 126.673C1320.99 125.414 1320.28 124.396 1319.31 123.619C1318.34 122.843 1317.11 122.455 1315.62 122.455C1314.12 122.455 1312.89 122.843 1311.92 123.619C1310.96 124.396 1310.24 125.414 1309.78 126.673C1309.32 127.933 1309.08 129.292 1309.08 130.75C1309.08 132.208 1309.32 133.563 1309.78 134.813C1310.24 136.063 1310.96 137.071 1311.92 137.838C1312.89 138.605 1314.12 138.989 1315.62 138.989ZM1338.86 142C1337.04 142 1335.44 141.541 1334.04 140.622C1332.65 139.694 1331.56 138.387 1330.78 136.702C1329.99 135.007 1329.6 133.004 1329.6 130.693C1329.6 128.402 1329.99 126.413 1330.78 124.727C1331.56 123.042 1332.66 121.74 1334.06 120.821C1335.46 119.902 1337.08 119.443 1338.92 119.443C1340.34 119.443 1341.46 119.68 1342.28 120.153C1343.12 120.617 1343.75 121.148 1344.19 121.744C1344.63 122.331 1344.98 122.814 1345.22 123.193H1345.51V112.455H1348.86V141.545H1345.62V138.193H1345.22C1344.98 138.591 1344.63 139.093 1344.17 139.699C1343.72 140.295 1343.07 140.83 1342.23 141.304C1341.38 141.768 1340.26 142 1338.86 142ZM1339.31 138.989C1340.66 138.989 1341.79 138.638 1342.72 137.938C1343.65 137.227 1344.36 136.247 1344.84 134.997C1345.32 133.738 1345.56 132.284 1345.56 130.636C1345.56 129.008 1345.33 127.582 1344.85 126.361C1344.38 125.13 1343.68 124.173 1342.75 123.491C1341.82 122.8 1340.68 122.455 1339.31 122.455C1337.89 122.455 1336.71 122.819 1335.76 123.548C1334.83 124.268 1334.12 125.248 1333.65 126.489C1333.18 127.72 1332.95 129.102 1332.95 130.636C1332.95 132.189 1333.19 133.6 1333.66 134.869C1334.14 136.129 1334.85 137.133 1335.79 137.881C1336.74 138.619 1337.91 138.989 1339.31 138.989ZM1364.61 142C1362.51 142 1360.7 141.536 1359.17 140.608C1357.66 139.67 1356.49 138.364 1355.66 136.688C1354.85 135.002 1354.44 133.042 1354.44 130.807C1354.44 128.572 1354.85 126.602 1355.66 124.898C1356.49 123.184 1357.63 121.848 1359.1 120.892C1360.58 119.926 1362.3 119.443 1364.27 119.443C1365.41 119.443 1366.53 119.633 1367.64 120.011C1368.75 120.39 1369.75 121.006 1370.66 121.858C1371.57 122.701 1372.3 123.818 1372.84 125.21C1373.38 126.602 1373.65 128.316 1373.65 130.352V131.773H1356.83V128.875H1370.24C1370.24 127.644 1369.99 126.545 1369.5 125.58C1369.02 124.614 1368.32 123.851 1367.42 123.293C1366.53 122.734 1365.48 122.455 1364.27 122.455C1362.94 122.455 1361.78 122.786 1360.81 123.449C1359.84 124.102 1359.1 124.955 1358.58 126.006C1358.05 127.057 1357.79 128.184 1357.79 129.386V131.318C1357.79 132.966 1358.08 134.363 1358.65 135.509C1359.22 136.645 1360.02 137.511 1361.05 138.108C1362.07 138.695 1363.26 138.989 1364.61 138.989C1365.49 138.989 1366.29 138.866 1367 138.619C1367.72 138.364 1368.34 137.985 1368.86 137.483C1369.38 136.972 1369.78 136.337 1370.07 135.58L1373.31 136.489C1372.96 137.587 1372.39 138.553 1371.59 139.386C1370.78 140.21 1369.79 140.854 1368.6 141.318C1367.42 141.773 1366.09 142 1364.61 142Z" fill="black"/>
<path d="M977.296 227.97C977.882 227.384 977.882 226.434 977.296 225.848L967.75 216.302C967.164 215.717 966.215 215.717 965.629 216.302C965.043 216.888 965.043 217.838 965.629 218.424L974.114 226.909L965.629 235.394C965.043 235.98 965.043 236.93 965.629 237.516C966.215 238.101 967.164 238.101 967.75 237.516L977.296 227.97ZM764.471 228.409L976.235 228.409L976.235 225.409L764.471 225.409L764.471 228.409Z" fill="#468ED0"/>
<path d="M979.414 309.788C980 309.202 980 308.252 979.414 307.667L969.868 298.121C969.282 297.535 968.332 297.535 967.746 298.121C967.161 298.706 967.161 299.656 967.746 300.242L976.232 308.727L967.746 317.213C967.161 317.798 967.161 318.748 967.746 319.334C968.332 319.92 969.282 319.92 969.868 319.334L979.414 309.788ZM766.588 310.227L978.353 310.227L978.353 307.227L766.588 307.227L766.588 310.227Z" fill="#468ED0"/>
<path d="M977.296 268.333C977.882 267.748 977.882 266.798 977.296 266.212L967.75 256.666C967.164 256.08 966.215 256.08 965.629 256.666C965.043 257.252 965.043 258.202 965.629 258.787L974.114 267.273L965.629 275.758C965.043 276.344 965.043 277.294 965.629 277.879C966.215 278.465 967.164 278.465 967.75 277.879L977.296 268.333ZM764.471 268.773L976.235 268.773L976.235 265.773L764.471 265.773L764.471 268.773Z" fill="#468ED0"/>
<path d="M671.995 433.545V410.273H685.949V412.773H674.813V420.636H684.904V423.136H674.813V433.545H671.995ZM693.094 410.273V433.545H690.412V410.273H693.094ZM705.097 433.909C703.521 433.909 702.139 433.534 700.949 432.784C699.767 432.034 698.843 430.985 698.177 429.636C697.517 428.288 697.188 426.712 697.188 424.909C697.188 423.091 697.517 421.504 698.177 420.148C698.843 418.792 699.767 417.739 700.949 416.989C702.139 416.239 703.521 415.864 705.097 415.864C706.673 415.864 708.052 416.239 709.233 416.989C710.423 417.739 711.347 418.792 712.006 420.148C712.673 421.504 713.006 423.091 713.006 424.909C713.006 426.712 712.673 428.288 712.006 429.636C711.347 430.985 710.423 432.034 709.233 432.784C708.052 433.534 706.673 433.909 705.097 433.909ZM705.097 431.5C706.294 431.5 707.279 431.193 708.052 430.58C708.824 429.966 709.396 429.159 709.767 428.159C710.139 427.159 710.324 426.076 710.324 424.909C710.324 423.742 710.139 422.655 709.767 421.648C709.396 420.64 708.824 419.826 708.052 419.205C707.279 418.583 706.294 418.273 705.097 418.273C703.9 418.273 702.915 418.583 702.142 419.205C701.37 419.826 700.798 420.64 700.427 421.648C700.055 422.655 699.87 423.742 699.87 424.909C699.87 426.076 700.055 427.159 700.427 428.159C700.798 429.159 701.37 429.966 702.142 430.58C702.915 431.193 703.9 431.5 705.097 431.5ZM720.461 433.545L715.142 416.091H717.961L721.733 429.455H721.915L725.642 416.091H728.506L732.188 429.409H732.37L736.142 416.091H738.961L733.642 433.545H731.006L727.188 420.136H726.915L723.097 433.545H720.461ZM758.597 433.909C757.021 433.909 755.639 433.534 754.449 432.784C753.267 432.034 752.343 430.985 751.677 429.636C751.017 428.288 750.688 426.712 750.688 424.909C750.688 423.091 751.017 421.504 751.677 420.148C752.343 418.792 753.267 417.739 754.449 416.989C755.639 416.239 757.021 415.864 758.597 415.864C760.173 415.864 761.552 416.239 762.733 416.989C763.923 417.739 764.847 418.792 765.506 420.148C766.173 421.504 766.506 423.091 766.506 424.909C766.506 426.712 766.173 428.288 765.506 429.636C764.847 430.985 763.923 432.034 762.733 432.784C761.552 433.534 760.173 433.909 758.597 433.909ZM758.597 431.5C759.794 431.5 760.779 431.193 761.552 430.58C762.324 429.966 762.896 429.159 763.267 428.159C763.639 427.159 763.824 426.076 763.824 424.909C763.824 423.742 763.639 422.655 763.267 421.648C762.896 420.64 762.324 419.826 761.552 419.205C760.779 418.583 759.794 418.273 758.597 418.273C757.4 418.273 756.415 418.583 755.642 419.205C754.87 419.826 754.298 420.64 753.927 421.648C753.555 422.655 753.37 423.742 753.37 424.909C753.37 426.076 753.555 427.159 753.927 428.159C754.298 429.159 754.87 429.966 755.642 430.58C756.415 431.193 757.4 431.5 758.597 431.5ZM778.373 416.091V418.364H768.963V416.091H778.373ZM771.782 433.545V413.682C771.782 412.682 772.016 411.848 772.486 411.182C772.956 410.515 773.566 410.015 774.316 409.682C775.066 409.348 775.857 409.182 776.691 409.182C777.35 409.182 777.888 409.235 778.304 409.341C778.721 409.447 779.032 409.545 779.236 409.636L778.463 411.955C778.327 411.909 778.138 411.852 777.895 411.784C777.66 411.716 777.35 411.682 776.963 411.682C776.077 411.682 775.437 411.905 775.043 412.352C774.657 412.799 774.463 413.455 774.463 414.318V433.545H771.782ZM791.495 433.545V410.273H799.358C801.184 410.273 802.677 410.602 803.836 411.261C805.002 411.913 805.866 412.795 806.427 413.909C806.987 415.023 807.267 416.265 807.267 417.636C807.267 419.008 806.987 420.254 806.427 421.375C805.873 422.496 805.017 423.39 803.858 424.057C802.699 424.716 801.214 425.045 799.404 425.045H793.767V422.545H799.313C800.563 422.545 801.567 422.33 802.324 421.898C803.082 421.466 803.631 420.883 803.972 420.148C804.32 419.405 804.495 418.568 804.495 417.636C804.495 416.705 804.32 415.871 803.972 415.136C803.631 414.402 803.078 413.826 802.313 413.409C801.548 412.985 800.533 412.773 799.267 412.773H794.313V433.545H791.495ZM814.125 423.045V433.545H811.444V410.273H814.125V418.818H814.353C814.762 417.917 815.375 417.201 816.194 416.67C817.019 416.133 818.118 415.864 819.489 415.864C820.678 415.864 821.72 416.102 822.614 416.58C823.508 417.049 824.201 417.773 824.694 418.75C825.194 419.72 825.444 420.955 825.444 422.455V433.545H822.762V422.636C822.762 421.25 822.402 420.178 821.682 419.42C820.97 418.655 819.981 418.273 818.716 418.273C817.837 418.273 817.05 418.458 816.353 418.83C815.663 419.201 815.118 419.742 814.716 420.455C814.322 421.167 814.125 422.03 814.125 423.045ZM837.441 433.909C835.865 433.909 834.482 433.534 833.293 432.784C832.111 432.034 831.187 430.985 830.52 429.636C829.861 428.288 829.532 426.712 829.532 424.909C829.532 423.091 829.861 421.504 830.52 420.148C831.187 418.792 832.111 417.739 833.293 416.989C834.482 416.239 835.865 415.864 837.441 415.864C839.016 415.864 840.395 416.239 841.577 416.989C842.766 417.739 843.691 418.792 844.35 420.148C845.016 421.504 845.35 423.091 845.35 424.909C845.35 426.712 845.016 428.288 844.35 429.636C843.691 430.985 842.766 432.034 841.577 432.784C840.395 433.534 839.016 433.909 837.441 433.909ZM837.441 431.5C838.638 431.5 839.623 431.193 840.395 430.58C841.168 429.966 841.74 429.159 842.111 428.159C842.482 427.159 842.668 426.076 842.668 424.909C842.668 423.742 842.482 422.655 842.111 421.648C841.74 420.64 841.168 419.826 840.395 419.205C839.623 418.583 838.638 418.273 837.441 418.273C836.244 418.273 835.259 418.583 834.486 419.205C833.713 419.826 833.141 420.64 832.77 421.648C832.399 422.655 832.213 423.742 832.213 424.909C832.213 426.076 832.399 427.159 832.77 428.159C833.141 429.159 833.713 429.966 834.486 430.58C835.259 431.193 836.244 431.5 837.441 431.5ZM857.034 416.091V418.364H847.989V416.091H857.034ZM850.625 411.909H853.307V428.545C853.307 429.303 853.417 429.871 853.637 430.25C853.864 430.621 854.152 430.871 854.5 431C854.856 431.121 855.231 431.182 855.625 431.182C855.921 431.182 856.163 431.167 856.353 431.136C856.542 431.098 856.694 431.068 856.807 431.045L857.353 433.455C857.171 433.523 856.917 433.591 856.591 433.659C856.266 433.735 855.853 433.773 855.353 433.773C854.595 433.773 853.853 433.61 853.125 433.284C852.406 432.958 851.807 432.462 851.33 431.795C850.86 431.129 850.625 430.288 850.625 429.273V411.909ZM867.972 433.909C866.396 433.909 865.014 433.534 863.824 432.784C862.642 432.034 861.718 430.985 861.052 429.636C860.392 428.288 860.063 426.712 860.063 424.909C860.063 423.091 860.392 421.504 861.052 420.148C861.718 418.792 862.642 417.739 863.824 416.989C865.014 416.239 866.396 415.864 867.972 415.864C869.548 415.864 870.927 416.239 872.108 416.989C873.298 417.739 874.222 418.792 874.881 420.148C875.548 421.504 875.881 423.091 875.881 424.909C875.881 426.712 875.548 428.288 874.881 429.636C874.222 430.985 873.298 432.034 872.108 432.784C870.927 433.534 869.548 433.909 867.972 433.909ZM867.972 431.5C869.169 431.5 870.154 431.193 870.927 430.58C871.699 429.966 872.271 429.159 872.642 428.159C873.014 427.159 873.199 426.076 873.199 424.909C873.199 423.742 873.014 422.655 872.642 421.648C872.271 420.64 871.699 419.826 870.927 419.205C870.154 418.583 869.169 418.273 867.972 418.273C866.775 418.273 865.79 418.583 865.017 419.205C864.245 419.826 863.673 420.64 863.302 421.648C862.93 422.655 862.745 423.742 862.745 424.909C862.745 426.076 862.93 427.159 863.302 428.159C863.673 429.159 864.245 429.966 865.017 430.58C865.79 431.193 866.775 431.5 867.972 431.5ZM887.293 433.909C885.611 433.909 884.16 433.538 882.941 432.795C881.729 432.045 880.793 431 880.134 429.659C879.482 428.311 879.157 426.742 879.157 424.955C879.157 423.167 879.482 421.591 880.134 420.227C880.793 418.856 881.71 417.788 882.884 417.023C884.066 416.25 885.445 415.864 887.02 415.864C887.929 415.864 888.827 416.015 889.713 416.318C890.6 416.621 891.407 417.114 892.134 417.795C892.861 418.47 893.441 419.364 893.873 420.477C894.304 421.591 894.52 422.962 894.52 424.591V425.727H881.066V423.409H891.793C891.793 422.424 891.596 421.545 891.202 420.773C890.816 420 890.263 419.39 889.543 418.943C888.831 418.496 887.99 418.273 887.02 418.273C885.952 418.273 885.028 418.538 884.248 419.068C883.475 419.591 882.88 420.273 882.463 421.114C882.047 421.955 881.838 422.856 881.838 423.818V425.364C881.838 426.682 882.066 427.799 882.52 428.716C882.982 429.625 883.623 430.318 884.441 430.795C885.259 431.265 886.21 431.5 887.293 431.5C887.998 431.5 888.634 431.402 889.202 431.205C889.778 431 890.274 430.697 890.691 430.295C891.107 429.886 891.429 429.379 891.657 428.773L894.248 429.5C893.975 430.379 893.516 431.152 892.873 431.818C892.229 432.477 891.433 432.992 890.486 433.364C889.539 433.727 888.475 433.909 887.293 433.909ZM901.282 410.273V433.545H898.6V410.273H901.282ZM913.512 433.909C911.83 433.909 910.379 433.538 909.159 432.795C907.947 432.045 907.012 431 906.353 429.659C905.701 428.311 905.375 426.742 905.375 424.955C905.375 423.167 905.701 421.591 906.353 420.227C907.012 418.856 907.928 417.788 909.103 417.023C910.284 416.25 911.663 415.864 913.239 415.864C914.148 415.864 915.046 416.015 915.932 416.318C916.819 416.621 917.625 417.114 918.353 417.795C919.08 418.47 919.659 419.364 920.091 420.477C920.523 421.591 920.739 422.962 920.739 424.591V425.727H907.284V423.409H918.012C918.012 422.424 917.815 421.545 917.421 420.773C917.034 420 916.481 419.39 915.762 418.943C915.05 418.496 914.209 418.273 913.239 418.273C912.171 418.273 911.247 418.538 910.466 419.068C909.694 419.591 909.099 420.273 908.682 421.114C908.266 421.955 908.057 422.856 908.057 423.818V425.364C908.057 426.682 908.284 427.799 908.739 428.716C909.201 429.625 909.841 430.318 910.659 430.795C911.478 431.265 912.428 431.5 913.512 431.5C914.216 431.5 914.853 431.402 915.421 431.205C915.997 431 916.493 430.697 916.909 430.295C917.326 429.886 917.648 429.379 917.875 428.773L920.466 429.5C920.194 430.379 919.735 431.152 919.091 431.818C918.447 432.477 917.652 432.992 916.705 433.364C915.758 433.727 914.694 433.909 913.512 433.909ZM931.909 433.909C930.273 433.909 928.864 433.523 927.682 432.75C926.5 431.977 925.591 430.913 924.955 429.557C924.319 428.201 924 426.652 924 424.909C924 423.136 924.326 421.572 924.978 420.216C925.637 418.852 926.553 417.788 927.728 417.023C928.909 416.25 930.288 415.864 931.864 415.864C933.091 415.864 934.197 416.091 935.182 416.545C936.167 417 936.974 417.636 937.603 418.455C938.231 419.273 938.622 420.227 938.773 421.318H936.091C935.887 420.523 935.432 419.818 934.728 419.205C934.031 418.583 933.091 418.273 931.909 418.273C930.864 418.273 929.947 418.545 929.159 419.091C928.379 419.629 927.769 420.39 927.33 421.375C926.898 422.352 926.682 423.5 926.682 424.818C926.682 426.167 926.894 427.341 927.319 428.341C927.75 429.341 928.356 430.117 929.137 430.67C929.925 431.223 930.849 431.5 931.909 431.5C932.606 431.5 933.239 431.379 933.807 431.136C934.375 430.894 934.856 430.545 935.25 430.091C935.644 429.636 935.925 429.091 936.091 428.455H938.773C938.622 429.485 938.247 430.413 937.648 431.239C937.057 432.057 936.273 432.708 935.296 433.193C934.326 433.67 933.197 433.909 931.909 433.909ZM950.284 416.091V418.364H941.239V416.091H950.284ZM943.875 411.909H946.557V428.545C946.557 429.303 946.667 429.871 946.887 430.25C947.114 430.621 947.402 430.871 947.75 431C948.106 431.121 948.481 431.182 948.875 431.182C949.171 431.182 949.413 431.167 949.603 431.136C949.792 431.098 949.944 431.068 950.057 431.045L950.603 433.455C950.421 433.523 950.167 433.591 949.841 433.659C949.516 433.735 949.103 433.773 948.603 433.773C947.845 433.773 947.103 433.61 946.375 433.284C945.656 432.958 945.057 432.462 944.58 431.795C944.11 431.129 943.875 430.288 943.875 429.273V411.909ZM954.319 433.545V416.091H956.909V418.727H957.091C957.409 417.864 957.985 417.163 958.819 416.625C959.652 416.087 960.591 415.818 961.637 415.818C961.834 415.818 962.08 415.822 962.375 415.83C962.671 415.837 962.894 415.848 963.046 415.864V418.591C962.955 418.568 962.747 418.534 962.421 418.489C962.103 418.436 961.766 418.409 961.409 418.409C960.561 418.409 959.803 418.587 959.137 418.943C958.478 419.292 957.955 419.777 957.569 420.398C957.19 421.011 957 421.712 957 422.5V433.545H954.319ZM972.784 433.909C971.209 433.909 969.826 433.534 968.637 432.784C967.455 432.034 966.531 430.985 965.864 429.636C965.205 428.288 964.875 426.712 964.875 424.909C964.875 423.091 965.205 421.504 965.864 420.148C966.531 418.792 967.455 417.739 968.637 416.989C969.826 416.239 971.209 415.864 972.784 415.864C974.36 415.864 975.739 416.239 976.921 416.989C978.11 417.739 979.034 418.792 979.694 420.148C980.36 421.504 980.694 423.091 980.694 424.909C980.694 426.712 980.36 428.288 979.694 429.636C979.034 430.985 978.11 432.034 976.921 432.784C975.739 433.534 974.36 433.909 972.784 433.909ZM972.784 431.5C973.981 431.5 974.966 431.193 975.739 430.58C976.512 429.966 977.084 429.159 977.455 428.159C977.826 427.159 978.012 426.076 978.012 424.909C978.012 423.742 977.826 422.655 977.455 421.648C977.084 420.64 976.512 419.826 975.739 419.205C974.966 418.583 973.981 418.273 972.784 418.273C971.587 418.273 970.603 418.583 969.83 419.205C969.057 419.826 968.485 420.64 968.114 421.648C967.743 422.655 967.557 423.742 967.557 424.909C967.557 426.076 967.743 427.159 968.114 428.159C968.485 429.159 969.057 429.966 969.83 430.58C970.603 431.193 971.587 431.5 972.784 431.5ZM987.469 423.045V433.545H984.787V416.091H987.378V418.818H987.605C988.015 417.932 988.636 417.22 989.469 416.682C990.302 416.136 991.378 415.864 992.696 415.864C993.878 415.864 994.912 416.106 995.799 416.591C996.685 417.068 997.374 417.795 997.867 418.773C998.359 419.742 998.605 420.97 998.605 422.455V433.545H995.924V422.636C995.924 421.265 995.568 420.197 994.855 419.432C994.143 418.659 993.166 418.273 991.924 418.273C991.068 418.273 990.302 418.458 989.628 418.83C988.962 419.201 988.435 419.742 988.049 420.455C987.662 421.167 987.469 422.03 987.469 423.045ZM1015.87 420L1013.46 420.682C1013.31 420.28 1013.09 419.89 1012.79 419.511C1012.5 419.125 1012.11 418.807 1011.61 418.557C1011.11 418.307 1010.47 418.182 1009.69 418.182C1008.62 418.182 1007.73 418.428 1007.02 418.92C1006.31 419.405 1005.96 420.023 1005.96 420.773C1005.96 421.439 1006.2 421.966 1006.69 422.352C1007.17 422.739 1007.93 423.061 1008.96 423.318L1011.55 423.955C1013.11 424.333 1014.27 424.913 1015.04 425.693C1015.81 426.466 1016.19 427.462 1016.19 428.682C1016.19 429.682 1015.9 430.576 1015.32 431.364C1014.76 432.152 1013.96 432.773 1012.94 433.227C1011.92 433.682 1010.73 433.909 1009.37 433.909C1007.59 433.909 1006.12 433.523 1004.95 432.75C1003.78 431.977 1003.04 430.848 1002.73 429.364L1005.28 428.727C1005.52 429.667 1005.98 430.371 1006.65 430.841C1007.34 431.311 1008.23 431.545 1009.32 431.545C1010.57 431.545 1011.57 431.28 1012.3 430.75C1013.04 430.212 1013.42 429.568 1013.42 428.818C1013.42 428.212 1013.2 427.705 1012.78 427.295C1012.35 426.879 1011.7 426.568 1010.82 426.364L1007.92 425.682C1006.32 425.303 1005.14 424.716 1004.39 423.92C1003.65 423.117 1003.28 422.114 1003.28 420.909C1003.28 419.924 1003.56 419.053 1004.11 418.295C1004.67 417.538 1005.43 416.943 1006.39 416.511C1007.36 416.08 1008.46 415.864 1009.69 415.864C1011.42 415.864 1012.77 416.242 1013.76 417C1014.75 417.758 1015.45 418.758 1015.87 420Z" fill="black"/>
<path d="M529.054 982.273V959H536.917C538.735 959 540.228 959.311 541.394 959.932C542.561 960.545 543.425 961.39 543.985 962.466C544.546 963.542 544.826 964.765 544.826 966.136C544.826 967.508 544.546 968.723 543.985 969.784C543.425 970.845 542.565 971.678 541.406 972.284C540.247 972.883 538.766 973.182 536.963 973.182H530.599V970.636H536.872C538.114 970.636 539.114 970.455 539.872 970.091C540.637 969.727 541.19 969.212 541.531 968.545C541.879 967.871 542.054 967.068 542.054 966.136C542.054 965.205 541.879 964.39 541.531 963.693C541.182 962.996 540.626 962.458 539.86 962.08C539.095 961.693 538.084 961.5 536.826 961.5H531.872V982.273H529.054ZM540.008 971.818L545.735 982.273H542.463L536.826 971.818H540.008ZM556.289 982.636C554.608 982.636 553.157 982.265 551.937 981.523C550.725 980.773 549.789 979.727 549.13 978.386C548.479 977.038 548.153 975.47 548.153 973.682C548.153 971.894 548.479 970.318 549.13 968.955C549.789 967.583 550.706 966.515 551.88 965.75C553.062 964.977 554.441 964.591 556.017 964.591C556.926 964.591 557.823 964.742 558.71 965.045C559.596 965.348 560.403 965.841 561.13 966.523C561.858 967.197 562.437 968.091 562.869 969.205C563.301 970.318 563.517 971.689 563.517 973.318V974.455H550.062V972.136H560.789C560.789 971.151 560.592 970.273 560.198 969.5C559.812 968.727 559.259 968.117 558.539 967.67C557.827 967.223 556.986 967 556.017 967C554.948 967 554.024 967.265 553.244 967.795C552.471 968.318 551.876 969 551.46 969.841C551.043 970.682 550.835 971.583 550.835 972.545V974.091C550.835 975.409 551.062 976.526 551.517 977.443C551.979 978.352 552.619 979.045 553.437 979.523C554.255 979.992 555.206 980.227 556.289 980.227C556.994 980.227 557.63 980.129 558.198 979.932C558.774 979.727 559.27 979.424 559.687 979.023C560.104 978.614 560.426 978.106 560.653 977.5L563.244 978.227C562.971 979.106 562.513 979.879 561.869 980.545C561.225 981.205 560.429 981.72 559.483 982.091C558.536 982.455 557.471 982.636 556.289 982.636ZM579.96 968.727L577.551 969.409C577.399 969.008 577.176 968.617 576.88 968.239C576.592 967.852 576.198 967.534 575.698 967.284C575.198 967.034 574.558 966.909 573.778 966.909C572.71 966.909 571.82 967.155 571.108 967.648C570.403 968.133 570.051 968.75 570.051 969.5C570.051 970.167 570.293 970.693 570.778 971.08C571.263 971.466 572.02 971.788 573.051 972.045L575.642 972.682C577.202 973.061 578.365 973.64 579.13 974.42C579.895 975.193 580.278 976.189 580.278 977.409C580.278 978.409 579.99 979.303 579.414 980.091C578.846 980.879 578.051 981.5 577.028 981.955C576.005 982.409 574.816 982.636 573.46 982.636C571.679 982.636 570.206 982.25 569.039 981.477C567.873 980.705 567.134 979.576 566.823 978.091L569.369 977.455C569.611 978.394 570.07 979.098 570.744 979.568C571.426 980.038 572.316 980.273 573.414 980.273C574.664 980.273 575.657 980.008 576.392 979.477C577.134 978.939 577.505 978.295 577.505 977.545C577.505 976.939 577.293 976.432 576.869 976.023C576.445 975.606 575.793 975.295 574.914 975.091L572.005 974.409C570.407 974.03 569.233 973.443 568.483 972.648C567.74 971.845 567.369 970.841 567.369 969.636C567.369 968.651 567.645 967.78 568.198 967.023C568.759 966.265 569.52 965.67 570.483 965.239C571.452 964.807 572.551 964.591 573.778 964.591C575.505 964.591 576.861 964.97 577.846 965.727C578.839 966.485 579.543 967.485 579.96 968.727ZM584.315 982.273V964.818H586.997V982.273H584.315ZM585.679 961.909C585.156 961.909 584.705 961.731 584.326 961.375C583.955 961.019 583.769 960.591 583.769 960.091C583.769 959.591 583.955 959.163 584.326 958.807C584.705 958.451 585.156 958.273 585.679 958.273C586.201 958.273 586.648 958.451 587.019 958.807C587.398 959.163 587.588 959.591 587.588 960.091C587.588 960.591 587.398 961.019 587.019 961.375C586.648 961.731 586.201 961.909 585.679 961.909ZM604.272 968.727L601.863 969.409C601.712 969.008 601.488 968.617 601.193 968.239C600.905 967.852 600.511 967.534 600.011 967.284C599.511 967.034 598.871 966.909 598.09 966.909C597.022 966.909 596.132 967.155 595.42 967.648C594.715 968.133 594.363 968.75 594.363 969.5C594.363 970.167 594.606 970.693 595.09 971.08C595.575 971.466 596.333 971.788 597.363 972.045L599.954 972.682C601.515 973.061 602.678 973.64 603.443 974.42C604.208 975.193 604.59 976.189 604.59 977.409C604.59 978.409 604.303 979.303 603.727 980.091C603.159 980.879 602.363 981.5 601.34 981.955C600.318 982.409 599.128 982.636 597.772 982.636C595.992 982.636 594.518 982.25 593.352 981.477C592.185 980.705 591.447 979.576 591.136 978.091L593.681 977.455C593.924 978.394 594.382 979.098 595.056 979.568C595.738 980.038 596.628 980.273 597.727 980.273C598.977 980.273 599.969 980.008 600.704 979.477C601.447 978.939 601.818 978.295 601.818 977.545C601.818 976.939 601.606 976.432 601.181 976.023C600.757 975.606 600.106 975.295 599.227 975.091L596.318 974.409C594.719 974.03 593.545 973.443 592.795 972.648C592.053 971.845 591.681 970.841 591.681 969.636C591.681 968.651 591.958 967.78 592.511 967.023C593.072 966.265 593.833 965.67 594.795 965.239C595.765 964.807 596.863 964.591 598.09 964.591C599.818 964.591 601.174 964.97 602.159 965.727C603.151 966.485 603.856 967.485 604.272 968.727ZM616.218 964.818V967.091H607.173V964.818H616.218ZM609.809 960.636H612.491V977.273C612.491 978.03 612.601 978.598 612.821 978.977C613.048 979.348 613.336 979.598 613.684 979.727C614.04 979.848 614.415 979.909 614.809 979.909C615.105 979.909 615.347 979.894 615.536 979.864C615.726 979.826 615.877 979.795 615.991 979.773L616.536 982.182C616.355 982.25 616.101 982.318 615.775 982.386C615.449 982.462 615.036 982.5 614.536 982.5C613.779 982.5 613.036 982.337 612.309 982.011C611.59 981.686 610.991 981.189 610.514 980.523C610.044 979.856 609.809 979.015 609.809 978V960.636ZM627.156 982.636C625.58 982.636 624.197 982.261 623.008 981.511C621.826 980.761 620.902 979.712 620.235 978.364C619.576 977.015 619.247 975.439 619.247 973.636C619.247 971.818 619.576 970.231 620.235 968.875C620.902 967.519 621.826 966.466 623.008 965.716C624.197 964.966 625.58 964.591 627.156 964.591C628.732 964.591 630.11 964.966 631.292 965.716C632.482 966.466 633.406 967.519 634.065 968.875C634.732 970.231 635.065 971.818 635.065 973.636C635.065 975.439 634.732 977.015 634.065 978.364C633.406 979.712 632.482 980.761 631.292 981.511C630.11 982.261 628.732 982.636 627.156 982.636ZM627.156 980.227C628.353 980.227 629.338 979.92 630.11 979.307C630.883 978.693 631.455 977.886 631.826 976.886C632.197 975.886 632.383 974.803 632.383 973.636C632.383 972.47 632.197 971.383 631.826 970.375C631.455 969.367 630.883 968.553 630.11 967.932C629.338 967.311 628.353 967 627.156 967C625.959 967 624.974 967.311 624.201 967.932C623.429 968.553 622.857 969.367 622.485 970.375C622.114 971.383 621.929 972.47 621.929 973.636C621.929 974.803 622.114 975.886 622.485 976.886C622.857 977.886 623.429 978.693 624.201 979.307C624.974 979.92 625.959 980.227 627.156 980.227ZM639.159 982.273V964.818H641.75V967.455H641.931C642.25 966.591 642.825 965.89 643.659 965.352C644.492 964.814 645.431 964.545 646.477 964.545C646.674 964.545 646.92 964.549 647.215 964.557C647.511 964.564 647.734 964.576 647.886 964.591V967.318C647.795 967.295 647.587 967.261 647.261 967.216C646.943 967.163 646.606 967.136 646.25 967.136C645.401 967.136 644.643 967.314 643.977 967.67C643.318 968.019 642.795 968.504 642.409 969.125C642.03 969.739 641.84 970.439 641.84 971.227V982.273H639.159Z" fill="black"/>
<path d="M504.647 235.494C504.566 236.331 505.159 237.073 505.971 237.151L519.21 238.432C520.023 238.51 520.747 237.896 520.828 237.059C520.909 236.223 520.316 235.481 519.503 235.402L507.735 234.264L508.907 222.146C508.988 221.309 508.395 220.568 507.583 220.489C506.77 220.41 506.046 221.025 505.965 221.861L504.647 235.494ZM685.181 81.7374L505.181 234.465L507.054 236.808L687.054 84.0808L685.181 81.7374Z" fill="#EB8A30"/>
<path d="M504.646 327.135C504.568 327.972 505.163 328.712 505.976 328.788L519.219 330.027C520.031 330.103 520.754 329.486 520.832 328.649C520.91 327.812 520.315 327.072 519.502 326.996L507.731 325.895L508.865 313.773C508.943 312.937 508.348 312.197 507.535 312.121C506.723 312.045 506 312.661 505.922 313.498L504.646 327.135ZM740.236 125.377L505.177 326.104L507.058 328.441L742.117 127.714L740.236 125.377Z" fill="#EB8A30"/>
<path d="M505.704 279.148C505.633 279.986 506.235 280.72 507.048 280.789L520.3 281.912C521.114 281.981 521.83 281.358 521.901 280.52C521.972 279.683 521.371 278.948 520.557 278.879L508.777 277.881L509.805 265.749C509.876 264.912 509.274 264.177 508.461 264.108C507.648 264.039 506.931 264.662 506.86 265.5L505.704 279.148ZM709.52 101.385L506.226 278.112L508.127 280.433L711.421 103.706L709.52 101.385Z" fill="#EB8A30"/>
<path d="M737.283 61.1818V84.4545H734.465V61.1818H737.283ZM745.252 73.9545V84.4545H742.57V67H745.161V69.7273H745.388C745.798 68.8409 746.419 68.1288 747.252 67.5909C748.085 67.0454 749.161 66.7727 750.479 66.7727C751.661 66.7727 752.695 67.0151 753.582 67.5C754.468 67.9773 755.157 68.7045 755.65 69.6818C756.142 70.6515 756.388 71.8788 756.388 73.3636V84.4545H753.707V73.5454C753.707 72.1742 753.351 71.106 752.638 70.3409C751.926 69.5682 750.949 69.1818 749.707 69.1818C748.851 69.1818 748.085 69.3674 747.411 69.7386C746.745 70.1098 746.218 70.6515 745.832 71.3636C745.445 72.0757 745.252 72.9394 745.252 73.9545ZM768.38 84.8182C766.744 84.8182 765.334 84.4318 764.153 83.6591C762.971 82.8863 762.062 81.822 761.425 80.4659C760.789 79.1098 760.471 77.5606 760.471 75.8182C760.471 74.0454 760.797 72.481 761.448 71.125C762.107 69.7613 763.024 68.697 764.198 67.9318C765.38 67.1591 766.759 66.7727 768.334 66.7727C769.562 66.7727 770.668 67 771.653 67.4545C772.638 67.9091 773.444 68.5454 774.073 69.3636C774.702 70.1818 775.092 71.1363 775.244 72.2273H772.562C772.357 71.4318 771.903 70.7273 771.198 70.1136C770.501 69.4924 769.562 69.1818 768.38 69.1818C767.334 69.1818 766.418 69.4545 765.63 70C764.85 70.5379 764.24 71.2992 763.8 72.2841C763.369 73.2613 763.153 74.4091 763.153 75.7273C763.153 77.0757 763.365 78.25 763.789 79.25C764.221 80.25 764.827 81.0265 765.607 81.5795C766.395 82.1326 767.319 82.4091 768.38 82.4091C769.077 82.4091 769.709 82.2879 770.278 82.0454C770.846 81.803 771.327 81.4545 771.721 81C772.115 80.5454 772.395 80 772.562 79.3636H775.244C775.092 80.3939 774.717 81.322 774.119 82.1477C773.528 82.9659 772.744 83.6174 771.766 84.1023C770.797 84.5795 769.668 84.8182 768.38 84.8182ZM779.164 84.4545V67H781.846V84.4545H779.164ZM780.528 64.0909C780.005 64.0909 779.554 63.9129 779.175 63.5568C778.804 63.2007 778.619 62.7727 778.619 62.2727C778.619 61.7727 778.804 61.3447 779.175 60.9886C779.554 60.6326 780.005 60.4545 780.528 60.4545C781.05 60.4545 781.497 60.6326 781.869 60.9886C782.247 61.3447 782.437 61.7727 782.437 62.2727C782.437 62.7727 782.247 63.2007 781.869 63.5568C781.497 63.9129 781.05 64.0909 780.528 64.0909ZM793.349 84.8182C791.894 84.8182 790.61 84.4507 789.496 83.7159C788.383 82.9735 787.512 81.928 786.883 80.5795C786.254 79.2235 785.94 77.6212 785.94 75.7727C785.94 73.9394 786.254 72.3485 786.883 71C787.512 69.6515 788.387 68.6098 789.508 67.875C790.629 67.1401 791.924 66.7727 793.394 66.7727C794.53 66.7727 795.428 66.9621 796.087 67.3409C796.754 67.7121 797.262 68.1363 797.61 68.6136C797.966 69.0833 798.243 69.4697 798.44 69.7727H798.667V61.1818H801.349V84.4545H798.758V81.7727H798.44C798.243 82.0909 797.962 82.4924 797.599 82.9773C797.235 83.4545 796.716 83.8826 796.042 84.2613C795.368 84.6326 794.47 84.8182 793.349 84.8182ZM793.712 82.4091C794.788 82.4091 795.697 82.1288 796.44 81.5682C797.182 81 797.746 80.2159 798.133 79.2159C798.519 78.2083 798.712 77.0454 798.712 75.7273C798.712 74.4242 798.523 73.2841 798.144 72.3068C797.765 71.322 797.205 70.5568 796.462 70.0113C795.72 69.4583 794.803 69.1818 793.712 69.1818C792.576 69.1818 791.629 69.4735 790.871 70.0568C790.121 70.6326 789.557 71.4166 789.178 72.4091C788.807 73.3939 788.621 74.5 788.621 75.7273C788.621 76.9697 788.811 78.0985 789.19 79.1136C789.576 80.1212 790.144 80.9242 790.894 81.5227C791.652 82.1136 792.591 82.4091 793.712 82.4091ZM813.951 84.8182C812.269 84.8182 810.818 84.447 809.599 83.7045C808.387 82.9545 807.451 81.9091 806.792 80.5682C806.14 79.2197 805.815 77.6515 805.815 75.8636C805.815 74.0757 806.14 72.5 806.792 71.1363C807.451 69.7651 808.368 68.697 809.542 67.9318C810.724 67.1591 812.102 66.7727 813.678 66.7727C814.587 66.7727 815.485 66.9242 816.371 67.2273C817.258 67.5303 818.065 68.0227 818.792 68.7045C819.519 69.3788 820.099 70.2727 820.53 71.3863C820.962 72.5 821.178 73.8712 821.178 75.5V76.6363H807.724V74.3182H818.451C818.451 73.3333 818.254 72.4545 817.86 71.6818C817.474 70.9091 816.921 70.2992 816.201 69.8523C815.489 69.4053 814.648 69.1818 813.678 69.1818C812.61 69.1818 811.686 69.447 810.905 69.9773C810.133 70.5 809.538 71.1818 809.121 72.0227C808.705 72.8636 808.496 73.7651 808.496 74.7273V76.2727C808.496 77.5909 808.724 78.7083 809.178 79.625C809.64 80.5341 810.28 81.2273 811.099 81.7045C811.917 82.1742 812.868 82.4091 813.951 82.4091C814.655 82.4091 815.292 82.3106 815.86 82.1136C816.436 81.9091 816.932 81.606 817.349 81.2045C817.765 80.7954 818.087 80.2879 818.315 79.6818L820.905 80.4091C820.633 81.2879 820.174 82.0606 819.53 82.7273C818.887 83.3863 818.091 83.9015 817.144 84.2727C816.197 84.6363 815.133 84.8182 813.951 84.8182ZM827.94 73.9545V84.4545H825.258V67H827.849V69.7273H828.076C828.485 68.8409 829.106 68.1288 829.94 67.5909C830.773 67.0454 831.849 66.7727 833.167 66.7727C834.349 66.7727 835.383 67.0151 836.269 67.5C837.155 67.9773 837.845 68.7045 838.337 69.6818C838.83 70.6515 839.076 71.8788 839.076 73.3636V84.4545H836.394V73.5454C836.394 72.1742 836.038 71.106 835.326 70.3409C834.614 69.5682 833.637 69.1818 832.394 69.1818C831.538 69.1818 830.773 69.3674 830.099 69.7386C829.432 70.1098 828.905 70.6515 828.519 71.3636C828.133 72.0757 827.94 72.9394 827.94 73.9545ZM851.567 67V69.2727H842.522V67H851.567ZM845.158 62.8182H847.84V79.4545C847.84 80.2121 847.95 80.7803 848.17 81.1591C848.397 81.5303 848.685 81.7803 849.033 81.9091C849.389 82.0303 849.764 82.0909 850.158 82.0909C850.454 82.0909 850.696 82.0757 850.886 82.0454C851.075 82.0076 851.227 81.9773 851.34 81.9545L851.886 84.3636C851.704 84.4318 851.45 84.5 851.124 84.5682C850.798 84.6439 850.386 84.6818 849.886 84.6818C849.128 84.6818 848.386 84.5189 847.658 84.1932C846.939 83.8674 846.34 83.3712 845.863 82.7045C845.393 82.0379 845.158 81.197 845.158 80.1818V62.8182ZM864.965 84.4545V61.1818H872.829C874.655 61.1818 876.147 61.5113 877.306 62.1704C878.473 62.822 879.336 63.7045 879.897 64.8182C880.458 65.9318 880.738 67.1742 880.738 68.5454C880.738 69.9166 880.458 71.1629 879.897 72.2841C879.344 73.4053 878.488 74.2992 877.329 74.9659C876.17 75.625 874.685 75.9545 872.874 75.9545H867.238V73.4545H872.783C874.033 73.4545 875.037 73.2386 875.795 72.8068C876.552 72.375 877.102 71.7916 877.442 71.0568C877.791 70.3144 877.965 69.4773 877.965 68.5454C877.965 67.6136 877.791 66.7803 877.442 66.0454C877.102 65.3106 876.548 64.7348 875.783 64.3182C875.018 63.8939 874.003 63.6818 872.738 63.6818H867.783V84.4545H864.965ZM887.596 73.9545V84.4545H884.914V61.1818H887.596V69.7273H887.823C888.232 68.8257 888.846 68.1098 889.664 67.5795C890.49 67.0417 891.588 66.7727 892.959 66.7727C894.149 66.7727 895.191 67.0113 896.084 67.4886C896.978 67.9583 897.672 68.6818 898.164 69.6591C898.664 70.6288 898.914 71.8636 898.914 73.3636V84.4545H896.232V73.5454C896.232 72.1591 895.872 71.0871 895.153 70.3295C894.441 69.5644 893.452 69.1818 892.187 69.1818C891.308 69.1818 890.52 69.3674 889.823 69.7386C889.134 70.1098 888.588 70.6515 888.187 71.3636C887.793 72.0757 887.596 72.9394 887.596 73.9545ZM910.911 84.8182C909.335 84.8182 907.953 84.4432 906.763 83.6932C905.582 82.9432 904.657 81.8939 903.991 80.5454C903.332 79.197 903.002 77.6212 903.002 75.8182C903.002 74 903.332 72.4129 903.991 71.0568C904.657 69.7007 905.582 68.6477 906.763 67.8977C907.953 67.1477 909.335 66.7727 910.911 66.7727C912.487 66.7727 913.866 67.1477 915.048 67.8977C916.237 68.6477 917.161 69.7007 917.82 71.0568C918.487 72.4129 918.82 74 918.82 75.8182C918.82 77.6212 918.487 79.197 917.82 80.5454C917.161 81.8939 916.237 82.9432 915.048 83.6932C913.866 84.4432 912.487 84.8182 910.911 84.8182ZM910.911 82.4091C912.108 82.4091 913.093 82.1023 913.866 81.4886C914.638 80.875 915.21 80.0682 915.582 79.0682C915.953 78.0682 916.138 76.9848 916.138 75.8182C916.138 74.6515 915.953 73.5644 915.582 72.5568C915.21 71.5492 914.638 70.7348 913.866 70.1136C913.093 69.4924 912.108 69.1818 910.911 69.1818C909.714 69.1818 908.729 69.4924 907.957 70.1136C907.184 70.7348 906.612 71.5492 906.241 72.5568C905.87 73.5644 905.684 74.6515 905.684 75.8182C905.684 76.9848 905.87 78.0682 906.241 79.0682C906.612 80.0682 907.184 80.875 907.957 81.4886C908.729 82.1023 909.714 82.4091 910.911 82.4091ZM930.505 67V69.2727H921.459V67H930.505ZM924.096 62.8182H926.778V79.4545C926.778 80.2121 926.888 80.7803 927.107 81.1591C927.334 81.5303 927.622 81.7803 927.971 81.9091C928.327 82.0303 928.702 82.0909 929.096 82.0909C929.391 82.0909 929.634 82.0757 929.823 82.0454C930.013 82.0076 930.164 81.9773 930.278 81.9545L930.823 84.3636C930.641 84.4318 930.388 84.5 930.062 84.5682C929.736 84.6439 929.323 84.6818 928.823 84.6818C928.066 84.6818 927.323 84.5189 926.596 84.1932C925.876 83.8674 925.278 83.3712 924.8 82.7045C924.331 82.0379 924.096 81.197 924.096 80.1818V62.8182ZM941.442 84.8182C939.867 84.8182 938.484 84.4432 937.295 83.6932C936.113 82.9432 935.189 81.8939 934.522 80.5454C933.863 79.197 933.533 77.6212 933.533 75.8182C933.533 74 933.863 72.4129 934.522 71.0568C935.189 69.7007 936.113 68.6477 937.295 67.8977C938.484 67.1477 939.867 66.7727 941.442 66.7727C943.018 66.7727 944.397 67.1477 945.579 67.8977C946.768 68.6477 947.692 69.7007 948.352 71.0568C949.018 72.4129 949.352 74 949.352 75.8182C949.352 77.6212 949.018 79.197 948.352 80.5454C947.692 81.8939 946.768 82.9432 945.579 83.6932C944.397 84.4432 943.018 84.8182 941.442 84.8182ZM941.442 82.4091C942.639 82.4091 943.624 82.1023 944.397 81.4886C945.17 80.875 945.742 80.0682 946.113 79.0682C946.484 78.0682 946.67 76.9848 946.67 75.8182C946.67 74.6515 946.484 73.5644 946.113 72.5568C945.742 71.5492 945.17 70.7348 944.397 70.1136C943.624 69.4924 942.639 69.1818 941.442 69.1818C940.245 69.1818 939.261 69.4924 938.488 70.1136C937.715 70.7348 937.143 71.5492 936.772 72.5568C936.401 73.5644 936.215 74.6515 936.215 75.8182C936.215 76.9848 936.401 78.0682 936.772 79.0682C937.143 80.0682 937.715 80.875 938.488 81.4886C939.261 82.1023 940.245 82.4091 941.442 82.4091ZM956.127 73.9545V84.4545H953.445V67H956.036V69.7273H956.263C956.673 68.8409 957.294 68.1288 958.127 67.5909C958.96 67.0454 960.036 66.7727 961.354 66.7727C962.536 66.7727 963.57 67.0151 964.457 67.5C965.343 67.9773 966.032 68.7045 966.525 69.6818C967.017 70.6515 967.263 71.8788 967.263 73.3636V84.4545H964.582V73.5454C964.582 72.1742 964.226 71.106 963.513 70.3409C962.801 69.5682 961.824 69.1818 960.582 69.1818C959.726 69.1818 958.96 69.3674 958.286 69.7386C957.62 70.1098 957.093 70.6515 956.707 71.3636C956.32 72.0757 956.127 72.9394 956.127 73.9545ZM984.528 70.9091L982.119 71.5909C981.967 71.1894 981.744 70.7992 981.448 70.4204C981.16 70.0341 980.766 69.7159 980.266 69.4659C979.766 69.2159 979.126 69.0909 978.346 69.0909C977.278 69.0909 976.388 69.3371 975.675 69.8295C974.971 70.3144 974.619 70.9318 974.619 71.6818C974.619 72.3485 974.861 72.875 975.346 73.2613C975.831 73.6477 976.588 73.9697 977.619 74.2273L980.209 74.8636C981.77 75.2424 982.933 75.822 983.698 76.6023C984.463 77.375 984.846 78.3712 984.846 79.5909C984.846 80.5909 984.558 81.4848 983.982 82.2727C983.414 83.0606 982.619 83.6818 981.596 84.1363C980.573 84.5909 979.384 84.8182 978.028 84.8182C976.247 84.8182 974.774 84.4318 973.607 83.6591C972.441 82.8863 971.702 81.7576 971.391 80.2727L973.937 79.6363C974.179 80.5757 974.638 81.2803 975.312 81.75C975.994 82.2197 976.884 82.4545 977.982 82.4545C979.232 82.4545 980.225 82.1894 980.959 81.6591C981.702 81.1212 982.073 80.4773 982.073 79.7273C982.073 79.1212 981.861 78.6136 981.437 78.2045C981.013 77.7879 980.361 77.4773 979.482 77.2727L976.573 76.5909C974.975 76.2121 973.8 75.625 973.05 74.8295C972.308 74.0265 971.937 73.0227 971.937 71.8182C971.937 70.8333 972.213 69.9621 972.766 69.2045C973.327 68.447 974.088 67.8523 975.05 67.4204C976.02 66.9886 977.119 66.7727 978.346 66.7727C980.073 66.7727 981.429 67.1515 982.414 67.9091C983.406 68.6666 984.111 69.6666 984.528 70.9091Z" fill="black"/>
</svg>
