<svg width="1200" height="800" viewBox="0 0 1200 800" fill="none" xmlns="http://www.w3.org/2000/svg">
<rect width="1200" height="800" fill="#5AA6DE" fill-opacity="0.6"/>
<rect x="113.08" y="474.168" width="1020.92" height="141.376" fill="#D9D9D9"/>
<ellipse cx="174.135" cy="525.94" rx="35.0316" ry="34.8463" fill="#468ED0"/>
<line x1="156.119" y1="525.44" x2="191.151" y2="525.44" stroke="black"/>
<ellipse cx="1074.95" cy="566.76" rx="35.0316" ry="34.8463" fill="#468ED0"/>
<line x1="1056.93" y1="566.26" x2="1091.96" y2="566.26" stroke="black"/>
<ellipse cx="974.857" cy="525.94" rx="35.0316" ry="34.8463" fill="#468ED0"/>
<line x1="956.84" y1="525.44" x2="991.872" y2="525.44" stroke="black"/>
<ellipse cx="1021.9" cy="385.559" rx="35.0316" ry="34.8463" fill="#468ED0"/>
<line x1="1003.88" y1="385.059" x2="1038.91" y2="385.059" stroke="black"/>
<ellipse cx="856.75" cy="420.406" rx="35.0316" ry="34.8463" fill="#468ED0"/>
<line x1="838.734" y1="419.906" x2="873.766" y2="419.906" stroke="black"/>
<path d="M955.262 229.773C955.001 228.987 954.153 228.56 953.366 228.82L940.55 233.062C939.764 233.323 939.337 234.171 939.597 234.958C939.858 235.744 940.706 236.171 941.493 235.91L952.885 232.14L956.656 243.532C956.916 244.319 957.764 244.745 958.551 244.485C959.337 244.225 959.764 243.376 959.504 242.589L955.262 229.773ZM875.106 390.215L955.178 230.918L952.497 229.571L872.425 388.868L875.106 390.215Z" fill="#468ED0"/>
<path d="M1116.41 194.927C1116.15 194.14 1115.3 193.714 1114.51 193.974L1101.7 198.216C1100.91 198.476 1100.48 199.325 1100.74 200.111C1101 200.898 1101.85 201.324 1102.64 201.064L1114.03 197.294L1117.8 208.686C1118.06 209.472 1118.91 209.899 1119.7 209.639C1120.48 209.378 1120.91 208.53 1120.65 207.743L1116.41 194.927ZM1036.25 355.369L1116.32 196.072L1113.64 194.725L1033.57 354.022L1036.25 355.369Z" fill="#468ED0"/>
<ellipse cx="874.766" cy="566.76" rx="35.0316" ry="34.8463" fill="#468ED0"/>
<line x1="856.75" y1="566.26" x2="891.782" y2="566.26" stroke="black"/>
<ellipse cx="774.676" cy="525.94" rx="35.0316" ry="34.8463" fill="#468ED0"/>
<line x1="756.66" y1="525.44" x2="791.692" y2="525.44" stroke="black"/>
<ellipse cx="774.676" cy="525.94" rx="35.0316" ry="34.8463" fill="#468ED0"/>
<line x1="756.66" y1="525.44" x2="791.692" y2="525.44" stroke="black"/>
<ellipse cx="674.586" cy="566.76" rx="35.0316" ry="34.8463" fill="#468ED0"/>
<line x1="656.57" y1="566.26" x2="691.601" y2="566.26" stroke="black"/>
<ellipse cx="574.496" cy="525.94" rx="35.0316" ry="34.8463" fill="#468ED0"/>
<line x1="556.48" y1="525.44" x2="591.511" y2="525.44" stroke="black"/>
<ellipse cx="474.406" cy="566.76" rx="35.0316" ry="34.8463" fill="#468ED0"/>
<line x1="456.39" y1="566.26" x2="491.421" y2="566.26" stroke="black"/>
<ellipse cx="374.316" cy="525.94" rx="35.0316" ry="34.8463" fill="#468ED0"/>
<line x1="356.299" y1="525.44" x2="391.331" y2="525.44" stroke="black"/>
<ellipse cx="274.225" cy="566.76" rx="35.0316" ry="34.8463" fill="#468ED0"/>
<line x1="256.209" y1="566.26" x2="291.241" y2="566.26" stroke="black"/>
<ellipse cx="274.225" cy="566.76" rx="35.0316" ry="34.8463" fill="#468ED0"/>
<line x1="256.209" y1="566.26" x2="291.241" y2="566.26" stroke="black"/>
<path d="M43.8182 174V150.727H57.8636V153.227H46.6364V161.091H57.1364V163.591H46.6364V171.5H58.0455V174H43.8182ZM65.2614 150.727V174H62.5795V150.727H65.2614ZM77.4915 174.364C75.8097 174.364 74.3589 173.992 73.1392 173.25C71.9271 172.5 70.9915 171.455 70.3324 170.114C69.6809 168.765 69.3551 167.197 69.3551 165.409C69.3551 163.621 69.6809 162.045 70.3324 160.682C70.9915 159.311 71.9081 158.242 73.0824 157.477C74.2642 156.705 75.643 156.318 77.2188 156.318C78.1278 156.318 79.0256 156.47 79.9119 156.773C80.7983 157.076 81.6051 157.568 82.3324 158.25C83.0597 158.924 83.6392 159.818 84.071 160.932C84.5028 162.045 84.7188 163.417 84.7188 165.045V166.182H71.2642V163.864H81.9915C81.9915 162.879 81.7945 162 81.4006 161.227C81.0142 160.455 80.4612 159.845 79.7415 159.398C79.0294 158.951 78.1884 158.727 77.2188 158.727C76.1506 158.727 75.2263 158.992 74.446 159.523C73.6733 160.045 73.0786 160.727 72.6619 161.568C72.2453 162.409 72.0369 163.311 72.0369 164.273V165.818C72.0369 167.136 72.2642 168.254 72.7188 169.17C73.1809 170.08 73.821 170.773 74.6392 171.25C75.4574 171.72 76.4081 171.955 77.4915 171.955C78.196 171.955 78.8324 171.856 79.4006 171.659C79.9763 171.455 80.4725 171.152 80.8892 170.75C81.3059 170.341 81.6278 169.833 81.8551 169.227L84.446 169.955C84.1733 170.833 83.715 171.606 83.071 172.273C82.4271 172.932 81.6316 173.447 80.6847 173.818C79.7377 174.182 78.6733 174.364 77.4915 174.364ZM95.8892 174.364C94.2528 174.364 92.8438 173.977 91.6619 173.205C90.4801 172.432 89.571 171.367 88.9347 170.011C88.2983 168.655 87.9801 167.106 87.9801 165.364C87.9801 163.591 88.3059 162.027 88.9574 160.67C89.6165 159.307 90.5331 158.242 91.7074 157.477C92.8892 156.705 94.268 156.318 95.8438 156.318C97.071 156.318 98.1771 156.545 99.1619 157C100.147 157.455 100.954 158.091 101.582 158.909C102.211 159.727 102.601 160.682 102.753 161.773H100.071C99.8665 160.977 99.4119 160.273 98.7074 159.659C98.0104 159.038 97.071 158.727 95.8892 158.727C94.8438 158.727 93.9271 159 93.1392 159.545C92.3589 160.083 91.7491 160.845 91.3097 161.83C90.8778 162.807 90.6619 163.955 90.6619 165.273C90.6619 166.621 90.8741 167.795 91.2983 168.795C91.7301 169.795 92.3362 170.572 93.1165 171.125C93.9044 171.678 94.8286 171.955 95.8892 171.955C96.5862 171.955 97.2188 171.833 97.7869 171.591C98.3551 171.348 98.8362 171 99.2301 170.545C99.6241 170.091 99.9044 169.545 100.071 168.909H102.753C102.601 169.939 102.226 170.867 101.628 171.693C101.037 172.511 100.253 173.163 99.2756 173.648C98.3059 174.125 97.1771 174.364 95.8892 174.364ZM114.264 156.545V158.818H105.219V156.545H114.264ZM107.855 152.364H110.537V169C110.537 169.758 110.647 170.326 110.866 170.705C111.094 171.076 111.382 171.326 111.73 171.455C112.086 171.576 112.461 171.636 112.855 171.636C113.151 171.636 113.393 171.621 113.582 171.591C113.772 171.553 113.923 171.523 114.037 171.5L114.582 173.909C114.401 173.977 114.147 174.045 113.821 174.114C113.495 174.189 113.082 174.227 112.582 174.227C111.825 174.227 111.082 174.064 110.355 173.739C109.635 173.413 109.037 172.917 108.56 172.25C108.09 171.583 107.855 170.742 107.855 169.727V152.364ZM118.298 174V156.545H120.889V159.182H121.071C121.389 158.318 121.965 157.617 122.798 157.08C123.632 156.542 124.571 156.273 125.616 156.273C125.813 156.273 126.06 156.277 126.355 156.284C126.651 156.292 126.874 156.303 127.026 156.318V159.045C126.935 159.023 126.726 158.989 126.401 158.943C126.082 158.89 125.745 158.864 125.389 158.864C124.541 158.864 123.783 159.042 123.116 159.398C122.457 159.746 121.935 160.231 121.548 160.852C121.17 161.466 120.98 162.167 120.98 162.955V174H118.298ZM136.764 174.364C135.188 174.364 133.806 173.989 132.616 173.239C131.435 172.489 130.51 171.439 129.844 170.091C129.185 168.742 128.855 167.167 128.855 165.364C128.855 163.545 129.185 161.958 129.844 160.602C130.51 159.246 131.435 158.193 132.616 157.443C133.806 156.693 135.188 156.318 136.764 156.318C138.34 156.318 139.719 156.693 140.901 157.443C142.09 158.193 143.014 159.246 143.673 160.602C144.34 161.958 144.673 163.545 144.673 165.364C144.673 167.167 144.34 168.742 143.673 170.091C143.014 171.439 142.09 172.489 140.901 173.239C139.719 173.989 138.34 174.364 136.764 174.364ZM136.764 171.955C137.961 171.955 138.946 171.648 139.719 171.034C140.491 170.42 141.063 169.614 141.435 168.614C141.806 167.614 141.991 166.53 141.991 165.364C141.991 164.197 141.806 163.11 141.435 162.102C141.063 161.095 140.491 160.28 139.719 159.659C138.946 159.038 137.961 158.727 136.764 158.727C135.567 158.727 134.582 159.038 133.81 159.659C133.037 160.28 132.465 161.095 132.094 162.102C131.723 163.11 131.537 164.197 131.537 165.364C131.537 166.53 131.723 167.614 132.094 168.614C132.465 169.614 133.037 170.42 133.81 171.034C134.582 171.648 135.567 171.955 136.764 171.955ZM148.767 174V156.545H151.358V159.273H151.585C151.949 158.341 152.536 157.617 153.347 157.102C154.157 156.58 155.131 156.318 156.267 156.318C157.419 156.318 158.377 156.58 159.142 157.102C159.915 157.617 160.517 158.341 160.949 159.273H161.131C161.578 158.371 162.248 157.655 163.142 157.125C164.036 156.587 165.108 156.318 166.358 156.318C167.919 156.318 169.195 156.807 170.188 157.784C171.18 158.754 171.676 160.265 171.676 162.318V174H168.994V162.318C168.994 161.03 168.642 160.11 167.938 159.557C167.233 159.004 166.403 158.727 165.449 158.727C164.222 158.727 163.271 159.098 162.597 159.841C161.922 160.576 161.585 161.508 161.585 162.636V174H158.858V162.045C158.858 161.053 158.536 160.254 157.892 159.648C157.248 159.034 156.419 158.727 155.403 158.727C154.706 158.727 154.055 158.913 153.449 159.284C152.85 159.655 152.366 160.17 151.994 160.83C151.631 161.481 151.449 162.235 151.449 163.091V174H148.767ZM181.716 174.409C180.61 174.409 179.606 174.201 178.705 173.784C177.803 173.36 177.087 172.75 176.557 171.955C176.027 171.152 175.761 170.182 175.761 169.045C175.761 168.045 175.958 167.235 176.352 166.614C176.746 165.985 177.273 165.492 177.932 165.136C178.591 164.78 179.318 164.515 180.114 164.341C180.917 164.159 181.723 164.015 182.534 163.909C183.595 163.773 184.455 163.67 185.114 163.602C185.78 163.527 186.265 163.402 186.568 163.227C186.879 163.053 187.034 162.75 187.034 162.318V162.227C187.034 161.106 186.727 160.235 186.114 159.614C185.508 158.992 184.587 158.682 183.352 158.682C182.072 158.682 181.068 158.962 180.341 159.523C179.614 160.083 179.102 160.682 178.807 161.318L176.261 160.409C176.716 159.348 177.322 158.523 178.08 157.932C178.845 157.333 179.678 156.917 180.58 156.682C181.489 156.439 182.383 156.318 183.261 156.318C183.822 156.318 184.466 156.386 185.193 156.523C185.928 156.652 186.636 156.92 187.318 157.33C188.008 157.739 188.58 158.356 189.034 159.182C189.489 160.008 189.716 161.114 189.716 162.5V174H187.034V171.636H186.898C186.716 172.015 186.413 172.42 185.989 172.852C185.564 173.284 185 173.652 184.295 173.955C183.591 174.258 182.731 174.409 181.716 174.409ZM182.125 172C183.186 172 184.08 171.792 184.807 171.375C185.542 170.958 186.095 170.42 186.466 169.761C186.845 169.102 187.034 168.409 187.034 167.682V165.227C186.92 165.364 186.67 165.489 186.284 165.602C185.905 165.708 185.466 165.803 184.966 165.886C184.473 165.962 183.992 166.03 183.523 166.091C183.061 166.144 182.686 166.189 182.398 166.227C181.701 166.318 181.049 166.466 180.443 166.67C179.845 166.867 179.36 167.167 178.989 167.568C178.625 167.962 178.443 168.5 178.443 169.182C178.443 170.114 178.788 170.818 179.477 171.295C180.174 171.765 181.057 172 182.125 172ZM201.656 180.909C200.361 180.909 199.247 180.742 198.315 180.409C197.384 180.083 196.607 179.652 195.986 179.114C195.372 178.583 194.884 178.015 194.52 177.409L196.656 175.909C196.899 176.227 197.205 176.591 197.577 177C197.948 177.417 198.455 177.777 199.099 178.08C199.751 178.39 200.603 178.545 201.656 178.545C203.065 178.545 204.228 178.205 205.145 177.523C206.062 176.841 206.52 175.773 206.52 174.318V170.773H206.293C206.096 171.091 205.815 171.485 205.452 171.955C205.096 172.417 204.58 172.83 203.906 173.193C203.24 173.549 202.338 173.727 201.202 173.727C199.793 173.727 198.527 173.394 197.406 172.727C196.293 172.061 195.41 171.091 194.759 169.818C194.115 168.545 193.793 167 193.793 165.182C193.793 163.394 194.107 161.837 194.736 160.511C195.365 159.178 196.24 158.148 197.361 157.42C198.482 156.686 199.777 156.318 201.247 156.318C202.384 156.318 203.285 156.508 203.952 156.886C204.626 157.258 205.141 157.682 205.497 158.159C205.861 158.629 206.141 159.015 206.338 159.318H206.611V156.545H209.202V174.5C209.202 176 208.861 177.22 208.179 178.159C207.505 179.106 206.596 179.799 205.452 180.239C204.315 180.686 203.05 180.909 201.656 180.909ZM201.565 171.318C202.641 171.318 203.55 171.072 204.293 170.58C205.035 170.087 205.599 169.379 205.986 168.455C206.372 167.53 206.565 166.424 206.565 165.136C206.565 163.879 206.376 162.769 205.997 161.807C205.618 160.845 205.058 160.091 204.315 159.545C203.573 159 202.656 158.727 201.565 158.727C200.429 158.727 199.482 159.015 198.724 159.591C197.974 160.167 197.41 160.939 197.031 161.909C196.66 162.879 196.474 163.955 196.474 165.136C196.474 166.348 196.664 167.42 197.043 168.352C197.429 169.277 197.997 170.004 198.747 170.534C199.505 171.057 200.444 171.318 201.565 171.318ZM216.793 163.5V174H214.111V156.545H216.702V159.273H216.929C217.338 158.386 217.959 157.674 218.793 157.136C219.626 156.591 220.702 156.318 222.02 156.318C223.202 156.318 224.236 156.561 225.122 157.045C226.009 157.523 226.698 158.25 227.19 159.227C227.683 160.197 227.929 161.424 227.929 162.909V174H225.247V163.091C225.247 161.72 224.891 160.652 224.179 159.886C223.467 159.114 222.49 158.727 221.247 158.727C220.391 158.727 219.626 158.913 218.952 159.284C218.285 159.655 217.759 160.197 217.372 160.909C216.986 161.621 216.793 162.485 216.793 163.5ZM240.148 174.364C238.466 174.364 237.015 173.992 235.795 173.25C234.583 172.5 233.648 171.455 232.989 170.114C232.337 168.765 232.011 167.197 232.011 165.409C232.011 163.621 232.337 162.045 232.989 160.682C233.648 159.311 234.564 158.242 235.739 157.477C236.92 156.705 238.299 156.318 239.875 156.318C240.784 156.318 241.682 156.47 242.568 156.773C243.455 157.076 244.261 157.568 244.989 158.25C245.716 158.924 246.295 159.818 246.727 160.932C247.159 162.045 247.375 163.417 247.375 165.045V166.182H233.92V163.864H244.648C244.648 162.879 244.451 162 244.057 161.227C243.67 160.455 243.117 159.845 242.398 159.398C241.686 158.951 240.845 158.727 239.875 158.727C238.807 158.727 237.883 158.992 237.102 159.523C236.33 160.045 235.735 160.727 235.318 161.568C234.902 162.409 234.693 163.311 234.693 164.273V165.818C234.693 167.136 234.92 168.254 235.375 169.17C235.837 170.08 236.477 170.773 237.295 171.25C238.114 171.72 239.064 171.955 240.148 171.955C240.852 171.955 241.489 171.856 242.057 171.659C242.633 171.455 243.129 171.152 243.545 170.75C243.962 170.341 244.284 169.833 244.511 169.227L247.102 169.955C246.83 170.833 246.371 171.606 245.727 172.273C245.083 172.932 244.288 173.447 243.341 173.818C242.394 174.182 241.33 174.364 240.148 174.364ZM259.045 156.545V158.818H250V156.545H259.045ZM252.636 152.364H255.318V169C255.318 169.758 255.428 170.326 255.648 170.705C255.875 171.076 256.163 171.326 256.511 171.455C256.867 171.576 257.242 171.636 257.636 171.636C257.932 171.636 258.174 171.621 258.364 171.591C258.553 171.553 258.705 171.523 258.818 171.5L259.364 173.909C259.182 173.977 258.928 174.045 258.602 174.114C258.277 174.189 257.864 174.227 257.364 174.227C256.606 174.227 255.864 174.064 255.136 173.739C254.417 173.413 253.818 172.917 253.341 172.25C252.871 171.583 252.636 170.742 252.636 169.727V152.364ZM263.08 174V156.545H265.761V174H263.08ZM264.443 153.636C263.92 153.636 263.47 153.458 263.091 153.102C262.72 152.746 262.534 152.318 262.534 151.818C262.534 151.318 262.72 150.89 263.091 150.534C263.47 150.178 263.92 150 264.443 150C264.966 150 265.413 150.178 265.784 150.534C266.163 150.89 266.352 151.318 266.352 151.818C266.352 152.318 266.163 152.746 265.784 153.102C265.413 153.458 264.966 153.636 264.443 153.636ZM277.764 174.364C276.128 174.364 274.719 173.977 273.537 173.205C272.355 172.432 271.446 171.367 270.81 170.011C270.173 168.655 269.855 167.106 269.855 165.364C269.855 163.591 270.181 162.027 270.832 160.67C271.491 159.307 272.408 158.242 273.582 157.477C274.764 156.705 276.143 156.318 277.719 156.318C278.946 156.318 280.052 156.545 281.037 157C282.022 157.455 282.829 158.091 283.457 158.909C284.086 159.727 284.476 160.682 284.628 161.773H281.946C281.741 160.977 281.287 160.273 280.582 159.659C279.885 159.038 278.946 158.727 277.764 158.727C276.719 158.727 275.802 159 275.014 159.545C274.234 160.083 273.624 160.845 273.185 161.83C272.753 162.807 272.537 163.955 272.537 165.273C272.537 166.621 272.749 167.795 273.173 168.795C273.605 169.795 274.211 170.572 274.991 171.125C275.779 171.678 276.704 171.955 277.764 171.955C278.461 171.955 279.094 171.833 279.662 171.591C280.23 171.348 280.711 171 281.105 170.545C281.499 170.091 281.779 169.545 281.946 168.909H284.628C284.476 169.939 284.101 170.867 283.503 171.693C282.912 172.511 282.128 173.163 281.151 173.648C280.181 174.125 279.052 174.364 277.764 174.364ZM297.912 174V150.727H305.776C307.594 150.727 309.086 151.038 310.253 151.659C311.42 152.273 312.283 153.117 312.844 154.193C313.404 155.269 313.685 156.492 313.685 157.864C313.685 159.235 313.404 160.451 312.844 161.511C312.283 162.572 311.423 163.405 310.264 164.011C309.105 164.61 307.624 164.909 305.821 164.909H299.457V162.364H305.73C306.973 162.364 307.973 162.182 308.73 161.818C309.495 161.455 310.048 160.939 310.389 160.273C310.738 159.598 310.912 158.795 310.912 157.864C310.912 156.932 310.738 156.117 310.389 155.42C310.041 154.723 309.484 154.186 308.719 153.807C307.954 153.42 306.942 153.227 305.685 153.227H300.73V174H297.912ZM308.866 163.545L314.594 174H311.321L305.685 163.545H308.866ZM323.153 174.409C322.047 174.409 321.044 174.201 320.142 173.784C319.241 173.36 318.525 172.75 317.994 171.955C317.464 171.152 317.199 170.182 317.199 169.045C317.199 168.045 317.396 167.235 317.79 166.614C318.184 165.985 318.71 165.492 319.369 165.136C320.028 164.78 320.756 164.515 321.551 164.341C322.354 164.159 323.161 164.015 323.972 163.909C325.032 163.773 325.892 163.67 326.551 163.602C327.218 163.527 327.703 163.402 328.006 163.227C328.316 163.053 328.472 162.75 328.472 162.318V162.227C328.472 161.106 328.165 160.235 327.551 159.614C326.945 158.992 326.025 158.682 324.79 158.682C323.509 158.682 322.506 158.962 321.778 159.523C321.051 160.083 320.54 160.682 320.244 161.318L317.699 160.409C318.153 159.348 318.759 158.523 319.517 157.932C320.282 157.333 321.116 156.917 322.017 156.682C322.926 156.439 323.82 156.318 324.699 156.318C325.259 156.318 325.903 156.386 326.631 156.523C327.366 156.652 328.074 156.92 328.756 157.33C329.445 157.739 330.017 158.356 330.472 159.182C330.926 160.008 331.153 161.114 331.153 162.5V174H328.472V171.636H328.335C328.153 172.015 327.85 172.42 327.426 172.852C327.002 173.284 326.438 173.652 325.733 173.955C325.028 174.258 324.169 174.409 323.153 174.409ZM323.562 172C324.623 172 325.517 171.792 326.244 171.375C326.979 170.958 327.532 170.42 327.903 169.761C328.282 169.102 328.472 168.409 328.472 167.682V165.227C328.358 165.364 328.108 165.489 327.722 165.602C327.343 165.708 326.903 165.803 326.403 165.886C325.911 165.962 325.43 166.03 324.96 166.091C324.498 166.144 324.123 166.189 323.835 166.227C323.138 166.318 322.487 166.466 321.881 166.67C321.282 166.867 320.797 167.167 320.426 167.568C320.063 167.962 319.881 168.5 319.881 169.182C319.881 170.114 320.225 170.818 320.915 171.295C321.612 171.765 322.494 172 323.562 172ZM342.639 174.364C341.185 174.364 339.901 173.996 338.787 173.261C337.673 172.519 336.802 171.473 336.173 170.125C335.545 168.769 335.23 167.167 335.23 165.318C335.23 163.485 335.545 161.894 336.173 160.545C336.802 159.197 337.677 158.155 338.798 157.42C339.92 156.686 341.215 156.318 342.685 156.318C343.821 156.318 344.719 156.508 345.378 156.886C346.045 157.258 346.552 157.682 346.901 158.159C347.257 158.629 347.533 159.015 347.73 159.318H347.957V150.727H350.639V174H348.048V171.318H347.73C347.533 171.636 347.253 172.038 346.889 172.523C346.526 173 346.007 173.428 345.332 173.807C344.658 174.178 343.76 174.364 342.639 174.364ZM343.003 171.955C344.079 171.955 344.988 171.674 345.73 171.114C346.473 170.545 347.037 169.761 347.423 168.761C347.81 167.754 348.003 166.591 348.003 165.273C348.003 163.97 347.813 162.83 347.435 161.852C347.056 160.867 346.495 160.102 345.753 159.557C345.01 159.004 344.094 158.727 343.003 158.727C341.866 158.727 340.92 159.019 340.162 159.602C339.412 160.178 338.848 160.962 338.469 161.955C338.098 162.939 337.912 164.045 337.912 165.273C337.912 166.515 338.101 167.644 338.48 168.659C338.866 169.667 339.435 170.47 340.185 171.068C340.942 171.659 341.882 171.955 343.003 171.955ZM355.923 174V156.545H358.605V174H355.923ZM357.287 153.636C356.764 153.636 356.313 153.458 355.935 153.102C355.563 152.746 355.378 152.318 355.378 151.818C355.378 151.318 355.563 150.89 355.935 150.534C356.313 150.178 356.764 150 357.287 150C357.81 150 358.257 150.178 358.628 150.534C359.007 150.89 359.196 151.318 359.196 151.818C359.196 152.318 359.007 152.746 358.628 153.102C358.257 153.458 357.81 153.636 357.287 153.636ZM368.653 174.409C367.547 174.409 366.544 174.201 365.642 173.784C364.741 173.36 364.025 172.75 363.494 171.955C362.964 171.152 362.699 170.182 362.699 169.045C362.699 168.045 362.896 167.235 363.29 166.614C363.684 165.985 364.21 165.492 364.869 165.136C365.528 164.78 366.256 164.515 367.051 164.341C367.854 164.159 368.661 164.015 369.472 163.909C370.532 163.773 371.392 163.67 372.051 163.602C372.718 163.527 373.203 163.402 373.506 163.227C373.816 163.053 373.972 162.75 373.972 162.318V162.227C373.972 161.106 373.665 160.235 373.051 159.614C372.445 158.992 371.525 158.682 370.29 158.682C369.009 158.682 368.006 158.962 367.278 159.523C366.551 160.083 366.04 160.682 365.744 161.318L363.199 160.409C363.653 159.348 364.259 158.523 365.017 157.932C365.782 157.333 366.616 156.917 367.517 156.682C368.426 156.439 369.32 156.318 370.199 156.318C370.759 156.318 371.403 156.386 372.131 156.523C372.866 156.652 373.574 156.92 374.256 157.33C374.945 157.739 375.517 158.356 375.972 159.182C376.426 160.008 376.653 161.114 376.653 162.5V174H373.972V171.636H373.835C373.653 172.015 373.35 172.42 372.926 172.852C372.502 173.284 371.938 173.652 371.233 173.955C370.528 174.258 369.669 174.409 368.653 174.409ZM369.062 172C370.123 172 371.017 171.792 371.744 171.375C372.479 170.958 373.032 170.42 373.403 169.761C373.782 169.102 373.972 168.409 373.972 167.682V165.227C373.858 165.364 373.608 165.489 373.222 165.602C372.843 165.708 372.403 165.803 371.903 165.886C371.411 165.962 370.93 166.03 370.46 166.091C369.998 166.144 369.623 166.189 369.335 166.227C368.638 166.318 367.987 166.466 367.381 166.67C366.782 166.867 366.297 167.167 365.926 167.568C365.563 167.962 365.381 168.5 365.381 169.182C365.381 170.114 365.725 170.818 366.415 171.295C367.112 171.765 367.994 172 369.062 172ZM389.139 156.545V158.818H380.094V156.545H389.139ZM382.73 152.364H385.412V169C385.412 169.758 385.522 170.326 385.741 170.705C385.969 171.076 386.257 171.326 386.605 171.455C386.961 171.576 387.336 171.636 387.73 171.636C388.026 171.636 388.268 171.621 388.457 171.591C388.647 171.553 388.798 171.523 388.912 171.5L389.457 173.909C389.276 173.977 389.022 174.045 388.696 174.114C388.37 174.189 387.957 174.227 387.457 174.227C386.7 174.227 385.957 174.064 385.23 173.739C384.51 173.413 383.912 172.917 383.435 172.25C382.965 171.583 382.73 170.742 382.73 169.727V152.364ZM393.173 174V156.545H395.855V174H393.173ZM394.537 153.636C394.014 153.636 393.563 153.458 393.185 153.102C392.813 152.746 392.628 152.318 392.628 151.818C392.628 151.318 392.813 150.89 393.185 150.534C393.563 150.178 394.014 150 394.537 150C395.06 150 395.507 150.178 395.878 150.534C396.257 150.89 396.446 151.318 396.446 151.818C396.446 152.318 396.257 152.746 395.878 153.102C395.507 153.458 395.06 153.636 394.537 153.636ZM407.858 174.364C406.282 174.364 404.9 173.989 403.71 173.239C402.528 172.489 401.604 171.439 400.938 170.091C400.278 168.742 399.949 167.167 399.949 165.364C399.949 163.545 400.278 161.958 400.938 160.602C401.604 159.246 402.528 158.193 403.71 157.443C404.9 156.693 406.282 156.318 407.858 156.318C409.434 156.318 410.813 156.693 411.994 157.443C413.184 158.193 414.108 159.246 414.767 160.602C415.434 161.958 415.767 163.545 415.767 165.364C415.767 167.167 415.434 168.742 414.767 170.091C414.108 171.439 413.184 172.489 411.994 173.239C410.813 173.989 409.434 174.364 407.858 174.364ZM407.858 171.955C409.055 171.955 410.04 171.648 410.812 171.034C411.585 170.42 412.157 169.614 412.528 168.614C412.9 167.614 413.085 166.53 413.085 165.364C413.085 164.197 412.9 163.11 412.528 162.102C412.157 161.095 411.585 160.28 410.812 159.659C410.04 159.038 409.055 158.727 407.858 158.727C406.661 158.727 405.676 159.038 404.903 159.659C404.131 160.28 403.559 161.095 403.188 162.102C402.816 163.11 402.631 164.197 402.631 165.364C402.631 166.53 402.816 167.614 403.188 168.614C403.559 169.614 404.131 170.42 404.903 171.034C405.676 171.648 406.661 171.955 407.858 171.955ZM422.543 163.5V174H419.861V156.545H422.452V159.273H422.679C423.088 158.386 423.709 157.674 424.543 157.136C425.376 156.591 426.452 156.318 427.77 156.318C428.952 156.318 429.986 156.561 430.872 157.045C431.759 157.523 432.448 158.25 432.94 159.227C433.433 160.197 433.679 161.424 433.679 162.909V174H430.997V163.091C430.997 161.72 430.641 160.652 429.929 159.886C429.217 159.114 428.24 158.727 426.997 158.727C426.141 158.727 425.376 158.913 424.702 159.284C424.035 159.655 423.509 160.197 423.122 160.909C422.736 161.621 422.543 162.485 422.543 163.5Z" fill="black"/>
<path d="M841.552 173.631V150.358H849.416C851.242 150.358 852.734 150.688 853.893 151.347C855.06 151.998 855.923 152.881 856.484 153.995C857.045 155.108 857.325 156.351 857.325 157.722C857.325 159.093 857.045 160.339 856.484 161.461C855.931 162.582 855.075 163.476 853.916 164.142C852.757 164.801 851.272 165.131 849.461 165.131H843.825V162.631H849.37C850.62 162.631 851.624 162.415 852.382 161.983C853.139 161.551 853.689 160.968 854.029 160.233C854.378 159.491 854.552 158.654 854.552 157.722C854.552 156.79 854.378 155.957 854.029 155.222C853.689 154.487 853.136 153.911 852.37 153.495C851.605 153.07 850.59 152.858 849.325 152.858H844.37V173.631H841.552ZM864.183 163.131V173.631H861.501V150.358H864.183V158.904H864.41C864.819 158.002 865.433 157.286 866.251 156.756C867.077 156.218 868.175 155.949 869.547 155.949C870.736 155.949 871.778 156.188 872.672 156.665C873.565 157.135 874.259 157.858 874.751 158.836C875.251 159.805 875.501 161.04 875.501 162.54V173.631H872.819V162.722C872.819 161.336 872.459 160.264 871.74 159.506C871.028 158.741 870.039 158.358 868.774 158.358C867.895 158.358 867.107 158.544 866.41 158.915C865.721 159.286 865.175 159.828 864.774 160.54C864.38 161.252 864.183 162.116 864.183 163.131ZM887.498 173.995C885.922 173.995 884.54 173.62 883.35 172.87C882.169 172.12 881.244 171.07 880.578 169.722C879.919 168.373 879.589 166.798 879.589 164.995C879.589 163.176 879.919 161.589 880.578 160.233C881.244 158.877 882.169 157.824 883.35 157.074C884.54 156.324 885.922 155.949 887.498 155.949C889.074 155.949 890.453 156.324 891.635 157.074C892.824 157.824 893.748 158.877 894.407 160.233C895.074 161.589 895.407 163.176 895.407 164.995C895.407 166.798 895.074 168.373 894.407 169.722C893.748 171.07 892.824 172.12 891.635 172.87C890.453 173.62 889.074 173.995 887.498 173.995ZM887.498 171.586C888.695 171.586 889.68 171.279 890.453 170.665C891.225 170.051 891.797 169.245 892.169 168.245C892.54 167.245 892.725 166.161 892.725 164.995C892.725 163.828 892.54 162.741 892.169 161.733C891.797 160.726 891.225 159.911 890.453 159.29C889.68 158.669 888.695 158.358 887.498 158.358C886.301 158.358 885.316 158.669 884.544 159.29C883.771 159.911 883.199 160.726 882.828 161.733C882.457 162.741 882.271 163.828 882.271 164.995C882.271 166.161 882.457 167.245 882.828 168.245C883.199 169.245 883.771 170.051 884.544 170.665C885.316 171.279 886.301 171.586 887.498 171.586ZM907.092 156.176V158.449H898.047V156.176H907.092ZM900.683 151.995H903.365V168.631C903.365 169.389 903.475 169.957 903.694 170.336C903.922 170.707 904.209 170.957 904.558 171.086C904.914 171.207 905.289 171.267 905.683 171.267C905.978 171.267 906.221 171.252 906.41 171.222C906.6 171.184 906.751 171.154 906.865 171.131L907.41 173.54C907.228 173.608 906.975 173.676 906.649 173.745C906.323 173.82 905.91 173.858 905.41 173.858C904.653 173.858 903.91 173.695 903.183 173.37C902.463 173.044 901.865 172.548 901.387 171.881C900.918 171.214 900.683 170.373 900.683 169.358V151.995ZM918.029 173.995C916.454 173.995 915.071 173.62 913.882 172.87C912.7 172.12 911.776 171.07 911.109 169.722C910.45 168.373 910.12 166.798 910.12 164.995C910.12 163.176 910.45 161.589 911.109 160.233C911.776 158.877 912.7 157.824 913.882 157.074C915.071 156.324 916.454 155.949 918.029 155.949C919.605 155.949 920.984 156.324 922.166 157.074C923.355 157.824 924.279 158.877 924.939 160.233C925.605 161.589 925.939 163.176 925.939 164.995C925.939 166.798 925.605 168.373 924.939 169.722C924.279 171.07 923.355 172.12 922.166 172.87C920.984 173.62 919.605 173.995 918.029 173.995ZM918.029 171.586C919.226 171.586 920.211 171.279 920.984 170.665C921.757 170.051 922.329 169.245 922.7 168.245C923.071 167.245 923.257 166.161 923.257 164.995C923.257 163.828 923.071 162.741 922.7 161.733C922.329 160.726 921.757 159.911 920.984 159.29C920.211 158.669 919.226 158.358 918.029 158.358C916.832 158.358 915.848 158.669 915.075 159.29C914.302 159.911 913.73 160.726 913.359 161.733C912.988 162.741 912.802 163.828 912.802 164.995C912.802 166.161 912.988 167.245 913.359 168.245C913.73 169.245 914.302 170.051 915.075 170.665C915.848 171.279 916.832 171.586 918.029 171.586ZM937.35 173.995C935.669 173.995 934.218 173.623 932.998 172.881C931.786 172.131 930.85 171.086 930.191 169.745C929.54 168.396 929.214 166.828 929.214 165.04C929.214 163.252 929.54 161.676 930.191 160.313C930.85 158.942 931.767 157.873 932.941 157.108C934.123 156.336 935.502 155.949 937.078 155.949C937.987 155.949 938.885 156.101 939.771 156.404C940.657 156.707 941.464 157.199 942.191 157.881C942.919 158.555 943.498 159.449 943.93 160.563C944.362 161.676 944.578 163.048 944.578 164.676V165.813H931.123V163.495H941.85C941.85 162.51 941.654 161.631 941.26 160.858C940.873 160.086 940.32 159.476 939.6 159.029C938.888 158.582 938.047 158.358 937.078 158.358C936.01 158.358 935.085 158.623 934.305 159.154C933.532 159.676 932.938 160.358 932.521 161.199C932.104 162.04 931.896 162.942 931.896 163.904V165.449C931.896 166.767 932.123 167.885 932.578 168.801C933.04 169.711 933.68 170.404 934.498 170.881C935.316 171.351 936.267 171.586 937.35 171.586C938.055 171.586 938.691 171.487 939.26 171.29C939.835 171.086 940.332 170.783 940.748 170.381C941.165 169.972 941.487 169.464 941.714 168.858L944.305 169.586C944.032 170.464 943.574 171.237 942.93 171.904C942.286 172.563 941.491 173.078 940.544 173.449C939.597 173.813 938.532 173.995 937.35 173.995ZM951.339 150.358V173.631H948.657V150.358H951.339ZM963.569 173.995C961.887 173.995 960.437 173.623 959.217 172.881C958.005 172.131 957.069 171.086 956.41 169.745C955.759 168.396 955.433 166.828 955.433 165.04C955.433 163.252 955.759 161.676 956.41 160.313C957.069 158.942 957.986 157.873 959.16 157.108C960.342 156.336 961.721 155.949 963.297 155.949C964.206 155.949 965.103 156.101 965.99 156.404C966.876 156.707 967.683 157.199 968.41 157.881C969.137 158.555 969.717 159.449 970.149 160.563C970.581 161.676 970.797 163.048 970.797 164.676V165.813H957.342V163.495H968.069C968.069 162.51 967.872 161.631 967.478 160.858C967.092 160.086 966.539 159.476 965.819 159.029C965.107 158.582 964.266 158.358 963.297 158.358C962.228 158.358 961.304 158.623 960.524 159.154C959.751 159.676 959.156 160.358 958.74 161.199C958.323 162.04 958.115 162.942 958.115 163.904V165.449C958.115 166.767 958.342 167.885 958.797 168.801C959.259 169.711 959.899 170.404 960.717 170.881C961.535 171.351 962.486 171.586 963.569 171.586C964.274 171.586 964.91 171.487 965.478 171.29C966.054 171.086 966.55 170.783 966.967 170.381C967.384 169.972 967.706 169.464 967.933 168.858L970.524 169.586C970.251 170.464 969.793 171.237 969.149 171.904C968.505 172.563 967.709 173.078 966.762 173.449C965.815 173.813 964.751 173.995 963.569 173.995ZM981.967 173.995C980.331 173.995 978.922 173.608 977.74 172.836C976.558 172.063 975.649 170.998 975.012 169.642C974.376 168.286 974.058 166.737 974.058 164.995C974.058 163.222 974.384 161.658 975.035 160.301C975.694 158.938 976.611 157.873 977.785 157.108C978.967 156.336 980.346 155.949 981.922 155.949C983.149 155.949 984.255 156.176 985.24 156.631C986.225 157.086 987.031 157.722 987.66 158.54C988.289 159.358 988.679 160.313 988.831 161.404H986.149C985.944 160.608 985.49 159.904 984.785 159.29C984.088 158.669 983.149 158.358 981.967 158.358C980.922 158.358 980.005 158.631 979.217 159.176C978.437 159.714 977.827 160.476 977.387 161.461C976.956 162.438 976.74 163.586 976.74 164.904C976.74 166.252 976.952 167.426 977.376 168.426C977.808 169.426 978.414 170.203 979.194 170.756C979.982 171.309 980.906 171.586 981.967 171.586C982.664 171.586 983.297 171.464 983.865 171.222C984.433 170.98 984.914 170.631 985.308 170.176C985.702 169.722 985.982 169.176 986.149 168.54H988.831C988.679 169.57 988.304 170.498 987.706 171.324C987.115 172.142 986.331 172.794 985.353 173.279C984.384 173.756 983.255 173.995 981.967 173.995ZM1000.34 156.176V158.449H991.297V156.176H1000.34ZM993.933 151.995H996.615V168.631C996.615 169.389 996.725 169.957 996.944 170.336C997.172 170.707 997.459 170.957 997.808 171.086C998.164 171.207 998.539 171.267 998.933 171.267C999.228 171.267 999.471 171.252 999.66 171.222C999.85 171.184 1000 171.154 1000.11 171.131L1000.66 173.54C1000.48 173.608 1000.22 173.676 999.899 173.745C999.573 173.82 999.16 173.858 998.66 173.858C997.903 173.858 997.16 173.695 996.433 173.37C995.713 173.044 995.115 172.548 994.637 171.881C994.168 171.214 993.933 170.373 993.933 169.358V151.995ZM1004.38 173.631V156.176H1006.97V158.813H1007.15C1007.47 157.949 1008.04 157.248 1008.88 156.711C1009.71 156.173 1010.65 155.904 1011.69 155.904C1011.89 155.904 1012.14 155.908 1012.43 155.915C1012.73 155.923 1012.95 155.934 1013.1 155.949V158.676C1013.01 158.654 1012.8 158.62 1012.48 158.574C1012.16 158.521 1011.82 158.495 1011.47 158.495C1010.62 158.495 1009.86 158.673 1009.19 159.029C1008.54 159.377 1008.01 159.862 1007.63 160.483C1007.25 161.097 1007.06 161.798 1007.06 162.586V173.631H1004.38ZM1022.84 173.995C1021.27 173.995 1019.88 173.62 1018.69 172.87C1017.51 172.12 1016.59 171.07 1015.92 169.722C1015.26 168.373 1014.93 166.798 1014.93 164.995C1014.93 163.176 1015.26 161.589 1015.92 160.233C1016.59 158.877 1017.51 157.824 1018.69 157.074C1019.88 156.324 1021.27 155.949 1022.84 155.949C1024.42 155.949 1025.8 156.324 1026.98 157.074C1028.17 157.824 1029.09 158.877 1029.75 160.233C1030.42 161.589 1030.75 163.176 1030.75 164.995C1030.75 166.798 1030.42 168.373 1029.75 169.722C1029.09 171.07 1028.17 172.12 1026.98 172.87C1025.8 173.62 1024.42 173.995 1022.84 173.995ZM1022.84 171.586C1024.04 171.586 1025.02 171.279 1025.8 170.665C1026.57 170.051 1027.14 169.245 1027.51 168.245C1027.88 167.245 1028.07 166.161 1028.07 164.995C1028.07 163.828 1027.88 162.741 1027.51 161.733C1027.14 160.726 1026.57 159.911 1025.8 159.29C1025.02 158.669 1024.04 158.358 1022.84 158.358C1021.64 158.358 1020.66 158.669 1019.89 159.29C1019.11 159.911 1018.54 160.726 1018.17 161.733C1017.8 162.741 1017.61 163.828 1017.61 164.995C1017.61 166.161 1017.8 167.245 1018.17 168.245C1018.54 169.245 1019.11 170.051 1019.89 170.665C1020.66 171.279 1021.64 171.586 1022.84 171.586ZM1037.53 163.131V173.631H1034.84V156.176H1037.44V158.904H1037.66C1038.07 158.017 1038.69 157.305 1039.53 156.767C1040.36 156.222 1041.44 155.949 1042.75 155.949C1043.94 155.949 1044.97 156.192 1045.86 156.676C1046.74 157.154 1047.43 157.881 1047.92 158.858C1048.42 159.828 1048.66 161.055 1048.66 162.54V173.631H1045.98V162.722C1045.98 161.351 1045.63 160.283 1044.91 159.517C1044.2 158.745 1043.22 158.358 1041.98 158.358C1041.13 158.358 1040.36 158.544 1039.69 158.915C1039.02 159.286 1038.49 159.828 1038.11 160.54C1037.72 161.252 1037.53 162.116 1037.53 163.131ZM1065.93 160.086L1063.52 160.767C1063.37 160.366 1063.14 159.976 1062.85 159.597C1062.56 159.211 1062.17 158.892 1061.67 158.642C1061.17 158.392 1060.53 158.267 1059.75 158.267C1058.68 158.267 1057.79 158.514 1057.07 159.006C1056.37 159.491 1056.02 160.108 1056.02 160.858C1056.02 161.525 1056.26 162.051 1056.75 162.438C1057.23 162.824 1057.99 163.146 1059.02 163.404L1061.61 164.04C1063.17 164.419 1064.33 164.998 1065.1 165.779C1065.86 166.551 1066.25 167.548 1066.25 168.767C1066.25 169.767 1065.96 170.661 1065.38 171.449C1064.81 172.237 1064.02 172.858 1063 173.313C1061.97 173.767 1060.78 173.995 1059.43 173.995C1057.65 173.995 1056.17 173.608 1055.01 172.836C1053.84 172.063 1053.1 170.934 1052.79 169.449L1055.34 168.813C1055.58 169.752 1056.04 170.457 1056.71 170.926C1057.39 171.396 1058.28 171.631 1059.38 171.631C1060.63 171.631 1061.62 171.366 1062.36 170.836C1063.1 170.298 1063.47 169.654 1063.47 168.904C1063.47 168.298 1063.26 167.79 1062.84 167.381C1062.41 166.964 1061.76 166.654 1060.88 166.449L1057.97 165.767C1056.37 165.389 1055.2 164.801 1054.45 164.006C1053.71 163.203 1053.34 162.199 1053.34 160.995C1053.34 160.01 1053.61 159.139 1054.17 158.381C1054.73 157.623 1055.49 157.029 1056.45 156.597C1057.42 156.165 1058.52 155.949 1059.75 155.949C1061.47 155.949 1062.83 156.328 1063.81 157.086C1064.81 157.843 1065.51 158.843 1065.93 160.086Z" fill="black"/>
<path d="M272.039 707.899H275.403L283.312 727.217H283.585L291.494 707.899H294.857V731.171H292.221V713.49H291.994L284.721 731.171H282.175L274.903 713.49H274.675V731.171H272.039V707.899ZM307.462 731.535C305.781 731.535 304.33 731.164 303.11 730.421C301.898 729.671 300.962 728.626 300.303 727.285C299.652 725.936 299.326 724.368 299.326 722.58C299.326 720.793 299.652 719.217 300.303 717.853C300.962 716.482 301.879 715.414 303.053 714.649C304.235 713.876 305.614 713.49 307.19 713.49C308.099 713.49 308.996 713.641 309.883 713.944C310.769 714.247 311.576 714.74 312.303 715.421C313.031 716.096 313.61 716.99 314.042 718.103C314.474 719.217 314.69 720.588 314.69 722.217V723.353H301.235V721.035H311.962C311.962 720.05 311.765 719.171 311.371 718.399C310.985 717.626 310.432 717.016 309.712 716.569C309 716.122 308.159 715.899 307.19 715.899C306.121 715.899 305.197 716.164 304.417 716.694C303.644 717.217 303.05 717.899 302.633 718.74C302.216 719.58 302.008 720.482 302.008 721.444V722.99C302.008 724.308 302.235 725.425 302.69 726.342C303.152 727.251 303.792 727.944 304.61 728.421C305.428 728.891 306.379 729.126 307.462 729.126C308.167 729.126 308.803 729.027 309.371 728.83C309.947 728.626 310.443 728.323 310.86 727.921C311.277 727.512 311.599 727.005 311.826 726.399L314.417 727.126C314.144 728.005 313.686 728.777 313.042 729.444C312.398 730.103 311.603 730.618 310.656 730.99C309.709 731.353 308.644 731.535 307.462 731.535ZM326.36 713.717V715.99H317.315V713.717H326.36ZM319.951 709.535H322.633V726.171C322.633 726.929 322.743 727.497 322.962 727.876C323.19 728.247 323.478 728.497 323.826 728.626C324.182 728.747 324.557 728.808 324.951 728.808C325.246 728.808 325.489 728.793 325.678 728.762C325.868 728.724 326.019 728.694 326.133 728.671L326.678 731.08C326.496 731.149 326.243 731.217 325.917 731.285C325.591 731.361 325.178 731.399 324.678 731.399C323.921 731.399 323.178 731.236 322.451 730.91C321.731 730.584 321.133 730.088 320.656 729.421C320.186 728.755 319.951 727.914 319.951 726.899V709.535ZM335.531 731.58C334.425 731.58 333.421 731.372 332.519 730.955C331.618 730.531 330.902 729.921 330.371 729.126C329.841 728.323 329.576 727.353 329.576 726.217C329.576 725.217 329.773 724.406 330.167 723.785C330.561 723.156 331.087 722.664 331.746 722.308C332.406 721.952 333.133 721.686 333.928 721.512C334.731 721.33 335.538 721.186 336.349 721.08C337.409 720.944 338.269 720.842 338.928 720.774C339.595 720.698 340.08 720.573 340.383 720.399C340.693 720.224 340.849 719.921 340.849 719.49V719.399C340.849 718.277 340.542 717.406 339.928 716.785C339.322 716.164 338.402 715.853 337.167 715.853C335.887 715.853 334.883 716.133 334.156 716.694C333.428 717.255 332.917 717.853 332.621 718.49L330.076 717.58C330.531 716.52 331.137 715.694 331.894 715.103C332.659 714.505 333.493 714.088 334.394 713.853C335.303 713.611 336.197 713.49 337.076 713.49C337.637 713.49 338.281 713.558 339.008 713.694C339.743 713.823 340.451 714.092 341.133 714.501C341.822 714.91 342.394 715.527 342.849 716.353C343.303 717.179 343.531 718.285 343.531 719.671V731.171H340.849V728.808H340.712C340.531 729.186 340.228 729.592 339.803 730.024C339.379 730.455 338.815 730.823 338.11 731.126C337.406 731.429 336.546 731.58 335.531 731.58ZM335.94 729.171C337 729.171 337.894 728.963 338.621 728.546C339.356 728.13 339.909 727.592 340.281 726.933C340.659 726.274 340.849 725.58 340.849 724.853V722.399C340.735 722.535 340.485 722.66 340.099 722.774C339.72 722.88 339.281 722.974 338.781 723.058C338.288 723.133 337.807 723.202 337.337 723.262C336.875 723.315 336.5 723.361 336.212 723.399C335.515 723.49 334.864 723.637 334.258 723.842C333.659 724.039 333.175 724.338 332.803 724.74C332.44 725.133 332.258 725.671 332.258 726.353C332.258 727.285 332.603 727.99 333.292 728.467C333.989 728.936 334.871 729.171 335.94 729.171ZM351.107 707.899V731.171H348.425V707.899H351.107ZM365.383 731.171V707.899H373.246C375.072 707.899 376.565 708.228 377.724 708.887C378.89 709.539 379.754 710.421 380.315 711.535C380.875 712.649 381.156 713.891 381.156 715.262C381.156 716.633 380.875 717.88 380.315 719.001C379.762 720.122 378.906 721.016 377.746 721.683C376.587 722.342 375.103 722.671 373.292 722.671H367.656V720.171H373.201C374.451 720.171 375.455 719.955 376.212 719.524C376.97 719.092 377.519 718.508 377.86 717.774C378.209 717.031 378.383 716.194 378.383 715.262C378.383 714.33 378.209 713.497 377.86 712.762C377.519 712.027 376.966 711.452 376.201 711.035C375.436 710.611 374.421 710.399 373.156 710.399H368.201V731.171H365.383ZM388.014 707.899V731.171H385.332V707.899H388.014ZM398.062 731.58C396.956 731.58 395.952 731.372 395.05 730.955C394.149 730.531 393.433 729.921 392.903 729.126C392.372 728.323 392.107 727.353 392.107 726.217C392.107 725.217 392.304 724.406 392.698 723.785C393.092 723.156 393.619 722.664 394.278 722.308C394.937 721.952 395.664 721.686 396.46 721.512C397.263 721.33 398.069 721.186 398.88 721.08C399.941 720.944 400.8 720.842 401.46 720.774C402.126 720.698 402.611 720.573 402.914 720.399C403.225 720.224 403.38 719.921 403.38 719.49V719.399C403.38 718.277 403.073 717.406 402.46 716.785C401.853 716.164 400.933 715.853 399.698 715.853C398.418 715.853 397.414 716.133 396.687 716.694C395.96 717.255 395.448 717.853 395.153 718.49L392.607 717.58C393.062 716.52 393.668 715.694 394.425 715.103C395.191 714.505 396.024 714.088 396.925 713.853C397.835 713.611 398.728 713.49 399.607 713.49C400.168 713.49 400.812 713.558 401.539 713.694C402.274 713.823 402.982 714.092 403.664 714.501C404.353 714.91 404.925 715.527 405.38 716.353C405.835 717.179 406.062 718.285 406.062 719.671V731.171H403.38V728.808H403.244C403.062 729.186 402.759 729.592 402.335 730.024C401.91 730.455 401.346 730.823 400.641 731.126C399.937 731.429 399.077 731.58 398.062 731.58ZM398.471 729.171C399.532 729.171 400.425 728.963 401.153 728.546C401.888 728.13 402.441 727.592 402.812 726.933C403.191 726.274 403.38 725.58 403.38 724.853V722.399C403.266 722.535 403.016 722.66 402.63 722.774C402.251 722.88 401.812 722.974 401.312 723.058C400.819 723.133 400.338 723.202 399.869 723.262C399.407 723.315 399.032 723.361 398.744 723.399C398.047 723.49 397.395 723.637 396.789 723.842C396.191 724.039 395.706 724.338 395.335 724.74C394.971 725.133 394.789 725.671 394.789 726.353C394.789 727.285 395.134 727.99 395.823 728.467C396.52 728.936 397.403 729.171 398.471 729.171ZM418.548 713.717V715.99H409.502V713.717H418.548ZM412.139 709.535H414.82V726.171C414.82 726.929 414.93 727.497 415.15 727.876C415.377 728.247 415.665 728.497 416.014 728.626C416.37 728.747 416.745 728.808 417.139 728.808C417.434 728.808 417.676 728.793 417.866 728.762C418.055 728.724 418.207 728.694 418.32 728.671L418.866 731.08C418.684 731.149 418.43 731.217 418.104 731.285C417.779 731.361 417.366 731.399 416.866 731.399C416.108 731.399 415.366 731.236 414.639 730.91C413.919 730.584 413.32 730.088 412.843 729.421C412.373 728.755 412.139 727.914 412.139 726.899V709.535ZM429.712 731.535C428.031 731.535 426.58 731.164 425.36 730.421C424.148 729.671 423.212 728.626 422.553 727.285C421.902 725.936 421.576 724.368 421.576 722.58C421.576 720.793 421.902 719.217 422.553 717.853C423.212 716.482 424.129 715.414 425.303 714.649C426.485 713.876 427.864 713.49 429.44 713.49C430.349 713.49 431.246 713.641 432.133 713.944C433.019 714.247 433.826 714.74 434.553 715.421C435.281 716.096 435.86 716.99 436.292 718.103C436.724 719.217 436.94 720.588 436.94 722.217V723.353H423.485V721.035H434.212C434.212 720.05 434.015 719.171 433.621 718.399C433.235 717.626 432.682 717.016 431.962 716.569C431.25 716.122 430.409 715.899 429.44 715.899C428.371 715.899 427.447 716.164 426.667 716.694C425.894 717.217 425.3 717.899 424.883 718.74C424.466 719.58 424.258 720.482 424.258 721.444V722.99C424.258 724.308 424.485 725.425 424.94 726.342C425.402 727.251 426.042 727.944 426.86 728.421C427.678 728.891 428.629 729.126 429.712 729.126C430.417 729.126 431.053 729.027 431.621 728.83C432.197 728.626 432.693 728.323 433.11 727.921C433.527 727.512 433.849 727.005 434.076 726.399L436.667 727.126C436.394 728.005 435.936 728.777 435.292 729.444C434.648 730.103 433.853 730.618 432.906 730.99C431.959 731.353 430.894 731.535 429.712 731.535Z" fill="black"/>
<path d="M806.521 731.171V707.899H820.566V710.399H809.339V718.262H819.839V720.762H809.339V728.671H820.748V731.171H806.521ZM827.964 707.899V731.171H825.282V707.899H827.964ZM840.194 731.535C838.512 731.535 837.061 731.164 835.842 730.421C834.63 729.671 833.694 728.626 833.035 727.285C832.383 725.936 832.058 724.368 832.058 722.58C832.058 720.793 832.383 719.217 833.035 717.853C833.694 716.482 834.611 715.414 835.785 714.649C836.967 713.876 838.345 713.49 839.921 713.49C840.83 713.49 841.728 713.641 842.614 713.944C843.501 714.247 844.308 714.74 845.035 715.421C845.762 716.096 846.342 716.99 846.773 718.103C847.205 719.217 847.421 720.588 847.421 722.217V723.353H833.967V721.035H844.694C844.694 720.05 844.497 719.171 844.103 718.399C843.717 717.626 843.164 717.016 842.444 716.569C841.732 716.122 840.891 715.899 839.921 715.899C838.853 715.899 837.929 716.164 837.148 716.694C836.376 717.217 835.781 717.899 835.364 718.74C834.948 719.58 834.739 720.482 834.739 721.444V722.99C834.739 724.308 834.967 725.425 835.421 726.342C835.883 727.251 836.523 727.944 837.342 728.421C838.16 728.891 839.111 729.126 840.194 729.126C840.898 729.126 841.535 729.027 842.103 728.83C842.679 728.626 843.175 728.323 843.592 727.921C844.008 727.512 844.33 727.005 844.558 726.399L847.148 727.126C846.876 728.005 846.417 728.777 845.773 729.444C845.13 730.103 844.334 730.618 843.387 730.99C842.44 731.353 841.376 731.535 840.194 731.535ZM858.592 731.535C856.955 731.535 855.546 731.149 854.364 730.376C853.183 729.603 852.273 728.539 851.637 727.183C851.001 725.827 850.683 724.277 850.683 722.535C850.683 720.762 851.008 719.198 851.66 717.842C852.319 716.478 853.236 715.414 854.41 714.649C855.592 713.876 856.97 713.49 858.546 713.49C859.773 713.49 860.88 713.717 861.864 714.171C862.849 714.626 863.656 715.262 864.285 716.08C864.914 716.899 865.304 717.853 865.455 718.944H862.773C862.569 718.149 862.114 717.444 861.41 716.83C860.713 716.209 859.773 715.899 858.592 715.899C857.546 715.899 856.63 716.171 855.842 716.717C855.061 717.255 854.452 718.016 854.012 719.001C853.58 719.978 853.364 721.126 853.364 722.444C853.364 723.793 853.577 724.967 854.001 725.967C854.433 726.967 855.039 727.743 855.819 728.296C856.607 728.849 857.531 729.126 858.592 729.126C859.289 729.126 859.921 729.005 860.489 728.762C861.058 728.52 861.539 728.171 861.933 727.717C862.327 727.262 862.607 726.717 862.773 726.08H865.455C865.304 727.111 864.929 728.039 864.33 728.865C863.739 729.683 862.955 730.334 861.978 730.819C861.008 731.296 859.88 731.535 858.592 731.535ZM876.967 713.717V715.99H867.921V713.717H876.967ZM870.558 709.535H873.239V726.171C873.239 726.929 873.349 727.497 873.569 727.876C873.796 728.247 874.084 728.497 874.433 728.626C874.789 728.747 875.164 728.808 875.558 728.808C875.853 728.808 876.095 728.793 876.285 728.762C876.474 728.724 876.626 728.694 876.739 728.671L877.285 731.08C877.103 731.149 876.849 731.217 876.523 731.285C876.198 731.361 875.785 731.399 875.285 731.399C874.527 731.399 873.785 731.236 873.058 730.91C872.338 730.584 871.739 730.088 871.262 729.421C870.792 728.755 870.558 727.914 870.558 726.899V709.535ZM881.001 731.171V713.717H883.592V716.353H883.773C884.092 715.49 884.667 714.789 885.501 714.251C886.334 713.713 887.273 713.444 888.319 713.444C888.516 713.444 888.762 713.448 889.058 713.455C889.353 713.463 889.577 713.474 889.728 713.49V716.217C889.637 716.194 889.429 716.16 889.103 716.115C888.785 716.061 888.448 716.035 888.092 716.035C887.243 716.035 886.486 716.213 885.819 716.569C885.16 716.918 884.637 717.402 884.251 718.024C883.872 718.637 883.683 719.338 883.683 720.126V731.171H881.001ZM899.467 731.535C897.891 731.535 896.508 731.16 895.319 730.41C894.137 729.66 893.213 728.611 892.546 727.262C891.887 725.914 891.558 724.338 891.558 722.535C891.558 720.717 891.887 719.13 892.546 717.774C893.213 716.418 894.137 715.365 895.319 714.615C896.508 713.865 897.891 713.49 899.467 713.49C901.042 713.49 902.421 713.865 903.603 714.615C904.792 715.365 905.717 716.418 906.376 717.774C907.042 719.13 907.376 720.717 907.376 722.535C907.376 724.338 907.042 725.914 906.376 727.262C905.717 728.611 904.792 729.66 903.603 730.41C902.421 731.16 901.042 731.535 899.467 731.535ZM899.467 729.126C900.664 729.126 901.648 728.819 902.421 728.205C903.194 727.592 903.766 726.785 904.137 725.785C904.508 724.785 904.694 723.702 904.694 722.535C904.694 721.368 904.508 720.281 904.137 719.274C903.766 718.266 903.194 717.452 902.421 716.83C901.648 716.209 900.664 715.899 899.467 715.899C898.27 715.899 897.285 716.209 896.512 716.83C895.739 717.452 895.167 718.266 894.796 719.274C894.425 720.281 894.239 721.368 894.239 722.535C894.239 723.702 894.425 724.785 894.796 725.785C895.167 726.785 895.739 727.592 896.512 728.205C897.285 728.819 898.27 729.126 899.467 729.126ZM914.151 720.671V731.171H911.469V713.717H914.06V716.444H914.288C914.697 715.558 915.318 714.846 916.151 714.308C916.985 713.762 918.06 713.49 919.379 713.49C920.56 713.49 921.594 713.732 922.481 714.217C923.367 714.694 924.057 715.421 924.549 716.399C925.041 717.368 925.288 718.596 925.288 720.08V731.171H922.606V720.262C922.606 718.891 922.25 717.823 921.538 717.058C920.826 716.285 919.848 715.899 918.606 715.899C917.75 715.899 916.985 716.084 916.31 716.455C915.644 716.827 915.117 717.368 914.731 718.08C914.344 718.793 914.151 719.656 914.151 720.671ZM942.552 717.626L940.143 718.308C939.991 717.906 939.768 717.516 939.472 717.137C939.184 716.751 938.791 716.433 938.291 716.183C937.791 715.933 937.15 715.808 936.37 715.808C935.302 715.808 934.412 716.054 933.7 716.546C932.995 717.031 932.643 717.649 932.643 718.399C932.643 719.065 932.885 719.592 933.37 719.978C933.855 720.365 934.612 720.686 935.643 720.944L938.234 721.58C939.794 721.959 940.957 722.539 941.722 723.319C942.487 724.092 942.87 725.088 942.87 726.308C942.87 727.308 942.582 728.202 942.006 728.99C941.438 729.777 940.643 730.399 939.62 730.853C938.597 731.308 937.408 731.535 936.052 731.535C934.272 731.535 932.798 731.149 931.631 730.376C930.465 729.603 929.726 728.474 929.416 726.99L931.961 726.353C932.203 727.293 932.662 727.997 933.336 728.467C934.018 728.936 934.908 729.171 936.006 729.171C937.256 729.171 938.249 728.906 938.984 728.376C939.726 727.838 940.097 727.194 940.097 726.444C940.097 725.838 939.885 725.33 939.461 724.921C939.037 724.505 938.385 724.194 937.506 723.99L934.597 723.308C932.999 722.929 931.825 722.342 931.075 721.546C930.332 720.743 929.961 719.74 929.961 718.535C929.961 717.55 930.237 716.679 930.791 715.921C931.351 715.164 932.112 714.569 933.075 714.137C934.044 713.705 935.143 713.49 936.37 713.49C938.097 713.49 939.453 713.868 940.438 714.626C941.431 715.383 942.135 716.383 942.552 717.626Z" fill="black"/>
<path d="M875.837 589.603C875.256 589.012 874.307 589.004 873.716 589.584L864.083 599.044C863.492 599.624 863.483 600.574 864.063 601.165C864.644 601.756 865.593 601.764 866.185 601.184L874.747 592.776L883.154 601.337C883.735 601.928 884.685 601.937 885.276 601.357C885.867 600.776 885.875 599.826 885.295 599.235L875.837 589.603ZM875.266 700.185L876.266 590.668L873.267 590.641L872.266 700.158L875.266 700.185Z" fill="black"/>
<path d="M357.385 614.509C356.813 613.91 355.864 613.888 355.264 614.46L345.495 623.779C344.896 624.351 344.873 625.301 345.445 625.9C346.017 626.5 346.966 626.522 347.566 625.95L356.249 617.665L364.532 626.347C365.103 626.946 366.053 626.968 366.652 626.397C367.252 625.825 367.274 624.875 366.702 624.276L357.385 614.509ZM355.797 700.206L357.799 615.58L354.8 615.51L352.798 700.136L355.797 700.206Z" fill="black"/>
<path d="M366.591 62.3267V57.9091H389.801V62.3267H380.81V87H375.582V62.3267H366.591ZM399.19 74.2159V87H394.048V57.9091H399.077V68.8892H399.332C399.844 67.6581 400.634 66.6875 401.705 65.9773C402.784 65.2576 404.157 64.8977 405.824 64.8977C407.339 64.8977 408.66 65.215 409.787 65.8494C410.914 66.4839 411.785 67.4119 412.401 68.6335C413.026 69.8551 413.338 71.3466 413.338 73.108V87H408.196V73.9034C408.196 72.4356 407.817 71.2945 407.06 70.4801C406.312 69.6562 405.26 69.2443 403.906 69.2443C402.997 69.2443 402.183 69.4432 401.463 69.8409C400.753 70.2292 400.194 70.7926 399.787 71.5312C399.389 72.2699 399.19 73.1648 399.19 74.2159ZM428.239 87.4261C426.051 87.4261 424.162 86.9716 422.571 86.0625C420.99 85.1439 419.773 83.8466 418.92 82.1705C418.068 80.4848 417.642 78.5009 417.642 76.2188C417.642 73.9744 418.068 72.0047 418.92 70.3097C419.782 68.6051 420.985 67.2794 422.528 66.3324C424.072 65.3759 425.885 64.8977 427.969 64.8977C429.313 64.8977 430.582 65.1155 431.776 65.5511C432.978 65.9773 434.039 66.6402 434.957 67.5398C435.885 68.4394 436.615 69.5852 437.145 70.9773C437.675 72.3598 437.94 74.0076 437.94 75.9205V77.4972H420.057V74.0312H433.011C433.002 73.0464 432.789 72.1705 432.372 71.4034C431.955 70.6269 431.373 70.0161 430.625 69.571C429.886 69.1259 429.025 68.9034 428.04 68.9034C426.989 68.9034 426.065 69.1591 425.27 69.6705C424.474 70.1723 423.854 70.8352 423.409 71.6591C422.973 72.4735 422.751 73.3684 422.741 74.3438V77.3693C422.741 78.6383 422.973 79.7273 423.438 80.6364C423.902 81.536 424.55 82.2273 425.384 82.7102C426.217 83.1837 427.192 83.4205 428.31 83.4205C429.058 83.4205 429.735 83.3163 430.341 83.108C430.947 82.8902 431.473 82.5729 431.918 82.1562C432.363 81.7396 432.699 81.2235 432.926 80.608L437.727 81.1477C437.424 82.4167 436.847 83.5246 435.994 84.4716C435.152 85.4091 434.072 86.1383 432.756 86.6591C431.439 87.1705 429.934 87.4261 428.239 87.4261ZM452.44 87V57.9091H463.349C465.584 57.9091 467.459 58.3258 468.974 59.1591C470.498 59.9924 471.649 61.1383 472.425 62.5966C473.211 64.0455 473.604 65.6932 473.604 67.5398C473.604 69.4053 473.211 71.0625 472.425 72.5114C471.639 73.9602 470.479 75.1013 468.945 75.9347C467.411 76.7585 465.522 77.1705 463.278 77.1705H456.048V72.8381H462.567C463.874 72.8381 464.944 72.6108 465.778 72.1562C466.611 71.7017 467.227 71.0767 467.624 70.2812C468.031 69.4858 468.235 68.572 468.235 67.5398C468.235 66.5076 468.031 65.5985 467.624 64.8125C467.227 64.0265 466.606 63.4157 465.763 62.9801C464.93 62.535 463.855 62.3125 462.539 62.3125H457.71V87H452.44ZM483.097 74.2159V87H477.955V57.9091H482.983V68.8892H483.239C483.75 67.6581 484.541 66.6875 485.611 65.9773C486.69 65.2576 488.063 64.8977 489.73 64.8977C491.245 64.8977 492.566 65.215 493.693 65.8494C494.82 66.4839 495.691 67.4119 496.307 68.6335C496.932 69.8551 497.244 71.3466 497.244 73.108V87H492.102V73.9034C492.102 72.4356 491.723 71.2945 490.966 70.4801C490.218 69.6562 489.167 69.2443 487.812 69.2443C486.903 69.2443 486.089 69.4432 485.369 69.8409C484.659 70.2292 484.1 70.7926 483.693 71.5312C483.295 72.2699 483.097 73.1648 483.097 74.2159ZM512.003 87.4261C509.872 87.4261 508.026 86.9574 506.463 86.0199C504.901 85.0824 503.688 83.7708 502.827 82.0852C501.974 80.3996 501.548 78.4299 501.548 76.1761C501.548 73.9223 501.974 71.9479 502.827 70.2528C503.688 68.5578 504.901 67.2415 506.463 66.304C508.026 65.3665 509.872 64.8977 512.003 64.8977C514.134 64.8977 515.98 65.3665 517.543 66.304C519.105 67.2415 520.313 68.5578 521.165 70.2528C522.027 71.9479 522.457 73.9223 522.457 76.1761C522.457 78.4299 522.027 80.3996 521.165 82.0852C520.313 83.7708 519.105 85.0824 517.543 86.0199C515.98 86.9574 514.134 87.4261 512.003 87.4261ZM512.031 83.3068C513.187 83.3068 514.152 82.9896 514.929 82.3551C515.705 81.7112 516.283 80.8494 516.662 79.7699C517.05 78.6903 517.244 77.4877 517.244 76.1619C517.244 74.8267 517.05 73.6193 516.662 72.5398C516.283 71.4508 515.705 70.5843 514.929 69.9403C514.152 69.2964 513.187 68.9744 512.031 68.9744C510.848 68.9744 509.863 69.2964 509.077 69.9403C508.3 70.5843 507.718 71.4508 507.33 72.5398C506.951 73.6193 506.761 74.8267 506.761 76.1619C506.761 77.4877 506.951 78.6903 507.33 79.7699C507.718 80.8494 508.3 81.7112 509.077 82.3551C509.863 82.9896 510.848 83.3068 512.031 83.3068ZM537.717 65.1818V69.1591H525.174V65.1818H537.717ZM528.271 59.9545H533.413V80.4375C533.413 81.1288 533.517 81.6591 533.725 82.0284C533.943 82.3883 534.227 82.6345 534.577 82.767C534.928 82.8996 535.316 82.9659 535.742 82.9659C536.064 82.9659 536.358 82.9422 536.623 82.8949C536.897 82.8475 537.106 82.8049 537.248 82.767L538.114 86.7869C537.84 86.8816 537.447 86.9858 536.935 87.0994C536.433 87.2131 535.818 87.2794 535.089 87.2983C533.801 87.3362 532.641 87.142 531.609 86.7159C530.576 86.2803 529.757 85.608 529.151 84.6989C528.555 83.7898 528.261 82.6534 528.271 81.2898V59.9545ZM551.3 87.4261C549.169 87.4261 547.322 86.9574 545.76 86.0199C544.197 85.0824 542.985 83.7708 542.124 82.0852C541.271 80.3996 540.845 78.4299 540.845 76.1761C540.845 73.9223 541.271 71.9479 542.124 70.2528C542.985 68.5578 544.197 67.2415 545.76 66.304C547.322 65.3665 549.169 64.8977 551.3 64.8977C553.43 64.8977 555.277 65.3665 556.839 66.304C558.402 67.2415 559.609 68.5578 560.462 70.2528C561.323 71.9479 561.754 73.9223 561.754 76.1761C561.754 78.4299 561.323 80.3996 560.462 82.0852C559.609 83.7708 558.402 85.0824 556.839 86.0199C555.277 86.9574 553.43 87.4261 551.3 87.4261ZM551.328 83.3068C552.483 83.3068 553.449 82.9896 554.226 82.3551C555.002 81.7112 555.58 80.8494 555.959 79.7699C556.347 78.6903 556.541 77.4877 556.541 76.1619C556.541 74.8267 556.347 73.6193 555.959 72.5398C555.58 71.4508 555.002 70.5843 554.226 69.9403C553.449 69.2964 552.483 68.9744 551.328 68.9744C550.144 68.9744 549.16 69.2964 548.374 69.9403C547.597 70.5843 547.015 71.4508 546.626 72.5398C546.248 73.6193 546.058 74.8267 546.058 76.1619C546.058 77.4877 546.248 78.6903 546.626 79.7699C547.015 80.8494 547.597 81.7112 548.374 82.3551C549.16 82.9896 550.144 83.3068 551.328 83.3068ZM575.778 87.4261C573.59 87.4261 571.701 86.9716 570.11 86.0625C568.529 85.1439 567.312 83.8466 566.46 82.1705C565.607 80.4848 565.181 78.5009 565.181 76.2188C565.181 73.9744 565.607 72.0047 566.46 70.3097C567.321 68.6051 568.524 67.2794 570.067 66.3324C571.611 65.3759 573.424 64.8977 575.508 64.8977C576.853 64.8977 578.121 65.1155 579.315 65.5511C580.517 65.9773 581.578 66.6402 582.496 67.5398C583.424 68.4394 584.154 69.5852 584.684 70.9773C585.214 72.3598 585.479 74.0076 585.479 75.9205V77.4972H567.596V74.0312H580.55C580.541 73.0464 580.328 72.1705 579.911 71.4034C579.495 70.6269 578.912 70.0161 578.164 69.571C577.425 69.1259 576.564 68.9034 575.579 68.9034C574.528 68.9034 573.604 69.1591 572.809 69.6705C572.013 70.1723 571.393 70.8352 570.948 71.6591C570.513 72.4735 570.29 73.3684 570.281 74.3438V77.3693C570.281 78.6383 570.513 79.7273 570.977 80.6364C571.441 81.536 572.089 82.2273 572.923 82.7102C573.756 83.1837 574.731 83.4205 575.849 83.4205C576.597 83.4205 577.274 83.3163 577.88 83.108C578.486 82.8902 579.012 82.5729 579.457 82.1562C579.902 81.7396 580.238 81.2235 580.465 80.608L585.266 81.1477C584.963 82.4167 584.386 83.5246 583.533 84.4716C582.691 85.4091 581.611 86.1383 580.295 86.6591C578.978 87.1705 577.473 87.4261 575.778 87.4261ZM594.972 57.9091V87H589.83V57.9091H594.972ZM609.918 87.4261C607.731 87.4261 605.842 86.9716 604.251 86.0625C602.669 85.1439 601.452 83.8466 600.6 82.1705C599.748 80.4848 599.322 78.5009 599.322 76.2188C599.322 73.9744 599.748 72.0047 600.6 70.3097C601.462 68.6051 602.665 67.2794 604.208 66.3324C605.752 65.3759 607.565 64.8977 609.648 64.8977C610.993 64.8977 612.262 65.1155 613.455 65.5511C614.658 65.9773 615.719 66.6402 616.637 67.5398C617.565 68.4394 618.294 69.5852 618.825 70.9773C619.355 72.3598 619.62 74.0076 619.62 75.9205V77.4972H601.737V74.0312H614.691C614.682 73.0464 614.469 72.1705 614.052 71.4034C613.635 70.6269 613.053 70.0161 612.305 69.571C611.566 69.1259 610.704 68.9034 609.719 68.9034C608.668 68.9034 607.745 69.1591 606.95 69.6705C606.154 70.1723 605.534 70.8352 605.089 71.6591C604.653 72.4735 604.431 73.3684 604.421 74.3438V77.3693C604.421 78.6383 604.653 79.7273 605.117 80.6364C605.581 81.536 606.23 82.2273 607.063 82.7102C607.897 83.1837 608.872 83.4205 609.989 83.4205C610.737 83.4205 611.415 83.3163 612.021 83.108C612.627 82.8902 613.152 82.5729 613.597 82.1562C614.042 81.7396 614.379 81.2235 614.606 80.608L619.407 81.1477C619.104 82.4167 618.526 83.5246 617.674 84.4716C616.831 85.4091 615.752 86.1383 614.435 86.6591C613.119 87.1705 611.613 87.4261 609.918 87.4261ZM633.487 87.4261C631.309 87.4261 629.439 86.9479 627.876 85.9915C626.323 85.035 625.125 83.714 624.283 82.0284C623.449 80.3333 623.033 78.3826 623.033 76.1761C623.033 73.9602 623.459 72.0047 624.311 70.3097C625.163 68.6051 626.366 67.2794 627.919 66.3324C629.482 65.3759 631.328 64.8977 633.459 64.8977C635.23 64.8977 636.797 65.2244 638.161 65.8778C639.534 66.5218 640.627 67.4356 641.442 68.6193C642.256 69.7936 642.72 71.1667 642.834 72.7386H637.919C637.72 71.6875 637.247 70.8116 636.499 70.1108C635.76 69.4006 634.77 69.0455 633.53 69.0455C632.479 69.0455 631.555 69.3295 630.76 69.8977C629.964 70.4564 629.344 71.2614 628.899 72.3125C628.464 73.3636 628.246 74.6231 628.246 76.0909C628.246 77.5777 628.464 78.8561 628.899 79.9261C629.335 80.9867 629.946 81.8059 630.732 82.3835C631.527 82.9517 632.46 83.2358 633.53 83.2358C634.287 83.2358 634.964 83.0937 635.561 82.8097C636.167 82.5161 636.674 82.0947 637.081 81.5455C637.488 80.9962 637.768 80.3286 637.919 79.5426H642.834C642.711 81.0862 642.256 82.4545 641.47 83.6477C640.684 84.8314 639.614 85.7595 638.26 86.4318C636.906 87.0947 635.315 87.4261 633.487 87.4261ZM657.951 65.1818V69.1591H645.408V65.1818H657.951ZM648.505 59.9545H653.647V80.4375C653.647 81.1288 653.751 81.6591 653.96 82.0284C654.177 82.3883 654.461 82.6345 654.812 82.767C655.162 82.8996 655.55 82.9659 655.977 82.9659C656.299 82.9659 656.592 82.9422 656.857 82.8949C657.132 82.8475 657.34 82.8049 657.482 82.767L658.349 86.7869C658.074 86.8816 657.681 86.9858 657.17 87.0994C656.668 87.2131 656.052 87.2794 655.323 87.2983C654.035 87.3362 652.875 87.142 651.843 86.7159C650.811 86.2803 649.992 85.608 649.386 84.6989C648.789 83.7898 648.496 82.6534 648.505 81.2898V59.9545ZM662.251 87V65.1818H667.237V68.8182H667.464C667.862 67.5587 668.544 66.5881 669.51 65.9062C670.485 65.215 671.598 64.8693 672.848 64.8693C673.132 64.8693 673.449 64.8835 673.8 64.9119C674.16 64.9309 674.458 64.964 674.695 65.0114V69.7415C674.477 69.6657 674.131 69.5994 673.658 69.5426C673.194 69.4763 672.744 69.4432 672.308 69.4432C671.371 69.4432 670.528 69.6468 669.78 70.054C669.041 70.4517 668.459 71.0057 668.033 71.7159C667.607 72.4261 667.393 73.2453 667.393 74.1733V87H662.251ZM678.111 87V65.1818H683.253V87H678.111ZM680.696 62.0852C679.882 62.0852 679.181 61.8153 678.594 61.2756C678.007 60.7263 677.713 60.0682 677.713 59.3011C677.713 58.5246 678.007 57.8665 678.594 57.3267C679.181 56.7775 679.882 56.5028 680.696 56.5028C681.52 56.5028 682.221 56.7775 682.798 57.3267C683.385 57.8665 683.679 58.5246 683.679 59.3011C683.679 60.0682 683.385 60.7263 682.798 61.2756C682.221 61.8153 681.52 62.0852 680.696 62.0852ZM698.058 87.4261C695.879 87.4261 694.009 86.9479 692.447 85.9915C690.894 85.035 689.696 83.714 688.853 82.0284C688.02 80.3333 687.603 78.3826 687.603 76.1761C687.603 73.9602 688.029 72.0047 688.881 70.3097C689.734 68.6051 690.936 67.2794 692.489 66.3324C694.052 65.3759 695.898 64.8977 698.029 64.8977C699.8 64.8977 701.367 65.2244 702.731 65.8778C704.104 66.5218 705.198 67.4356 706.012 68.6193C706.826 69.7936 707.29 71.1667 707.404 72.7386H702.489C702.29 71.6875 701.817 70.8116 701.069 70.1108C700.33 69.4006 699.341 69.0455 698.1 69.0455C697.049 69.0455 696.126 69.3295 695.33 69.8977C694.535 70.4564 693.915 71.2614 693.469 72.3125C693.034 73.3636 692.816 74.6231 692.816 76.0909C692.816 77.5777 693.034 78.8561 693.469 79.9261C693.905 80.9867 694.516 81.8059 695.302 82.3835C696.097 82.9517 697.03 83.2358 698.1 83.2358C698.858 83.2358 699.535 83.0937 700.131 82.8097C700.737 82.5161 701.244 82.0947 701.651 81.5455C702.058 80.9962 702.338 80.3286 702.489 79.5426H707.404C707.281 81.0862 706.826 82.4545 706.04 83.6477C705.254 84.8314 704.184 85.7595 702.83 86.4318C701.476 87.0947 699.885 87.4261 698.058 87.4261ZM721.776 87V57.9091H740.696V62.3267H727.045V70.2244H739.716V74.642H727.045V82.5824H740.81V87H721.776ZM756.896 65.1818V69.1591H743.999V65.1818H756.896ZM747.223 87V63.1222C747.223 61.6544 747.526 60.4328 748.132 59.4574C748.748 58.482 749.571 57.7528 750.604 57.2699C751.636 56.7869 752.782 56.5455 754.041 56.5455C754.931 56.5455 755.722 56.6165 756.413 56.7585C757.105 56.9006 757.616 57.0284 757.947 57.142L756.925 61.1193C756.707 61.053 756.432 60.9867 756.101 60.9205C755.769 60.8447 755.4 60.8068 754.993 60.8068C754.036 60.8068 753.359 61.0388 752.962 61.5028C752.573 61.9574 752.379 62.6108 752.379 63.4631V87H747.223ZM771.974 65.1818V69.1591H759.077V65.1818H771.974ZM762.301 87V63.1222C762.301 61.6544 762.604 60.4328 763.21 59.4574C763.826 58.482 764.65 57.7528 765.682 57.2699C766.714 56.7869 767.86 56.5455 769.119 56.5455C770.009 56.5455 770.8 56.6165 771.491 56.7585C772.183 56.9006 772.694 57.0284 773.026 57.142L772.003 61.1193C771.785 61.053 771.51 60.9867 771.179 60.9205C770.848 60.8447 770.478 60.8068 770.071 60.8068C769.115 60.8068 768.438 61.0388 768.04 61.5028C767.652 61.9574 767.457 62.6108 767.457 63.4631V87H762.301ZM784.84 87.4261C782.653 87.4261 780.763 86.9716 779.173 86.0625C777.591 85.1439 776.374 83.8466 775.522 82.1705C774.67 80.4848 774.244 78.5009 774.244 76.2188C774.244 73.9744 774.67 72.0047 775.522 70.3097C776.384 68.6051 777.586 67.2794 779.13 66.3324C780.674 65.3759 782.487 64.8977 784.57 64.8977C785.915 64.8977 787.184 65.1155 788.377 65.5511C789.58 65.9773 790.64 66.6402 791.559 67.5398C792.487 68.4394 793.216 69.5852 793.746 70.9773C794.277 72.3598 794.542 74.0076 794.542 75.9205V77.4972H776.658V74.0312H789.613C789.603 73.0464 789.39 72.1705 788.974 71.4034C788.557 70.6269 787.975 70.0161 787.227 69.571C786.488 69.1259 785.626 68.9034 784.641 68.9034C783.59 68.9034 782.667 69.1591 781.871 69.6705C781.076 70.1723 780.456 70.8352 780.011 71.6591C779.575 72.4735 779.353 73.3684 779.343 74.3438V77.3693C779.343 78.6383 779.575 79.7273 780.039 80.6364C780.503 81.536 781.152 82.2273 781.985 82.7102C782.818 83.1837 783.794 83.4205 784.911 83.4205C785.659 83.4205 786.336 83.3163 786.942 83.108C787.549 82.8902 788.074 82.5729 788.519 82.1562C788.964 81.7396 789.3 81.2235 789.528 80.608L794.329 81.1477C794.026 82.4167 793.448 83.5246 792.596 84.4716C791.753 85.4091 790.674 86.1383 789.357 86.6591C788.041 87.1705 786.535 87.4261 784.84 87.4261ZM808.409 87.4261C806.231 87.4261 804.361 86.9479 802.798 85.9915C801.245 85.035 800.047 83.714 799.205 82.0284C798.371 80.3333 797.955 78.3826 797.955 76.1761C797.955 73.9602 798.381 72.0047 799.233 70.3097C800.085 68.6051 801.288 67.2794 802.841 66.3324C804.403 65.3759 806.25 64.8977 808.381 64.8977C810.152 64.8977 811.719 65.2244 813.082 65.8778C814.455 66.5218 815.549 67.4356 816.364 68.6193C817.178 69.7936 817.642 71.1667 817.756 72.7386H812.841C812.642 71.6875 812.169 70.8116 811.42 70.1108C810.682 69.4006 809.692 69.0455 808.452 69.0455C807.401 69.0455 806.477 69.3295 805.682 69.8977C804.886 70.4564 804.266 71.2614 803.821 72.3125C803.385 73.3636 803.168 74.6231 803.168 76.0909C803.168 77.5777 803.385 78.8561 803.821 79.9261C804.257 80.9867 804.867 81.8059 805.653 82.3835C806.449 82.9517 807.382 83.2358 808.452 83.2358C809.209 83.2358 809.886 83.0937 810.483 82.8097C811.089 82.5161 811.596 82.0947 812.003 81.5455C812.41 80.9962 812.689 80.3286 812.841 79.5426H817.756C817.633 81.0862 817.178 82.4545 816.392 83.6477C815.606 84.8314 814.536 85.7595 813.182 86.4318C811.828 87.0947 810.237 87.4261 808.409 87.4261ZM832.873 65.1818V69.1591H820.33V65.1818H832.873ZM823.427 59.9545H828.569V80.4375C828.569 81.1288 828.673 81.6591 828.881 82.0284C829.099 82.3883 829.383 82.6345 829.734 82.767C830.084 82.8996 830.472 82.9659 830.898 82.9659C831.22 82.9659 831.514 82.9422 831.779 82.8949C832.054 82.8475 832.262 82.8049 832.404 82.767L833.271 86.7869C832.996 86.8816 832.603 86.9858 832.092 87.0994C831.59 87.2131 830.974 87.2794 830.245 87.2983C828.957 87.3362 827.797 87.142 826.765 86.7159C825.733 86.2803 824.914 85.608 824.308 84.6989C823.711 83.7898 823.417 82.6534 823.427 81.2898V59.9545Z" fill="black"/>
<path d="M420.714 456.394C421.565 456.569 422.383 456.086 422.541 455.316L425.117 442.768C425.275 441.998 424.714 441.232 423.863 441.057C423.012 440.882 422.194 441.365 422.036 442.135L419.746 453.289L407.42 450.759C406.569 450.584 405.751 451.067 405.593 451.837C405.434 452.607 405.996 453.372 406.847 453.547L420.714 456.394ZM254.708 230.762L419.708 455.762L422.292 454.238L257.292 229.238L254.708 230.762Z" fill="#EB8A30"/>
<path d="M337.714 456.394C338.565 456.569 339.383 456.086 339.541 455.316L342.117 442.768C342.275 441.998 341.714 441.232 340.863 441.057C340.012 440.882 339.194 441.365 339.036 442.135L336.746 453.289L324.42 450.759C323.569 450.584 322.751 451.067 322.593 451.837C322.434 452.607 322.996 453.372 323.847 453.547L337.714 456.394ZM171.708 230.762L336.708 455.762L339.292 454.238L174.292 229.238L171.708 230.762Z" fill="#EB8A30"/>
<path d="M255.714 456.394C256.565 456.569 257.383 456.086 257.541 455.316L260.117 442.768C260.275 441.998 259.714 441.232 258.863 441.057C258.012 440.882 257.194 441.365 257.036 442.135L254.746 453.289L242.42 450.759C241.569 450.584 240.751 451.067 240.593 451.837C240.434 452.607 240.996 453.372 241.847 453.547L255.714 456.394ZM89.7081 230.762L254.708 455.762L257.292 454.238L92.2919 229.238L89.7081 230.762Z" fill="#EB8A30"/>
</svg>
