<svg width="800" height="500" viewBox="0 0 1700 1100" fill="none" xmlns="http://www.w3.org/2000/svg">
<path d="M1322 245.954C1322 366.115 1183.66 347.832 826.687 347.832C469.716 347.832 322 366.115 322 245.954C322 125.792 469.716 142.832 826.687 142.832C1183.66 142.832 1322 125.792 1322 245.954Z" fill="#D9D9D9"/>
<line x1="1242" y1="244" x2="1572" y2="244" stroke="black" stroke-width="2"/>
<line x1="77" y1="245" x2="77" y2="645" stroke="black" stroke-width="2"/>
<line x1="1344" y1="840" x2="1344" y2="1047" stroke="black" stroke-width="2"/>
<line x1="177" y1="843" x2="177" y2="1049" stroke="black" stroke-width="2"/>
<line x1="1573" y1="243" x2="1573" y2="643" stroke="black" stroke-width="2"/>
<line x1="76" y1="244" x2="406" y2="244" stroke="black" stroke-width="2"/>
<rect x="406" y="170" width="50" height="150" fill="#C4BEBE"/>
<rect x="967" y="804" width="20" height="80" fill="black"/>
<rect x="1030" y="803" width="20" height="80" fill="black"/>
<rect x="1093" y="803" width="20" height="80" fill="black"/>
<rect x="1192" y="170" width="50" height="150" fill="#C4BEBE"/>
<line x1="75.9987" y1="644" x2="1572" y2="642.007" stroke="black" stroke-width="2"/>
<line x1="175.997" y1="1049.99" x2="1343" y2="1046" stroke="black" stroke-width="2"/>
<circle cx="1572" cy="445" r="75" fill="#D9D9D9"/>
<path d="M1558.07 466H1552.53L1568.56 422.364H1574.01L1590.03 466H1584.49L1571.45 429.267H1571.11L1558.07 466ZM1560.12 448.955H1582.45V453.642H1560.12V448.955Z" fill="black"/>
<path d="M1558.07 466H1552.53L1568.56 422.364H1574.01L1590.03 466H1584.49L1571.45 429.267H1571.11L1558.07 466ZM1560.12 448.955H1582.45V453.642H1560.12V448.955Z" fill="black"/>
<circle cx="1177" cy="645" r="75" fill="#D9D9D9"/>
<path d="M1163.07 622.364L1176.03 659.097H1176.54L1189.49 622.364H1195.03L1179.01 666H1173.56L1157.53 622.364H1163.07Z" fill="black"/>
<path d="M560.939 820.061C561.525 820.646 562.475 820.646 563.061 820.061L572.607 810.515C573.192 809.929 573.192 808.979 572.607 808.393C572.021 807.808 571.071 807.808 570.485 808.393L562 816.879L553.515 808.393C552.929 807.808 551.979 807.808 551.393 808.393C550.808 808.979 550.808 809.929 551.393 810.515L560.939 820.061ZM560.5 645V819H563.5V645H560.5Z" fill="black"/>
<line x1="176.004" y1="842" x2="406.004" y2="843" stroke="black" stroke-width="2"/>
<line x1="715.996" y1="843" x2="945.996" y2="842" stroke="black" stroke-width="2"/>
<line x1="1113" y1="842" x2="1343" y2="841" stroke="black" stroke-width="2"/>
<path d="M425 823L405 843" stroke="black" stroke-width="3" stroke-miterlimit="2.61313"/>
<path d="M716 844L696 864" stroke="black" stroke-width="3" stroke-miterlimit="2.61313"/>
<path d="M618 864L658 824" stroke="black" stroke-width="3" stroke-miterlimit="2.61313"/>
<path d="M540 864L580 824" stroke="black" stroke-width="3" stroke-miterlimit="2.61313"/>
<path d="M579 824L619 864" stroke="black" stroke-width="3" stroke-miterlimit="2.61313"/>
<path d="M502 824L542 864" stroke="black" stroke-width="3" stroke-miterlimit="2.61313"/>
<path d="M424 823L464 863" stroke="black" stroke-width="3" stroke-miterlimit="2.61313"/>
<path d="M657 824L697 864" stroke="black" stroke-width="3" stroke-miterlimit="2.61313"/>
<path d="M463 863L503 823" stroke="black" stroke-width="3" stroke-miterlimit="2.61313"/>
<line x1="947.5" y1="783.004" x2="946.5" y2="903.004" stroke="black"/>
<line x1="1009.5" y1="783.004" x2="1008.5" y2="903.004" stroke="black"/>
<line x1="1072.5" y1="783.004" x2="1071.5" y2="903.004" stroke="black"/>
<line x1="981" y1="842.5" x2="1009" y2="842.5" stroke="black"/>
<line x1="1044" y1="842.5" x2="1072" y2="842.5" stroke="black"/>
<path d="M373.716 133H370.023L380.705 103.909H384.341L395.023 133H391.33L382.636 108.511H382.409L373.716 133ZM375.08 121.636H389.966V124.761H375.08V121.636ZM402.452 119.875V133H399.099V111.182H402.338V114.591H402.622C403.134 113.483 403.91 112.593 404.952 111.92C405.993 111.239 407.338 110.898 408.986 110.898C410.463 110.898 411.756 111.201 412.864 111.807C413.972 112.403 414.833 113.312 415.449 114.534C416.064 115.746 416.372 117.28 416.372 119.136V133H413.02V119.364C413.02 117.65 412.575 116.314 411.685 115.358C410.795 114.392 409.573 113.909 408.02 113.909C406.95 113.909 405.993 114.141 405.151 114.605C404.317 115.069 403.659 115.746 403.176 116.636C402.693 117.527 402.452 118.606 402.452 119.875ZM431.362 133.455C429.392 133.455 427.664 132.986 426.177 132.048C424.7 131.111 423.544 129.799 422.711 128.114C421.887 126.428 421.475 124.458 421.475 122.205C421.475 119.932 421.887 117.948 422.711 116.253C423.544 114.558 424.7 113.241 426.177 112.304C427.664 111.366 429.392 110.898 431.362 110.898C433.331 110.898 435.055 111.366 436.532 112.304C438.019 113.241 439.174 114.558 439.998 116.253C440.831 117.948 441.248 119.932 441.248 122.205C441.248 124.458 440.831 126.428 439.998 128.114C439.174 129.799 438.019 131.111 436.532 132.048C435.055 132.986 433.331 133.455 431.362 133.455ZM431.362 130.443C432.858 130.443 434.089 130.06 435.055 129.293C436.021 128.526 436.736 127.517 437.2 126.267C437.664 125.017 437.896 123.663 437.896 122.205C437.896 120.746 437.664 119.387 437.2 118.128C436.736 116.868 436.021 115.85 435.055 115.074C434.089 114.297 432.858 113.909 431.362 113.909C429.865 113.909 428.634 114.297 427.668 115.074C426.702 115.85 425.987 116.868 425.523 118.128C425.059 119.387 424.827 120.746 424.827 122.205C424.827 123.663 425.059 125.017 425.523 126.267C425.987 127.517 426.702 128.526 427.668 129.293C428.634 130.06 429.865 130.443 431.362 130.443ZM454.604 133.455C452.786 133.455 451.18 132.995 449.788 132.077C448.396 131.149 447.307 129.842 446.521 128.156C445.735 126.461 445.342 124.458 445.342 122.148C445.342 119.856 445.735 117.867 446.521 116.182C447.307 114.496 448.401 113.194 449.803 112.276C451.204 111.357 452.823 110.898 454.661 110.898C456.081 110.898 457.203 111.134 458.027 111.608C458.86 112.072 459.495 112.602 459.93 113.199C460.375 113.786 460.721 114.269 460.967 114.648H461.251V103.909H464.604V133H461.365V129.648H460.967C460.721 130.045 460.371 130.547 459.916 131.153C459.462 131.75 458.813 132.285 457.97 132.759C457.127 133.223 456.005 133.455 454.604 133.455ZM455.058 130.443C456.403 130.443 457.539 130.093 458.467 129.392C459.395 128.682 460.101 127.702 460.584 126.452C461.067 125.192 461.308 123.739 461.308 122.091C461.308 120.462 461.071 119.037 460.598 117.815C460.125 116.584 459.424 115.628 458.496 114.946C457.568 114.255 456.422 113.909 455.058 113.909C453.638 113.909 452.454 114.274 451.507 115.003C450.57 115.723 449.864 116.703 449.391 117.943C448.927 119.174 448.695 120.557 448.695 122.091C448.695 123.644 448.931 125.055 449.405 126.324C449.888 127.583 450.598 128.587 451.536 129.335C452.482 130.074 453.657 130.443 455.058 130.443ZM480.357 133.455C478.254 133.455 476.441 132.991 474.916 132.062C473.401 131.125 472.232 129.818 471.408 128.142C470.593 126.456 470.186 124.496 470.186 122.261C470.186 120.027 470.593 118.057 471.408 116.352C472.232 114.638 473.377 113.303 474.845 112.347C476.322 111.381 478.046 110.898 480.016 110.898C481.152 110.898 482.274 111.087 483.382 111.466C484.49 111.845 485.499 112.46 486.408 113.312C487.317 114.155 488.041 115.273 488.581 116.665C489.121 118.057 489.391 119.771 489.391 121.807V123.227H472.572V120.33H485.982C485.982 119.098 485.735 118 485.243 117.034C484.76 116.068 484.069 115.306 483.169 114.747C482.279 114.188 481.228 113.909 480.016 113.909C478.68 113.909 477.525 114.241 476.55 114.903C475.584 115.557 474.84 116.409 474.32 117.46C473.799 118.511 473.538 119.638 473.538 120.841V122.773C473.538 124.42 473.822 125.817 474.391 126.963C474.968 128.099 475.768 128.966 476.791 129.562C477.814 130.15 479.002 130.443 480.357 130.443C481.237 130.443 482.033 130.32 482.743 130.074C483.463 129.818 484.083 129.439 484.604 128.938C485.125 128.426 485.527 127.792 485.811 127.034L489.05 127.943C488.709 129.042 488.136 130.008 487.331 130.841C486.526 131.665 485.532 132.309 484.348 132.773C483.164 133.227 481.834 133.455 480.357 133.455Z" fill="black"/>
<path d="M1172.93 113H1169.41C1169.2 111.987 1168.84 111.097 1168.32 110.33C1167.8 109.562 1167.18 108.919 1166.44 108.398C1165.71 107.867 1164.9 107.47 1164.01 107.205C1163.12 106.939 1162.19 106.807 1161.23 106.807C1159.47 106.807 1157.87 107.252 1156.44 108.142C1155.02 109.032 1153.89 110.344 1153.05 112.077C1152.21 113.81 1151.8 115.936 1151.8 118.455C1151.8 120.973 1152.21 123.099 1153.05 124.832C1153.89 126.565 1155.02 127.877 1156.44 128.767C1157.87 129.657 1159.47 130.102 1161.23 130.102C1162.19 130.102 1163.12 129.97 1164.01 129.705C1164.9 129.439 1165.71 129.046 1166.44 128.526C1167.18 127.995 1167.8 127.347 1168.32 126.58C1168.84 125.803 1169.2 124.913 1169.41 123.909H1172.93C1172.67 125.396 1172.18 126.726 1171.48 127.901C1170.78 129.075 1169.91 130.074 1168.87 130.898C1167.83 131.712 1166.66 132.332 1165.36 132.759C1164.07 133.185 1162.7 133.398 1161.23 133.398C1158.75 133.398 1156.54 132.792 1154.61 131.58C1152.68 130.367 1151.16 128.644 1150.05 126.409C1148.94 124.174 1148.39 121.523 1148.39 118.455C1148.39 115.386 1148.94 112.735 1150.05 110.5C1151.16 108.265 1152.68 106.542 1154.61 105.33C1156.54 104.117 1158.75 103.511 1161.23 103.511C1162.7 103.511 1164.07 103.724 1165.36 104.151C1166.66 104.577 1167.83 105.202 1168.87 106.026C1169.91 106.84 1170.78 107.834 1171.48 109.009C1172.18 110.173 1172.67 111.504 1172.93 113ZM1184.59 133.511C1183.21 133.511 1181.95 133.251 1180.83 132.73C1179.7 132.2 1178.8 131.438 1178.14 130.443C1177.48 129.439 1177.15 128.227 1177.15 126.807C1177.15 125.557 1177.39 124.544 1177.89 123.767C1178.38 122.981 1179.04 122.366 1179.86 121.92C1180.68 121.475 1181.59 121.144 1182.59 120.926C1183.59 120.699 1184.6 120.519 1185.61 120.386C1186.94 120.216 1188.01 120.088 1188.84 120.003C1189.67 119.908 1190.28 119.752 1190.66 119.534C1191.04 119.316 1191.24 118.937 1191.24 118.398V118.284C1191.24 116.883 1190.85 115.794 1190.09 115.017C1189.33 114.241 1188.18 113.852 1186.64 113.852C1185.04 113.852 1183.78 114.203 1182.87 114.903C1181.96 115.604 1181.32 116.352 1180.95 117.148L1177.77 116.011C1178.34 114.686 1179.1 113.653 1180.04 112.915C1181 112.167 1182.04 111.646 1183.17 111.352C1184.31 111.049 1185.42 110.898 1186.52 110.898C1187.22 110.898 1188.03 110.983 1188.94 111.153C1189.86 111.314 1190.74 111.651 1191.59 112.162C1192.45 112.673 1193.17 113.445 1193.74 114.477C1194.31 115.509 1194.59 116.892 1194.59 118.625V133H1191.24V130.045H1191.07C1190.84 130.519 1190.46 131.026 1189.93 131.565C1189.4 132.105 1188.7 132.564 1187.81 132.943C1186.93 133.322 1185.86 133.511 1184.59 133.511ZM1185.1 130.5C1186.43 130.5 1187.54 130.24 1188.45 129.719C1189.37 129.198 1190.06 128.526 1190.53 127.702C1191 126.878 1191.24 126.011 1191.24 125.102V122.034C1191.1 122.205 1190.78 122.361 1190.3 122.503C1189.83 122.635 1189.28 122.754 1188.65 122.858C1188.04 122.953 1187.44 123.038 1186.85 123.114C1186.27 123.18 1185.8 123.237 1185.44 123.284C1184.57 123.398 1183.76 123.582 1183 123.838C1182.25 124.084 1181.65 124.458 1181.18 124.96C1180.73 125.453 1180.5 126.125 1180.5 126.977C1180.5 128.142 1180.93 129.023 1181.79 129.619C1182.66 130.206 1183.77 130.5 1185.1 130.5ZM1210.2 111.182V114.023H1198.89V111.182H1210.2ZM1202.19 105.955H1205.54V126.75C1205.54 127.697 1205.68 128.407 1205.95 128.881C1206.23 129.345 1206.59 129.657 1207.03 129.818C1207.47 129.97 1207.94 130.045 1208.44 130.045C1208.81 130.045 1209.11 130.027 1209.35 129.989C1209.58 129.941 1209.77 129.903 1209.91 129.875L1210.6 132.886C1210.37 132.972 1210.05 133.057 1209.64 133.142C1209.24 133.237 1208.72 133.284 1208.1 133.284C1207.15 133.284 1206.22 133.08 1205.31 132.673C1204.41 132.266 1203.66 131.646 1203.07 130.812C1202.48 129.979 1202.19 128.928 1202.19 127.659V105.955ZM1219.06 119.875V133H1215.71V103.909H1219.06V114.591H1219.35C1219.86 113.464 1220.62 112.569 1221.65 111.906C1222.68 111.234 1224.05 110.898 1225.77 110.898C1227.25 110.898 1228.55 111.196 1229.67 111.793C1230.79 112.38 1231.66 113.284 1232.27 114.506C1232.9 115.718 1233.21 117.261 1233.21 119.136V133H1229.86V119.364C1229.86 117.631 1229.41 116.291 1228.51 115.344C1227.62 114.387 1226.38 113.909 1224.8 113.909C1223.7 113.909 1222.72 114.141 1221.85 114.605C1220.98 115.069 1220.3 115.746 1219.8 116.636C1219.31 117.527 1219.06 118.606 1219.06 119.875ZM1248.21 133.455C1246.24 133.455 1244.51 132.986 1243.02 132.048C1241.54 131.111 1240.39 129.799 1239.55 128.114C1238.73 126.428 1238.32 124.458 1238.32 122.205C1238.32 119.932 1238.73 117.948 1239.55 116.253C1240.39 114.558 1241.54 113.241 1243.02 112.304C1244.51 111.366 1246.24 110.898 1248.21 110.898C1250.17 110.898 1251.9 111.366 1253.38 112.304C1254.86 113.241 1256.02 114.558 1256.84 116.253C1257.67 117.948 1258.09 119.932 1258.09 122.205C1258.09 124.458 1257.67 126.428 1256.84 128.114C1256.02 129.799 1254.86 131.111 1253.38 132.048C1251.9 132.986 1250.17 133.455 1248.21 133.455ZM1248.21 130.443C1249.7 130.443 1250.93 130.06 1251.9 129.293C1252.86 128.526 1253.58 127.517 1254.04 126.267C1254.51 125.017 1254.74 123.663 1254.74 122.205C1254.74 120.746 1254.51 119.387 1254.04 118.128C1253.58 116.868 1252.86 115.85 1251.9 115.074C1250.93 114.297 1249.7 113.909 1248.21 113.909C1246.71 113.909 1245.48 114.297 1244.51 115.074C1243.55 115.85 1242.83 116.868 1242.37 118.128C1241.9 119.387 1241.67 120.746 1241.67 122.205C1241.67 123.663 1241.9 125.017 1242.37 126.267C1242.83 127.517 1243.55 128.526 1244.51 129.293C1245.48 130.06 1246.71 130.443 1248.21 130.443ZM1271.45 133.455C1269.63 133.455 1268.02 132.995 1266.63 132.077C1265.24 131.149 1264.15 129.842 1263.37 128.156C1262.58 126.461 1262.19 124.458 1262.19 122.148C1262.19 119.856 1262.58 117.867 1263.37 116.182C1264.15 114.496 1265.24 113.194 1266.65 112.276C1268.05 111.357 1269.67 110.898 1271.5 110.898C1272.92 110.898 1274.05 111.134 1274.87 111.608C1275.7 112.072 1276.34 112.602 1276.77 113.199C1277.22 113.786 1277.56 114.269 1277.81 114.648H1278.1V103.909H1281.45V133H1278.21V129.648H1277.81C1277.56 130.045 1277.21 130.547 1276.76 131.153C1276.31 131.75 1275.66 132.285 1274.81 132.759C1273.97 133.223 1272.85 133.455 1271.45 133.455ZM1271.9 130.443C1273.25 130.443 1274.38 130.093 1275.31 129.392C1276.24 128.682 1276.94 127.702 1277.43 126.452C1277.91 125.192 1278.15 123.739 1278.15 122.091C1278.15 120.462 1277.92 119.037 1277.44 117.815C1276.97 116.584 1276.27 115.628 1275.34 114.946C1274.41 114.255 1273.27 113.909 1271.9 113.909C1270.48 113.909 1269.3 114.274 1268.35 115.003C1267.41 115.723 1266.71 116.703 1266.23 117.943C1265.77 119.174 1265.54 120.557 1265.54 122.091C1265.54 123.644 1265.78 125.055 1266.25 126.324C1266.73 127.583 1267.44 128.587 1268.38 129.335C1269.33 130.074 1270.5 130.443 1271.9 130.443ZM1297.2 133.455C1295.1 133.455 1293.28 132.991 1291.76 132.062C1290.24 131.125 1289.08 129.818 1288.25 128.142C1287.44 126.456 1287.03 124.496 1287.03 122.261C1287.03 120.027 1287.44 118.057 1288.25 116.352C1289.08 114.638 1290.22 113.303 1291.69 112.347C1293.17 111.381 1294.89 110.898 1296.86 110.898C1298 110.898 1299.12 111.087 1300.23 111.466C1301.33 111.845 1302.34 112.46 1303.25 113.312C1304.16 114.155 1304.88 115.273 1305.42 116.665C1305.96 118.057 1306.23 119.771 1306.23 121.807V123.227H1289.42V120.33H1302.83C1302.83 119.098 1302.58 118 1302.09 117.034C1301.6 116.068 1300.91 115.306 1300.01 114.747C1299.12 114.188 1298.07 113.909 1296.86 113.909C1295.52 113.909 1294.37 114.241 1293.39 114.903C1292.43 115.557 1291.68 116.409 1291.16 117.46C1290.64 118.511 1290.38 119.638 1290.38 120.841V122.773C1290.38 124.42 1290.67 125.817 1291.23 126.963C1291.81 128.099 1292.61 128.966 1293.63 129.562C1294.66 130.15 1295.85 130.443 1297.2 130.443C1298.08 130.443 1298.88 130.32 1299.59 130.074C1300.31 129.818 1300.93 129.439 1301.45 128.938C1301.97 128.426 1302.37 127.792 1302.65 127.034L1305.89 127.943C1305.55 129.042 1304.98 130.008 1304.17 130.841C1303.37 131.665 1302.38 132.309 1301.19 132.773C1300.01 133.227 1298.68 133.455 1297.2 133.455Z" fill="black"/>
<path d="M923.061 209.061C923.646 208.475 923.646 207.525 923.061 206.939L913.515 197.393C912.929 196.808 911.979 196.808 911.393 197.393C910.808 197.979 910.808 198.929 911.393 199.515L919.879 208L911.393 216.485C910.808 217.071 910.808 218.021 911.393 218.607C911.979 219.192 912.929 219.192 913.515 218.607L923.061 209.061ZM722 209.5L922 209.5L922 206.5L722 206.5L722 209.5Z" fill="#5AA6DE"/>
<path d="M925.061 284.061C925.646 283.475 925.646 282.525 925.061 281.939L915.515 272.393C914.929 271.808 913.979 271.808 913.393 272.393C912.808 272.979 912.808 273.929 913.393 274.515L921.879 283L913.393 291.485C912.808 292.071 912.808 293.021 913.393 293.607C913.979 294.192 914.929 294.192 915.515 293.607L925.061 284.061ZM724 284.5L924 284.5L924 281.5L724 281.5L724 284.5Z" fill="#5AA6DE"/>
<path d="M923.061 246.061C923.646 245.475 923.646 244.525 923.061 243.939L913.515 234.393C912.929 233.808 911.979 233.808 911.393 234.393C910.808 234.979 910.808 235.929 911.393 236.515L919.879 245L911.393 253.485C910.808 254.071 910.808 255.021 911.393 255.607C911.979 256.192 912.929 256.192 913.515 255.607L923.061 246.061ZM722 246.5L922 246.5L922 243.5L722 243.5L722 246.5Z" fill="#5AA6DE"/>
<path d="M634.818 400V376.727H648.773V379.227H637.636V387.091H647.727V389.591H637.636V400H634.818ZM655.918 376.727V400H653.236V376.727H655.918ZM667.92 400.364C666.345 400.364 664.962 399.989 663.773 399.239C662.591 398.489 661.667 397.439 661 396.091C660.341 394.742 660.011 393.167 660.011 391.364C660.011 389.545 660.341 387.958 661 386.602C661.667 385.246 662.591 384.193 663.773 383.443C664.962 382.693 666.345 382.318 667.92 382.318C669.496 382.318 670.875 382.693 672.057 383.443C673.246 384.193 674.17 385.246 674.83 386.602C675.496 387.958 675.83 389.545 675.83 391.364C675.83 393.167 675.496 394.742 674.83 396.091C674.17 397.439 673.246 398.489 672.057 399.239C670.875 399.989 669.496 400.364 667.92 400.364ZM667.92 397.955C669.117 397.955 670.102 397.648 670.875 397.034C671.648 396.42 672.22 395.614 672.591 394.614C672.962 393.614 673.148 392.53 673.148 391.364C673.148 390.197 672.962 389.11 672.591 388.102C672.22 387.095 671.648 386.28 670.875 385.659C670.102 385.038 669.117 384.727 667.92 384.727C666.723 384.727 665.739 385.038 664.966 385.659C664.193 386.28 663.621 387.095 663.25 388.102C662.879 389.11 662.693 390.197 662.693 391.364C662.693 392.53 662.879 393.614 663.25 394.614C663.621 395.614 664.193 396.42 664.966 397.034C665.739 397.648 666.723 397.955 667.92 397.955ZM683.284 400L677.966 382.545H680.784L684.557 395.909H684.739L688.466 382.545H691.33L695.011 395.864H695.193L698.966 382.545H701.784L696.466 400H693.83L690.011 386.591H689.739L685.92 400H683.284ZM721.42 400.364C719.845 400.364 718.462 399.989 717.273 399.239C716.091 398.489 715.167 397.439 714.5 396.091C713.841 394.742 713.511 393.167 713.511 391.364C713.511 389.545 713.841 387.958 714.5 386.602C715.167 385.246 716.091 384.193 717.273 383.443C718.462 382.693 719.845 382.318 721.42 382.318C722.996 382.318 724.375 382.693 725.557 383.443C726.746 384.193 727.67 385.246 728.33 386.602C728.996 387.958 729.33 389.545 729.33 391.364C729.33 393.167 728.996 394.742 728.33 396.091C727.67 397.439 726.746 398.489 725.557 399.239C724.375 399.989 722.996 400.364 721.42 400.364ZM721.42 397.955C722.617 397.955 723.602 397.648 724.375 397.034C725.148 396.42 725.72 395.614 726.091 394.614C726.462 393.614 726.648 392.53 726.648 391.364C726.648 390.197 726.462 389.11 726.091 388.102C725.72 387.095 725.148 386.28 724.375 385.659C723.602 385.038 722.617 384.727 721.42 384.727C720.223 384.727 719.239 385.038 718.466 385.659C717.693 386.28 717.121 387.095 716.75 388.102C716.379 389.11 716.193 390.197 716.193 391.364C716.193 392.53 716.379 393.614 716.75 394.614C717.121 395.614 717.693 396.42 718.466 397.034C719.239 397.648 720.223 397.955 721.42 397.955ZM741.196 382.545V384.818H731.787V382.545H741.196ZM734.605 400V380.136C734.605 379.136 734.84 378.303 735.31 377.636C735.779 376.97 736.389 376.47 737.139 376.136C737.889 375.803 738.681 375.636 739.514 375.636C740.173 375.636 740.711 375.689 741.128 375.795C741.545 375.902 741.855 376 742.06 376.091L741.287 378.409C741.151 378.364 740.961 378.307 740.719 378.239C740.484 378.17 740.173 378.136 739.787 378.136C738.901 378.136 738.26 378.36 737.866 378.807C737.48 379.254 737.287 379.909 737.287 380.773V400H734.605ZM754.318 400V376.727H762.182C764.008 376.727 765.5 377.057 766.659 377.716C767.826 378.367 768.689 379.25 769.25 380.364C769.811 381.477 770.091 382.72 770.091 384.091C770.091 385.462 769.811 386.708 769.25 387.83C768.697 388.951 767.841 389.845 766.682 390.511C765.523 391.17 764.038 391.5 762.227 391.5H756.591V389H762.136C763.386 389 764.39 388.784 765.148 388.352C765.905 387.92 766.455 387.337 766.795 386.602C767.144 385.86 767.318 385.023 767.318 384.091C767.318 383.159 767.144 382.326 766.795 381.591C766.455 380.856 765.902 380.28 765.136 379.864C764.371 379.439 763.356 379.227 762.091 379.227H757.136V400H754.318ZM776.949 389.5V400H774.267V376.727H776.949V385.273H777.176C777.585 384.371 778.199 383.655 779.017 383.125C779.843 382.587 780.941 382.318 782.312 382.318C783.502 382.318 784.544 382.557 785.438 383.034C786.331 383.504 787.025 384.227 787.517 385.205C788.017 386.174 788.267 387.409 788.267 388.909V400H785.585V389.091C785.585 387.705 785.225 386.633 784.506 385.875C783.794 385.11 782.805 384.727 781.54 384.727C780.661 384.727 779.873 384.913 779.176 385.284C778.487 385.655 777.941 386.197 777.54 386.909C777.146 387.621 776.949 388.485 776.949 389.5ZM800.264 400.364C798.688 400.364 797.306 399.989 796.116 399.239C794.935 398.489 794.01 397.439 793.344 396.091C792.685 394.742 792.355 393.167 792.355 391.364C792.355 389.545 792.685 387.958 793.344 386.602C794.01 385.246 794.935 384.193 796.116 383.443C797.306 382.693 798.688 382.318 800.264 382.318C801.84 382.318 803.219 382.693 804.401 383.443C805.59 384.193 806.514 385.246 807.173 386.602C807.84 387.958 808.173 389.545 808.173 391.364C808.173 393.167 807.84 394.742 807.173 396.091C806.514 397.439 805.59 398.489 804.401 399.239C803.219 399.989 801.84 400.364 800.264 400.364ZM800.264 397.955C801.461 397.955 802.446 397.648 803.219 397.034C803.991 396.42 804.563 395.614 804.935 394.614C805.306 393.614 805.491 392.53 805.491 391.364C805.491 390.197 805.306 389.11 804.935 388.102C804.563 387.095 803.991 386.28 803.219 385.659C802.446 385.038 801.461 384.727 800.264 384.727C799.067 384.727 798.082 385.038 797.31 385.659C796.537 386.28 795.965 387.095 795.594 388.102C795.223 389.11 795.037 390.197 795.037 391.364C795.037 392.53 795.223 393.614 795.594 394.614C795.965 395.614 796.537 396.42 797.31 397.034C798.082 397.648 799.067 397.955 800.264 397.955ZM819.858 382.545V384.818H810.812V382.545H819.858ZM813.449 378.364H816.131V395C816.131 395.758 816.241 396.326 816.46 396.705C816.688 397.076 816.975 397.326 817.324 397.455C817.68 397.576 818.055 397.636 818.449 397.636C818.744 397.636 818.987 397.621 819.176 397.591C819.366 397.553 819.517 397.523 819.631 397.5L820.176 399.909C819.994 399.977 819.741 400.045 819.415 400.114C819.089 400.189 818.676 400.227 818.176 400.227C817.419 400.227 816.676 400.064 815.949 399.739C815.229 399.413 814.631 398.917 814.153 398.25C813.684 397.583 813.449 396.742 813.449 395.727V378.364ZM830.795 400.364C829.22 400.364 827.837 399.989 826.648 399.239C825.466 398.489 824.542 397.439 823.875 396.091C823.216 394.742 822.886 393.167 822.886 391.364C822.886 389.545 823.216 387.958 823.875 386.602C824.542 385.246 825.466 384.193 826.648 383.443C827.837 382.693 829.22 382.318 830.795 382.318C832.371 382.318 833.75 382.693 834.932 383.443C836.121 384.193 837.045 385.246 837.705 386.602C838.371 387.958 838.705 389.545 838.705 391.364C838.705 393.167 838.371 394.742 837.705 396.091C837.045 397.439 836.121 398.489 834.932 399.239C833.75 399.989 832.371 400.364 830.795 400.364ZM830.795 397.955C831.992 397.955 832.977 397.648 833.75 397.034C834.523 396.42 835.095 395.614 835.466 394.614C835.837 393.614 836.023 392.53 836.023 391.364C836.023 390.197 835.837 389.11 835.466 388.102C835.095 387.095 834.523 386.28 833.75 385.659C832.977 385.038 831.992 384.727 830.795 384.727C829.598 384.727 828.614 385.038 827.841 385.659C827.068 386.28 826.496 387.095 826.125 388.102C825.754 389.11 825.568 390.197 825.568 391.364C825.568 392.53 825.754 393.614 826.125 394.614C826.496 395.614 827.068 396.42 827.841 397.034C828.614 397.648 829.598 397.955 830.795 397.955ZM850.116 400.364C848.435 400.364 846.984 399.992 845.764 399.25C844.552 398.5 843.616 397.455 842.957 396.114C842.306 394.765 841.98 393.197 841.98 391.409C841.98 389.621 842.306 388.045 842.957 386.682C843.616 385.311 844.533 384.242 845.707 383.477C846.889 382.705 848.268 382.318 849.844 382.318C850.753 382.318 851.651 382.47 852.537 382.773C853.423 383.076 854.23 383.568 854.957 384.25C855.685 384.924 856.264 385.818 856.696 386.932C857.128 388.045 857.344 389.417 857.344 391.045V392.182H843.889V389.864H854.616C854.616 388.879 854.42 388 854.026 387.227C853.639 386.455 853.086 385.845 852.366 385.398C851.654 384.951 850.813 384.727 849.844 384.727C848.776 384.727 847.851 384.992 847.071 385.523C846.298 386.045 845.704 386.727 845.287 387.568C844.87 388.409 844.662 389.311 844.662 390.273V391.818C844.662 393.136 844.889 394.254 845.344 395.17C845.806 396.08 846.446 396.773 847.264 397.25C848.082 397.72 849.033 397.955 850.116 397.955C850.821 397.955 851.457 397.856 852.026 397.659C852.601 397.455 853.098 397.152 853.514 396.75C853.931 396.341 854.253 395.833 854.48 395.227L857.071 395.955C856.798 396.833 856.34 397.606 855.696 398.273C855.052 398.932 854.257 399.447 853.31 399.818C852.363 400.182 851.298 400.364 850.116 400.364ZM864.105 376.727V400H861.423V376.727H864.105ZM876.335 400.364C874.653 400.364 873.203 399.992 871.983 399.25C870.771 398.5 869.835 397.455 869.176 396.114C868.525 394.765 868.199 393.197 868.199 391.409C868.199 389.621 868.525 388.045 869.176 386.682C869.835 385.311 870.752 384.242 871.926 383.477C873.108 382.705 874.487 382.318 876.062 382.318C876.972 382.318 877.869 382.47 878.756 382.773C879.642 383.076 880.449 383.568 881.176 384.25C881.903 384.924 882.483 385.818 882.915 386.932C883.347 388.045 883.562 389.417 883.562 391.045V392.182H870.108V389.864H880.835C880.835 388.879 880.638 388 880.244 387.227C879.858 386.455 879.305 385.845 878.585 385.398C877.873 384.951 877.032 384.727 876.062 384.727C874.994 384.727 874.07 384.992 873.29 385.523C872.517 386.045 871.922 386.727 871.506 387.568C871.089 388.409 870.881 389.311 870.881 390.273V391.818C870.881 393.136 871.108 394.254 871.562 395.17C872.025 396.08 872.665 396.773 873.483 397.25C874.301 397.72 875.252 397.955 876.335 397.955C877.04 397.955 877.676 397.856 878.244 397.659C878.82 397.455 879.316 397.152 879.733 396.75C880.15 396.341 880.472 395.833 880.699 395.227L883.29 395.955C883.017 396.833 882.559 397.606 881.915 398.273C881.271 398.932 880.475 399.447 879.528 399.818C878.581 400.182 877.517 400.364 876.335 400.364ZM894.733 400.364C893.097 400.364 891.688 399.977 890.506 399.205C889.324 398.432 888.415 397.367 887.778 396.011C887.142 394.655 886.824 393.106 886.824 391.364C886.824 389.591 887.15 388.027 887.801 386.67C888.46 385.307 889.377 384.242 890.551 383.477C891.733 382.705 893.112 382.318 894.688 382.318C895.915 382.318 897.021 382.545 898.006 383C898.991 383.455 899.797 384.091 900.426 384.909C901.055 385.727 901.445 386.682 901.597 387.773H898.915C898.71 386.977 898.256 386.273 897.551 385.659C896.854 385.038 895.915 384.727 894.733 384.727C893.688 384.727 892.771 385 891.983 385.545C891.203 386.083 890.593 386.845 890.153 387.83C889.722 388.807 889.506 389.955 889.506 391.273C889.506 392.621 889.718 393.795 890.142 394.795C890.574 395.795 891.18 396.572 891.96 397.125C892.748 397.678 893.672 397.955 894.733 397.955C895.43 397.955 896.062 397.833 896.631 397.591C897.199 397.348 897.68 397 898.074 396.545C898.468 396.091 898.748 395.545 898.915 394.909H901.597C901.445 395.939 901.07 396.867 900.472 397.693C899.881 398.511 899.097 399.163 898.119 399.648C897.15 400.125 896.021 400.364 894.733 400.364ZM913.108 382.545V384.818H904.062V382.545H913.108ZM906.699 378.364H909.381V395C909.381 395.758 909.491 396.326 909.71 396.705C909.938 397.076 910.225 397.326 910.574 397.455C910.93 397.576 911.305 397.636 911.699 397.636C911.994 397.636 912.237 397.621 912.426 397.591C912.616 397.553 912.767 397.523 912.881 397.5L913.426 399.909C913.244 399.977 912.991 400.045 912.665 400.114C912.339 400.189 911.926 400.227 911.426 400.227C910.669 400.227 909.926 400.064 909.199 399.739C908.479 399.413 907.881 398.917 907.403 398.25C906.934 397.583 906.699 396.742 906.699 395.727V378.364ZM917.142 400V382.545H919.733V385.182H919.915C920.233 384.318 920.809 383.617 921.642 383.08C922.475 382.542 923.415 382.273 924.46 382.273C924.657 382.273 924.903 382.277 925.199 382.284C925.494 382.292 925.718 382.303 925.869 382.318V385.045C925.778 385.023 925.57 384.989 925.244 384.943C924.926 384.89 924.589 384.864 924.233 384.864C923.384 384.864 922.627 385.042 921.96 385.398C921.301 385.746 920.778 386.231 920.392 386.852C920.013 387.466 919.824 388.167 919.824 388.955V400H917.142ZM935.608 400.364C934.032 400.364 932.65 399.989 931.46 399.239C930.278 398.489 929.354 397.439 928.688 396.091C928.028 394.742 927.699 393.167 927.699 391.364C927.699 389.545 928.028 387.958 928.688 386.602C929.354 385.246 930.278 384.193 931.46 383.443C932.65 382.693 934.032 382.318 935.608 382.318C937.184 382.318 938.563 382.693 939.744 383.443C940.934 384.193 941.858 385.246 942.517 386.602C943.184 387.958 943.517 389.545 943.517 391.364C943.517 393.167 943.184 394.742 942.517 396.091C941.858 397.439 940.934 398.489 939.744 399.239C938.563 399.989 937.184 400.364 935.608 400.364ZM935.608 397.955C936.805 397.955 937.79 397.648 938.562 397.034C939.335 396.42 939.907 395.614 940.278 394.614C940.65 393.614 940.835 392.53 940.835 391.364C940.835 390.197 940.65 389.11 940.278 388.102C939.907 387.095 939.335 386.28 938.562 385.659C937.79 385.038 936.805 384.727 935.608 384.727C934.411 384.727 933.426 385.038 932.653 385.659C931.881 386.28 931.309 387.095 930.938 388.102C930.566 389.11 930.381 390.197 930.381 391.364C930.381 392.53 930.566 393.614 930.938 394.614C931.309 395.614 931.881 396.42 932.653 397.034C933.426 397.648 934.411 397.955 935.608 397.955ZM950.293 389.5V400H947.611V382.545H950.202V385.273H950.429C950.838 384.386 951.459 383.674 952.293 383.136C953.126 382.591 954.202 382.318 955.52 382.318C956.702 382.318 957.736 382.561 958.622 383.045C959.509 383.523 960.198 384.25 960.69 385.227C961.183 386.197 961.429 387.424 961.429 388.909V400H958.747V389.091C958.747 387.72 958.391 386.652 957.679 385.886C956.967 385.114 955.99 384.727 954.747 384.727C953.891 384.727 953.126 384.913 952.452 385.284C951.785 385.655 951.259 386.197 950.872 386.909C950.486 387.621 950.293 388.485 950.293 389.5ZM978.693 386.455L976.284 387.136C976.133 386.735 975.909 386.345 975.614 385.966C975.326 385.58 974.932 385.261 974.432 385.011C973.932 384.761 973.292 384.636 972.511 384.636C971.443 384.636 970.553 384.883 969.841 385.375C969.136 385.86 968.784 386.477 968.784 387.227C968.784 387.894 969.027 388.42 969.511 388.807C969.996 389.193 970.754 389.515 971.784 389.773L974.375 390.409C975.936 390.788 977.098 391.367 977.864 392.148C978.629 392.92 979.011 393.917 979.011 395.136C979.011 396.136 978.723 397.03 978.148 397.818C977.58 398.606 976.784 399.227 975.761 399.682C974.739 400.136 973.549 400.364 972.193 400.364C970.413 400.364 968.939 399.977 967.773 399.205C966.606 398.432 965.867 397.303 965.557 395.818L968.102 395.182C968.345 396.121 968.803 396.826 969.477 397.295C970.159 397.765 971.049 398 972.148 398C973.398 398 974.39 397.735 975.125 397.205C975.867 396.667 976.239 396.023 976.239 395.273C976.239 394.667 976.027 394.159 975.602 393.75C975.178 393.333 974.527 393.023 973.648 392.818L970.739 392.136C969.14 391.758 967.966 391.17 967.216 390.375C966.473 389.572 966.102 388.568 966.102 387.364C966.102 386.379 966.379 385.508 966.932 384.75C967.492 383.992 968.254 383.398 969.216 382.966C970.186 382.534 971.284 382.318 972.511 382.318C974.239 382.318 975.595 382.697 976.58 383.455C977.572 384.212 978.277 385.212 978.693 386.455Z" fill="black"/>
<path d="M499.818 903V879.727H507.682C509.5 879.727 510.992 880.038 512.159 880.659C513.326 881.273 514.189 882.117 514.75 883.193C515.311 884.269 515.591 885.492 515.591 886.864C515.591 888.235 515.311 889.451 514.75 890.511C514.189 891.572 513.33 892.405 512.17 893.011C511.011 893.61 509.53 893.909 507.727 893.909H501.364V891.364H507.636C508.879 891.364 509.879 891.182 510.636 890.818C511.402 890.455 511.955 889.939 512.295 889.273C512.644 888.598 512.818 887.795 512.818 886.864C512.818 885.932 512.644 885.117 512.295 884.42C511.947 883.723 511.39 883.186 510.625 882.807C509.86 882.42 508.848 882.227 507.591 882.227H502.636V903H499.818ZM510.773 892.545L516.5 903H513.227L507.591 892.545H510.773ZM527.054 903.364C525.372 903.364 523.921 902.992 522.702 902.25C521.49 901.5 520.554 900.455 519.895 899.114C519.243 897.765 518.918 896.197 518.918 894.409C518.918 892.621 519.243 891.045 519.895 889.682C520.554 888.311 521.471 887.242 522.645 886.477C523.827 885.705 525.205 885.318 526.781 885.318C527.69 885.318 528.588 885.47 529.474 885.773C530.361 886.076 531.168 886.568 531.895 887.25C532.622 887.924 533.202 888.818 533.634 889.932C534.065 891.045 534.281 892.417 534.281 894.045V895.182H520.827V892.864H531.554C531.554 891.879 531.357 891 530.963 890.227C530.577 889.455 530.024 888.845 529.304 888.398C528.592 887.951 527.751 887.727 526.781 887.727C525.713 887.727 524.789 887.992 524.009 888.523C523.236 889.045 522.641 889.727 522.224 890.568C521.808 891.409 521.599 892.311 521.599 893.273V894.818C521.599 896.136 521.827 897.254 522.281 898.17C522.743 899.08 523.384 899.773 524.202 900.25C525.02 900.72 525.971 900.955 527.054 900.955C527.759 900.955 528.395 900.856 528.963 900.659C529.539 900.455 530.035 900.152 530.452 899.75C530.868 899.341 531.19 898.833 531.418 898.227L534.009 898.955C533.736 899.833 533.277 900.606 532.634 901.273C531.99 901.932 531.194 902.447 530.247 902.818C529.3 903.182 528.236 903.364 527.054 903.364ZM550.724 889.455L548.315 890.136C548.164 889.735 547.94 889.345 547.645 888.966C547.357 888.58 546.963 888.261 546.463 888.011C545.963 887.761 545.323 887.636 544.543 887.636C543.474 887.636 542.584 887.883 541.872 888.375C541.168 888.86 540.815 889.477 540.815 890.227C540.815 890.894 541.058 891.42 541.543 891.807C542.027 892.193 542.785 892.515 543.815 892.773L546.406 893.409C547.967 893.788 549.13 894.367 549.895 895.148C550.66 895.92 551.043 896.917 551.043 898.136C551.043 899.136 550.755 900.03 550.179 900.818C549.611 901.606 548.815 902.227 547.793 902.682C546.77 903.136 545.58 903.364 544.224 903.364C542.444 903.364 540.971 902.977 539.804 902.205C538.637 901.432 537.899 900.303 537.588 898.818L540.134 898.182C540.376 899.121 540.834 899.826 541.509 900.295C542.19 900.765 543.08 901 544.179 901C545.429 901 546.421 900.735 547.156 900.205C547.899 899.667 548.27 899.023 548.27 898.273C548.27 897.667 548.058 897.159 547.634 896.75C547.209 896.333 546.558 896.023 545.679 895.818L542.77 895.136C541.171 894.758 539.997 894.17 539.247 893.375C538.505 892.572 538.134 891.568 538.134 890.364C538.134 889.379 538.41 888.508 538.963 887.75C539.524 886.992 540.285 886.398 541.247 885.966C542.217 885.534 543.315 885.318 544.543 885.318C546.27 885.318 547.626 885.697 548.611 886.455C549.603 887.212 550.308 888.212 550.724 889.455ZM555.08 903V885.545H557.761V903H555.08ZM556.443 882.636C555.92 882.636 555.47 882.458 555.091 882.102C554.72 881.746 554.534 881.318 554.534 880.818C554.534 880.318 554.72 879.89 555.091 879.534C555.47 879.178 555.92 879 556.443 879C556.966 879 557.413 879.178 557.784 879.534C558.163 879.89 558.352 880.318 558.352 880.818C558.352 881.318 558.163 881.746 557.784 882.102C557.413 882.458 556.966 882.636 556.443 882.636ZM575.037 889.455L572.628 890.136C572.476 889.735 572.253 889.345 571.957 888.966C571.67 888.58 571.276 888.261 570.776 888.011C570.276 887.761 569.635 887.636 568.855 887.636C567.787 887.636 566.897 887.883 566.185 888.375C565.48 888.86 565.128 889.477 565.128 890.227C565.128 890.894 565.37 891.42 565.855 891.807C566.34 892.193 567.098 892.515 568.128 892.773L570.719 893.409C572.279 893.788 573.442 894.367 574.207 895.148C574.973 895.92 575.355 896.917 575.355 898.136C575.355 899.136 575.067 900.03 574.491 900.818C573.923 901.606 573.128 902.227 572.105 902.682C571.082 903.136 569.893 903.364 568.537 903.364C566.757 903.364 565.283 902.977 564.116 902.205C562.95 901.432 562.211 900.303 561.901 898.818L564.446 898.182C564.688 899.121 565.147 899.826 565.821 900.295C566.503 900.765 567.393 901 568.491 901C569.741 901 570.734 900.735 571.469 900.205C572.211 899.667 572.582 899.023 572.582 898.273C572.582 897.667 572.37 897.159 571.946 896.75C571.522 896.333 570.87 896.023 569.991 895.818L567.082 895.136C565.484 894.758 564.31 894.17 563.56 893.375C562.817 892.572 562.446 891.568 562.446 890.364C562.446 889.379 562.723 888.508 563.276 887.75C563.836 886.992 564.598 886.398 565.56 885.966C566.529 885.534 567.628 885.318 568.855 885.318C570.582 885.318 571.938 885.697 572.923 886.455C573.916 887.212 574.62 888.212 575.037 889.455ZM586.983 885.545V887.818H577.938V885.545H586.983ZM580.574 881.364H583.256V898C583.256 898.758 583.366 899.326 583.585 899.705C583.813 900.076 584.1 900.326 584.449 900.455C584.805 900.576 585.18 900.636 585.574 900.636C585.869 900.636 586.112 900.621 586.301 900.591C586.491 900.553 586.642 900.523 586.756 900.5L587.301 902.909C587.119 902.977 586.866 903.045 586.54 903.114C586.214 903.189 585.801 903.227 585.301 903.227C584.544 903.227 583.801 903.064 583.074 902.739C582.354 902.413 581.756 901.917 581.278 901.25C580.809 900.583 580.574 899.742 580.574 898.727V881.364ZM597.92 903.364C596.345 903.364 594.962 902.989 593.773 902.239C592.591 901.489 591.667 900.439 591 899.091C590.341 897.742 590.011 896.167 590.011 894.364C590.011 892.545 590.341 890.958 591 889.602C591.667 888.246 592.591 887.193 593.773 886.443C594.962 885.693 596.345 885.318 597.92 885.318C599.496 885.318 600.875 885.693 602.057 886.443C603.246 887.193 604.17 888.246 604.83 889.602C605.496 890.958 605.83 892.545 605.83 894.364C605.83 896.167 605.496 897.742 604.83 899.091C604.17 900.439 603.246 901.489 602.057 902.239C600.875 902.989 599.496 903.364 597.92 903.364ZM597.92 900.955C599.117 900.955 600.102 900.648 600.875 900.034C601.648 899.42 602.22 898.614 602.591 897.614C602.962 896.614 603.148 895.53 603.148 894.364C603.148 893.197 602.962 892.11 602.591 891.102C602.22 890.095 601.648 889.28 600.875 888.659C600.102 888.038 599.117 887.727 597.92 887.727C596.723 887.727 595.739 888.038 594.966 888.659C594.193 889.28 593.621 890.095 593.25 891.102C592.879 892.11 592.693 893.197 592.693 894.364C592.693 895.53 592.879 896.614 593.25 897.614C593.621 898.614 594.193 899.42 594.966 900.034C595.739 900.648 596.723 900.955 597.92 900.955ZM609.923 903V885.545H612.514V888.182H612.696C613.014 887.318 613.59 886.617 614.423 886.08C615.257 885.542 616.196 885.273 617.241 885.273C617.438 885.273 617.685 885.277 617.98 885.284C618.276 885.292 618.499 885.303 618.651 885.318V888.045C618.56 888.023 618.351 887.989 618.026 887.943C617.707 887.89 617.37 887.864 617.014 887.864C616.166 887.864 615.408 888.042 614.741 888.398C614.082 888.746 613.56 889.231 613.173 889.852C612.795 890.466 612.605 891.167 612.605 891.955V903H609.923Z" fill="black"/>
<path d="M476.507 215.855C476.427 216.68 477.031 217.413 477.856 217.493L491.293 218.793C492.117 218.873 492.85 218.269 492.93 217.445C493.01 216.62 492.406 215.887 491.582 215.807L479.638 214.651L480.793 202.707C480.873 201.883 480.269 201.15 479.445 201.07C478.62 200.99 477.887 201.594 477.807 202.418L476.507 215.855ZM647.046 74.8421L477.046 214.842L478.954 217.158L648.954 77.1579L647.046 74.8421Z" fill="#EB8A30"/>
<path d="M476.507 299.86C476.429 300.685 477.035 301.416 477.86 301.493L491.301 302.752C492.126 302.829 492.858 302.223 492.935 301.398C493.012 300.573 492.406 299.842 491.581 299.765L479.633 298.646L480.752 286.699C480.829 285.874 480.223 285.142 479.398 285.065C478.573 284.988 477.842 285.594 477.765 286.419L476.507 299.86ZM699.043 114.845L477.043 298.845L478.957 301.155L700.957 117.155L699.043 114.845Z" fill="#EB8A30"/>
<path d="M477.505 255.873C477.435 256.699 478.048 257.425 478.873 257.495L492.325 258.635C493.151 258.705 493.876 258.092 493.946 257.267C494.016 256.441 493.404 255.715 492.578 255.645L480.621 254.632L481.635 242.675C481.705 241.849 481.092 241.124 480.267 241.054C479.441 240.984 478.715 241.596 478.645 242.422L477.505 255.873ZM670.033 92.8536L478.033 254.854L479.967 257.146L671.967 95.1464L670.033 92.8536Z" fill="#EB8A30"/>
<path d="M696.636 56.7273V80H693.818V56.7273H696.636ZM704.605 69.5V80H701.923V62.5455H704.514V65.2727H704.741C705.151 64.3864 705.772 63.6742 706.605 63.1364C707.438 62.5909 708.514 62.3182 709.832 62.3182C711.014 62.3182 712.048 62.5606 712.935 63.0455C713.821 63.5227 714.51 64.25 715.003 65.2273C715.495 66.197 715.741 67.4242 715.741 68.9091V80H713.06V69.0909C713.06 67.7197 712.704 66.6515 711.991 65.8864C711.279 65.1136 710.302 64.7273 709.06 64.7273C708.204 64.7273 707.438 64.9129 706.764 65.2841C706.098 65.6553 705.571 66.197 705.185 66.9091C704.798 67.6212 704.605 68.4848 704.605 69.5ZM727.733 80.3636C726.097 80.3636 724.688 79.9773 723.506 79.2045C722.324 78.4318 721.415 77.3674 720.778 76.0114C720.142 74.6553 719.824 73.1061 719.824 71.3636C719.824 69.5909 720.15 68.0265 720.801 66.6705C721.46 65.3068 722.377 64.2424 723.551 63.4773C724.733 62.7045 726.112 62.3182 727.688 62.3182C728.915 62.3182 730.021 62.5455 731.006 63C731.991 63.4545 732.797 64.0909 733.426 64.9091C734.055 65.7273 734.445 66.6818 734.597 67.7727H731.915C731.71 66.9773 731.256 66.2727 730.551 65.6591C729.854 65.0379 728.915 64.7273 727.733 64.7273C726.688 64.7273 725.771 65 724.983 65.5455C724.203 66.0833 723.593 66.8447 723.153 67.8295C722.722 68.8068 722.506 69.9545 722.506 71.2727C722.506 72.6212 722.718 73.7955 723.142 74.7955C723.574 75.7955 724.18 76.572 724.96 77.125C725.748 77.678 726.672 77.9545 727.733 77.9545C728.43 77.9545 729.062 77.8333 729.631 77.5909C730.199 77.3485 730.68 77 731.074 76.5455C731.468 76.0909 731.748 75.5455 731.915 74.9091H734.597C734.445 75.9394 734.07 76.8674 733.472 77.6932C732.881 78.5114 732.097 79.1629 731.119 79.6477C730.15 80.125 729.021 80.3636 727.733 80.3636ZM738.517 80V62.5455H741.199V80H738.517ZM739.881 59.6364C739.358 59.6364 738.907 59.4583 738.528 59.1023C738.157 58.7462 737.972 58.3182 737.972 57.8182C737.972 57.3182 738.157 56.8902 738.528 56.5341C738.907 56.178 739.358 56 739.881 56C740.403 56 740.85 56.178 741.222 56.5341C741.6 56.8902 741.79 57.3182 741.79 57.8182C741.79 58.3182 741.6 58.7462 741.222 59.1023C740.85 59.4583 740.403 59.6364 739.881 59.6364ZM752.702 80.3636C751.247 80.3636 749.963 79.9962 748.849 79.2614C747.736 78.5189 746.865 77.4735 746.236 76.125C745.607 74.7689 745.293 73.1667 745.293 71.3182C745.293 69.4848 745.607 67.8939 746.236 66.5455C746.865 65.197 747.74 64.1553 748.861 63.4205C749.982 62.6856 751.277 62.3182 752.747 62.3182C753.884 62.3182 754.781 62.5076 755.44 62.8864C756.107 63.2576 756.615 63.6818 756.963 64.1591C757.319 64.6288 757.596 65.0152 757.793 65.3182H758.02V56.7273H760.702V80H758.111V77.3182H757.793C757.596 77.6364 757.315 78.0379 756.952 78.5227C756.588 79 756.069 79.428 755.395 79.8068C754.721 80.178 753.823 80.3636 752.702 80.3636ZM753.065 77.9545C754.141 77.9545 755.05 77.6742 755.793 77.1136C756.535 76.5455 757.099 75.7614 757.486 74.7614C757.872 73.7538 758.065 72.5909 758.065 71.2727C758.065 69.9697 757.876 68.8295 757.497 67.8523C757.118 66.8674 756.558 66.1023 755.815 65.5568C755.073 65.0038 754.156 64.7273 753.065 64.7273C751.929 64.7273 750.982 65.0189 750.224 65.6023C749.474 66.178 748.91 66.9621 748.531 67.9545C748.16 68.9394 747.974 70.0455 747.974 71.2727C747.974 72.5152 748.164 73.6439 748.543 74.6591C748.929 75.6667 749.497 76.4697 750.247 77.0682C751.005 77.6591 751.944 77.9545 753.065 77.9545ZM773.304 80.3636C771.622 80.3636 770.171 79.9924 768.952 79.25C767.74 78.5 766.804 77.4545 766.145 76.1136C765.493 74.7652 765.168 73.197 765.168 71.4091C765.168 69.6212 765.493 68.0455 766.145 66.6818C766.804 65.3106 767.721 64.2424 768.895 63.4773C770.077 62.7045 771.455 62.3182 773.031 62.3182C773.94 62.3182 774.838 62.4697 775.724 62.7727C776.611 63.0758 777.418 63.5682 778.145 64.25C778.872 64.9242 779.452 65.8182 779.884 66.9318C780.315 68.0455 780.531 69.4167 780.531 71.0455V72.1818H767.077V69.8636H777.804C777.804 68.8788 777.607 68 777.213 67.2273C776.827 66.4545 776.274 65.8447 775.554 65.3977C774.842 64.9508 774.001 64.7273 773.031 64.7273C771.963 64.7273 771.039 64.9924 770.259 65.5227C769.486 66.0455 768.891 66.7273 768.474 67.5682C768.058 68.4091 767.849 69.3106 767.849 70.2727V71.8182C767.849 73.1364 768.077 74.2538 768.531 75.1705C768.993 76.0795 769.634 76.7727 770.452 77.25C771.27 77.7197 772.221 77.9545 773.304 77.9545C774.009 77.9545 774.645 77.8561 775.213 77.6591C775.789 77.4545 776.285 77.1515 776.702 76.75C777.118 76.3409 777.44 75.8333 777.668 75.2273L780.259 75.9545C779.986 76.8333 779.527 77.6061 778.884 78.2727C778.24 78.9318 777.444 79.447 776.497 79.8182C775.55 80.1818 774.486 80.3636 773.304 80.3636ZM787.293 69.5V80H784.611V62.5455H787.202V65.2727H787.429C787.838 64.3864 788.459 63.6742 789.293 63.1364C790.126 62.5909 791.202 62.3182 792.52 62.3182C793.702 62.3182 794.736 62.5606 795.622 63.0455C796.509 63.5227 797.198 64.25 797.69 65.2273C798.183 66.197 798.429 67.4242 798.429 68.9091V80H795.747V69.0909C795.747 67.7197 795.391 66.6515 794.679 65.8864C793.967 65.1136 792.99 64.7273 791.747 64.7273C790.891 64.7273 790.126 64.9129 789.452 65.2841C788.785 65.6553 788.259 66.197 787.872 66.9091C787.486 67.6212 787.293 68.4848 787.293 69.5ZM810.92 62.5455V64.8182H801.875V62.5455H810.92ZM804.511 58.3636H807.193V75C807.193 75.7576 807.303 76.3258 807.523 76.7045C807.75 77.0758 808.038 77.3258 808.386 77.4545C808.742 77.5758 809.117 77.6364 809.511 77.6364C809.807 77.6364 810.049 77.6212 810.239 77.5909C810.428 77.553 810.58 77.5227 810.693 77.5L811.239 79.9091C811.057 79.9773 810.803 80.0455 810.477 80.1136C810.152 80.1894 809.739 80.2273 809.239 80.2273C808.481 80.2273 807.739 80.0644 807.011 79.7386C806.292 79.4129 805.693 78.9167 805.216 78.25C804.746 77.5833 804.511 76.7424 804.511 75.7273V58.3636ZM824.318 80V56.7273H832.182C834.008 56.7273 835.5 57.0568 836.659 57.7159C837.826 58.3674 838.689 59.25 839.25 60.3636C839.811 61.4773 840.091 62.7197 840.091 64.0909C840.091 65.4621 839.811 66.7083 839.25 67.8295C838.697 68.9508 837.841 69.8447 836.682 70.5114C835.523 71.1705 834.038 71.5 832.227 71.5H826.591V69H832.136C833.386 69 834.39 68.7841 835.148 68.3523C835.905 67.9205 836.455 67.3371 836.795 66.6023C837.144 65.8598 837.318 65.0227 837.318 64.0909C837.318 63.1591 837.144 62.3258 836.795 61.5909C836.455 60.8561 835.902 60.2803 835.136 59.8636C834.371 59.4394 833.356 59.2273 832.091 59.2273H827.136V80H824.318ZM846.949 69.5V80H844.267V56.7273H846.949V65.2727H847.176C847.585 64.3712 848.199 63.6553 849.017 63.125C849.843 62.5871 850.941 62.3182 852.312 62.3182C853.502 62.3182 854.544 62.5568 855.438 63.0341C856.331 63.5038 857.025 64.2273 857.517 65.2045C858.017 66.1742 858.267 67.4091 858.267 68.9091V80H855.585V69.0909C855.585 67.7045 855.225 66.6326 854.506 65.875C853.794 65.1098 852.805 64.7273 851.54 64.7273C850.661 64.7273 849.873 64.9129 849.176 65.2841C848.487 65.6553 847.941 66.197 847.54 66.9091C847.146 67.6212 846.949 68.4848 846.949 69.5ZM870.264 80.3636C868.688 80.3636 867.306 79.9886 866.116 79.2386C864.935 78.4886 864.01 77.4394 863.344 76.0909C862.685 74.7424 862.355 73.1667 862.355 71.3636C862.355 69.5455 862.685 67.9583 863.344 66.6023C864.01 65.2462 864.935 64.1932 866.116 63.4432C867.306 62.6932 868.688 62.3182 870.264 62.3182C871.84 62.3182 873.219 62.6932 874.401 63.4432C875.59 64.1932 876.514 65.2462 877.173 66.6023C877.84 67.9583 878.173 69.5455 878.173 71.3636C878.173 73.1667 877.84 74.7424 877.173 76.0909C876.514 77.4394 875.59 78.4886 874.401 79.2386C873.219 79.9886 871.84 80.3636 870.264 80.3636ZM870.264 77.9545C871.461 77.9545 872.446 77.6477 873.219 77.0341C873.991 76.4205 874.563 75.6136 874.935 74.6136C875.306 73.6136 875.491 72.5303 875.491 71.3636C875.491 70.197 875.306 69.1098 874.935 68.1023C874.563 67.0947 873.991 66.2803 873.219 65.6591C872.446 65.0379 871.461 64.7273 870.264 64.7273C869.067 64.7273 868.082 65.0379 867.31 65.6591C866.537 66.2803 865.965 67.0947 865.594 68.1023C865.223 69.1098 865.037 70.197 865.037 71.3636C865.037 72.5303 865.223 73.6136 865.594 74.6136C865.965 75.6136 866.537 76.4205 867.31 77.0341C868.082 77.6477 869.067 77.9545 870.264 77.9545ZM889.858 62.5455V64.8182H880.812V62.5455H889.858ZM883.449 58.3636H886.131V75C886.131 75.7576 886.241 76.3258 886.46 76.7045C886.688 77.0758 886.975 77.3258 887.324 77.4545C887.68 77.5758 888.055 77.6364 888.449 77.6364C888.744 77.6364 888.987 77.6212 889.176 77.5909C889.366 77.553 889.517 77.5227 889.631 77.5L890.176 79.9091C889.994 79.9773 889.741 80.0455 889.415 80.1136C889.089 80.1894 888.676 80.2273 888.176 80.2273C887.419 80.2273 886.676 80.0644 885.949 79.7386C885.229 79.4129 884.631 78.9167 884.153 78.25C883.684 77.5833 883.449 76.7424 883.449 75.7273V58.3636ZM900.795 80.3636C899.22 80.3636 897.837 79.9886 896.648 79.2386C895.466 78.4886 894.542 77.4394 893.875 76.0909C893.216 74.7424 892.886 73.1667 892.886 71.3636C892.886 69.5455 893.216 67.9583 893.875 66.6023C894.542 65.2462 895.466 64.1932 896.648 63.4432C897.837 62.6932 899.22 62.3182 900.795 62.3182C902.371 62.3182 903.75 62.6932 904.932 63.4432C906.121 64.1932 907.045 65.2462 907.705 66.6023C908.371 67.9583 908.705 69.5455 908.705 71.3636C908.705 73.1667 908.371 74.7424 907.705 76.0909C907.045 77.4394 906.121 78.4886 904.932 79.2386C903.75 79.9886 902.371 80.3636 900.795 80.3636ZM900.795 77.9545C901.992 77.9545 902.977 77.6477 903.75 77.0341C904.523 76.4205 905.095 75.6136 905.466 74.6136C905.837 73.6136 906.023 72.5303 906.023 71.3636C906.023 70.197 905.837 69.1098 905.466 68.1023C905.095 67.0947 904.523 66.2803 903.75 65.6591C902.977 65.0379 901.992 64.7273 900.795 64.7273C899.598 64.7273 898.614 65.0379 897.841 65.6591C897.068 66.2803 896.496 67.0947 896.125 68.1023C895.754 69.1098 895.568 70.197 895.568 71.3636C895.568 72.5303 895.754 73.6136 896.125 74.6136C896.496 75.6136 897.068 76.4205 897.841 77.0341C898.614 77.6477 899.598 77.9545 900.795 77.9545ZM915.48 69.5V80H912.798V62.5455H915.389V65.2727H915.616C916.026 64.3864 916.647 63.6742 917.48 63.1364C918.313 62.5909 919.389 62.3182 920.707 62.3182C921.889 62.3182 922.923 62.5606 923.81 63.0455C924.696 63.5227 925.385 64.25 925.878 65.2273C926.37 66.197 926.616 67.4242 926.616 68.9091V80H923.935V69.0909C923.935 67.7197 923.579 66.6515 922.866 65.8864C922.154 65.1136 921.177 64.7273 919.935 64.7273C919.079 64.7273 918.313 64.9129 917.639 65.2841C916.973 65.6553 916.446 66.197 916.06 66.9091C915.673 67.6212 915.48 68.4848 915.48 69.5ZM943.881 66.4545L941.472 67.1364C941.32 66.7348 941.097 66.3447 940.801 65.9659C940.513 65.5795 940.119 65.2614 939.619 65.0114C939.119 64.7614 938.479 64.6364 937.699 64.6364C936.631 64.6364 935.741 64.8826 935.028 65.375C934.324 65.8598 933.972 66.4773 933.972 67.2273C933.972 67.8939 934.214 68.4205 934.699 68.8068C935.184 69.1932 935.941 69.5152 936.972 69.7727L939.562 70.4091C941.123 70.7879 942.286 71.3674 943.051 72.1477C943.816 72.9205 944.199 73.9167 944.199 75.1364C944.199 76.1364 943.911 77.0303 943.335 77.8182C942.767 78.6061 941.972 79.2273 940.949 79.6818C939.926 80.1364 938.737 80.3636 937.381 80.3636C935.6 80.3636 934.127 79.9773 932.96 79.2045C931.794 78.4318 931.055 77.303 930.744 75.8182L933.29 75.1818C933.532 76.1212 933.991 76.8258 934.665 77.2955C935.347 77.7652 936.237 78 937.335 78C938.585 78 939.578 77.7348 940.312 77.2045C941.055 76.6667 941.426 76.0227 941.426 75.2727C941.426 74.6667 941.214 74.1591 940.79 73.75C940.366 73.3333 939.714 73.0227 938.835 72.8182L935.926 72.1364C934.328 71.7576 933.153 71.1705 932.403 70.375C931.661 69.572 931.29 68.5682 931.29 67.3636C931.29 66.3788 931.566 65.5076 932.119 64.75C932.68 63.9924 933.441 63.3977 934.403 62.9659C935.373 62.5341 936.472 62.3182 937.699 62.3182C939.426 62.3182 940.782 62.697 941.767 63.4545C942.759 64.2121 943.464 65.2121 943.881 66.4545Z" fill="black"/>
</svg>
